Model Upgrade-Small.ufo
<glyph name="exclam" format="2">
	<advance width="287"/>
	<unicode hex="0021"/>
	<outline>
		<contour>
			<point x="62" y="108" type="line"/>
			<point x="74" y="108" type="line"/>
			<point x="392" y="885" type="line"/>
			<point x="362" y="885" type="line"/>
		</contour>
		<contour>
			<point x="8" y="24" type="curve" smooth="yes"/>
			<point x="7" y="22"/>
			<point x="7" y="19"/>
			<point x="7" y="17" type="curve" smooth="yes"/>
			<point x="7" y="6"/>
			<point x="14" y="-3"/>
			<point x="27" y="-3" type="curve" smooth="yes"/>
			<point x="41" y="-3"/>
			<point x="54" y="7"/>
			<point x="60" y="22" type="curve" smooth="yes"/>
			<point x="61" y="25"/>
			<point x="61" y="28"/>
			<point x="61" y="30" type="curve" smooth="yes"/>
			<point x="61" y="42"/>
			<point x="53" y="49"/>
			<point x="43" y="49" type="curve" smooth="yes"/>
			<point x="26" y="49"/>
			<point x="13" y="39"/>
		</contour>
	</outline>
</glyph>
<glyph name="quotedbl" format="2">
	<advance width="270"/>
	<unicode hex="0022"/>
	<outline>
		<contour>
			<point x="229" y="856" type="curve" smooth="yes"/>
			<point x="152" y="675" type="line"/>
			<point x="163" y="675" type="line"/>
			<point x="263" y="844" type="line" smooth="yes"/>
			<point x="266" y="850"/>
			<point x="268" y="856"/>
			<point x="268" y="860" type="curve" smooth="yes"/>
			<point x="268" y="870"/>
			<point x="261" y="875"/>
			<point x="254" y="875" type="curve" smooth="yes"/>
			<point x="245" y="875"/>
			<point x="235" y="869"/>
		</contour>
		<contour>
			<point x="303" y="856" type="curve" smooth="yes"/>
			<point x="225" y="675" type="line"/>
			<point x="236" y="675" type="line"/>
			<point x="336" y="844" type="line" smooth="yes"/>
			<point x="339" y="850"/>
			<point x="341" y="856"/>
			<point x="341" y="860" type="curve" smooth="yes"/>
			<point x="341" y="870"/>
			<point x="334" y="875"/>
			<point x="327" y="875" type="curve" smooth="yes"/>
			<point x="318" y="875"/>
			<point x="309" y="869"/>
		</contour>
	</outline>
</glyph>
<glyph name="numbersign" format="2">
	<advance width="698"/>
	<unicode hex="0023"/>
	<outline>
		<contour>
			<point x="159" y="441" type="line"/>
			<point x="311" y="441" type="line" smooth="yes"/>
			<point x="316" y="441"/>
			<point x="317" y="439"/>
			<point x="315" y="434" type="curve" smooth="yes"/>
			<point x="235" y="241" type="line" smooth="yes"/>
			<point x="233" y="235"/>
			<point x="228" y="232"/>
			<point x="221" y="232" type="curve" smooth="yes"/>
			<point x="74" y="232" type="line"/>
			<point x="74" y="220" type="line"/>
			<point x="220" y="220" type="line" smooth="yes"/>
			<point x="225" y="220"/>
			<point x="225" y="219"/>
			<point x="223" y="214" type="curve" smooth="yes"/>
			<point x="176" y="99" type="line"/>
			<point x="190" y="99" type="line"/>
			<point x="236" y="212" type="line" smooth="yes"/>
			<point x="238" y="218"/>
			<point x="243" y="220"/>
			<point x="250" y="220" type="curve" smooth="yes"/>
			<point x="396" y="220" type="line" smooth="yes"/>
			<point x="401" y="220"/>
			<point x="403" y="220"/>
			<point x="400" y="214" type="curve" smooth="yes"/>
			<point x="353" y="99" type="line"/>
			<point x="367" y="99" type="line"/>
			<point x="413" y="212" type="line" smooth="yes"/>
			<point x="415" y="218"/>
			<point x="420" y="220"/>
			<point x="427" y="220" type="curve" smooth="yes"/>
			<point x="574" y="220" type="line"/>
			<point x="574" y="232" type="line"/>
			<point x="429" y="232" type="line" smooth="yes"/>
			<point x="424" y="232"/>
			<point x="423" y="235"/>
			<point x="425" y="239" type="curve" smooth="yes"/>
			<point x="505" y="432" type="line" smooth="yes"/>
			<point x="507" y="438"/>
			<point x="512" y="441"/>
			<point x="519" y="441" type="curve" smooth="yes"/>
			<point x="659" y="441" type="line"/>
			<point x="659" y="453" type="line"/>
			<point x="521" y="453" type="line" smooth="yes"/>
			<point x="516" y="453"/>
			<point x="515" y="456"/>
			<point x="517" y="460" type="curve" smooth="yes"/>
			<point x="565" y="573" type="line"/>
			<point x="551" y="573" type="line"/>
			<point x="503" y="463" type="line" smooth="yes"/>
			<point x="500" y="457"/>
			<point x="496" y="453"/>
			<point x="489" y="453" type="curve" smooth="yes"/>
			<point x="344" y="453" type="line" smooth="yes"/>
			<point x="339" y="453"/>
			<point x="338" y="456"/>
			<point x="340" y="460" type="curve" smooth="yes"/>
			<point x="388" y="573" type="line"/>
			<point x="374" y="573" type="line"/>
			<point x="327" y="462" type="line" smooth="yes"/>
			<point x="325" y="456"/>
			<point x="320" y="453"/>
			<point x="313" y="453" type="curve" smooth="yes"/>
			<point x="159" y="453" type="line"/>
		</contour>
		<contour>
			<point x="492" y="434" type="curve" smooth="yes"/>
			<point x="412" y="241" type="line" smooth="yes"/>
			<point x="410" y="235"/>
			<point x="405" y="232"/>
			<point x="398" y="232" type="curve" smooth="yes"/>
			<point x="252" y="232" type="line" smooth="yes"/>
			<point x="247" y="232"/>
			<point x="246" y="234"/>
			<point x="248" y="239" type="curve" smooth="yes"/>
			<point x="328" y="432" type="line" smooth="yes"/>
			<point x="330" y="438"/>
			<point x="335" y="441"/>
			<point x="342" y="441" type="curve" smooth="yes"/>
			<point x="488" y="441" type="line" smooth="yes"/>
			<point x="493" y="441"/>
			<point x="494" y="439"/>
		</contour>
	</outline>
</glyph>
<glyph name="dollar" format="2">
	<advance width="625"/>
	<unicode hex="0024"/>
	<outline>
		<contour>
			<point x="551" y="669" type="curve" smooth="yes"/>
			<point x="476" y="669"/>
			<point x="390" y="618"/>
			<point x="390" y="506" type="curve" smooth="yes"/>
			<point x="390" y="462"/>
			<point x="406" y="422"/>
			<point x="426" y="385" type="curve"/>
			<point x="359" y="252" type="line"/>
			<point x="360" y="257"/>
			<point x="360" y="260"/>
			<point x="360" y="264" type="curve" smooth="yes"/>
			<point x="360" y="320"/>
			<point x="312" y="367"/>
			<point x="242" y="367" type="curve" smooth="yes"/>
			<point x="131" y="367"/>
			<point x="43" y="263"/>
			<point x="43" y="155" type="curve" smooth="yes"/>
			<point x="43" y="58"/>
			<point x="113" y="-19"/>
			<point x="213" y="-35" type="curve"/>
			<point x="171" y="-118" type="line"/>
			<point x="182" y="-123" type="line"/>
			<point x="226" y="-36" type="line"/>
			<point x="234" y="-37"/>
			<point x="241" y="-38"/>
			<point x="250" y="-38" type="curve" smooth="yes"/>
			<point x="389" y="-38"/>
			<point x="514" y="82"/>
			<point x="514" y="218" type="curve" smooth="yes"/>
			<point x="514" y="278"/>
			<point x="480" y="345"/>
			<point x="447" y="395" type="curve"/>
			<point x="577" y="653" type="line"/>
			<point x="623" y="642"/>
			<point x="644" y="606"/>
			<point x="644" y="573" type="curve" smooth="yes"/>
			<point x="644" y="536"/>
			<point x="619" y="487"/>
			<point x="572" y="487" type="curve" smooth="yes"/>
			<point x="565" y="487"/>
			<point x="556" y="490"/>
			<point x="546" y="495" type="curve"/>
			<point x="542" y="493"/>
			<point x="541" y="489"/>
			<point x="543" y="483" type="curve"/>
			<point x="556" y="478"/>
			<point x="566" y="476"/>
			<point x="576" y="476" type="curve" smooth="yes"/>
			<point x="626" y="476"/>
			<point x="663" y="529"/>
			<point x="663" y="573" type="curve" smooth="yes"/>
			<point x="663" y="610"/>
			<point x="637" y="653"/>
			<point x="583" y="665" type="curve"/>
			<point x="637" y="770" type="line"/>
			<point x="626" y="775" type="line"/>
			<point x="571" y="667" type="line"/>
			<point x="565" y="668"/>
			<point x="558" y="669"/>
		</contour>
		<contour>
			<point x="409" y="520" type="curve" smooth="yes"/>
			<point x="409" y="617"/>
			<point x="486" y="657"/>
			<point x="543" y="657" type="curve" smooth="yes"/>
			<point x="551" y="657"/>
			<point x="558" y="656"/>
			<point x="565" y="655" type="curve"/>
			<point x="439" y="409" type="line"/>
			<point x="422" y="443"/>
			<point x="409" y="479"/>
		</contour>
		<contour>
			<point x="492" y="212" type="curve" smooth="yes"/>
			<point x="492" y="77"/>
			<point x="370" y="-27"/>
			<point x="247" y="-27" type="curve" smooth="yes"/>
			<point x="242" y="-27"/>
			<point x="236" y="-27"/>
			<point x="231" y="-26" type="curve"/>
			<point x="433" y="371" type="line"/>
			<point x="462" y="332"/>
			<point x="492" y="261"/>
		</contour>
		<contour>
			<point x="61" y="158" type="curve" smooth="yes"/>
			<point x="61" y="255"/>
			<point x="141" y="355"/>
			<point x="243" y="355" type="curve" smooth="yes"/>
			<point x="307" y="355"/>
			<point x="345" y="310"/>
			<point x="345" y="263" type="curve" smooth="yes"/>
			<point x="345" y="212"/>
			<point x="302" y="150"/>
			<point x="241" y="150" type="curve" smooth="yes"/>
			<point x="233" y="150"/>
			<point x="201" y="151"/>
			<point x="189" y="185" type="curve"/>
			<point x="183" y="188"/>
			<point x="179" y="185"/>
			<point x="179" y="178" type="curve"/>
			<point x="194" y="144"/>
			<point x="223" y="138"/>
			<point x="243" y="138" type="curve" smooth="yes"/>
			<point x="272" y="138"/>
			<point x="296" y="148"/>
			<point x="313" y="164" type="curve"/>
			<point x="218" y="-25" type="line"/>
			<point x="123" y="-12"/>
			<point x="61" y="64"/>
		</contour>
	</outline>
</glyph>
<glyph name="percent" format="2">
	<advance width="537"/>
	<unicode hex="0025"/>
	<outline>
		<contour>
			<point x="511" y="565" type="line"/>
			<point x="482" y="565" type="line"/>
			<point x="23" y="47" type="line"/>
			<point x="33" y="42" type="line"/>
		</contour>
		<contour>
			<point x="257" y="138" type="curve" smooth="yes"/>
			<point x="257" y="103"/>
			<point x="279" y="78"/>
			<point x="312" y="78" type="curve" smooth="yes"/>
			<point x="363" y="78"/>
			<point x="407" y="133"/>
			<point x="407" y="182" type="curve" smooth="yes"/>
			<point x="407" y="217"/>
			<point x="385" y="242"/>
			<point x="351" y="242" type="curve" smooth="yes"/>
			<point x="301" y="242"/>
			<point x="257" y="187"/>
		</contour>
		<contour>
			<point x="350" y="230" type="curve" smooth="yes"/>
			<point x="369" y="230"/>
			<point x="379" y="212"/>
			<point x="379" y="185" type="curve" smooth="yes"/>
			<point x="379" y="149"/>
			<point x="353" y="90"/>
			<point x="313" y="90" type="curve" smooth="yes"/>
			<point x="296" y="90"/>
			<point x="285" y="107"/>
			<point x="285" y="133" type="curve" smooth="yes"/>
			<point x="285" y="167"/>
			<point x="312" y="230"/>
		</contour>
		<contour>
			<point x="118" y="434" type="curve" smooth="yes"/>
			<point x="118" y="398"/>
			<point x="139" y="374"/>
			<point x="173" y="374" type="curve" smooth="yes"/>
			<point x="224" y="374"/>
			<point x="267" y="427"/>
			<point x="267" y="477" type="curve" smooth="yes"/>
			<point x="267" y="512"/>
			<point x="245" y="538"/>
			<point x="212" y="538" type="curve" smooth="yes"/>
			<point x="160" y="538"/>
			<point x="118" y="483"/>
		</contour>
		<contour>
			<point x="210" y="526" type="curve" smooth="yes"/>
			<point x="228" y="526"/>
			<point x="239" y="506"/>
			<point x="239" y="480" type="curve" smooth="yes"/>
			<point x="239" y="445"/>
			<point x="214" y="386"/>
			<point x="174" y="386" type="curve" smooth="yes"/>
			<point x="156" y="386"/>
			<point x="145" y="403"/>
			<point x="145" y="428" type="curve" smooth="yes"/>
			<point x="145" y="462"/>
			<point x="172" y="526"/>
		</contour>
	</outline>
</glyph>
<glyph name="ampersand" format="2">
	<advance width="591"/>
	<unicode hex="0026"/>
	<outline>
		<contour>
			<point x="506" y="840" type="curve"/>
			<point x="524" y="860" type="line"/>
			<point x="422" y="860"/>
			<point x="314" y="762"/>
			<point x="314" y="565" type="curve" smooth="yes"/>
			<point x="314" y="394"/>
			<point x="402" y="237"/>
			<point x="402" y="66" type="curve" smooth="yes"/>
			<point x="402" y="-71"/>
			<point x="340" y="-169"/>
			<point x="254" y="-169" type="curve" smooth="yes"/>
			<point x="222" y="-169"/>
			<point x="197" y="-153"/>
			<point x="188" y="-120" type="curve"/>
			<point x="180" y="-131" type="line"/>
			<point x="184" y="-168"/>
			<point x="209" y="-188"/>
			<point x="247" y="-188" type="curve" smooth="yes"/>
			<point x="345" y="-188"/>
			<point x="419" y="-75"/>
			<point x="419" y="81" type="curve" smooth="yes"/>
			<point x="419" y="251"/>
			<point x="332" y="408"/>
			<point x="332" y="577" type="curve" smooth="yes"/>
			<point x="332" y="759"/>
			<point x="422" y="840"/>
		</contour>
		<contour>
			<point x="484" y="785" type="curve"/>
			<point x="479" y="783"/>
			<point x="477" y="781"/>
			<point x="480" y="777" type="curve" smooth="yes"/>
			<point x="491" y="766"/>
			<point x="494" y="755"/>
			<point x="494" y="739" type="curve" smooth="yes"/>
			<point x="494" y="717"/>
			<point x="481" y="682"/>
			<point x="470" y="667" type="curve" smooth="yes"/>
			<point x="420" y="602"/>
			<point x="334" y="565"/>
			<point x="262" y="531" type="curve" smooth="yes"/>
			<point x="150" y="479"/>
			<point x="-16" y="380"/>
			<point x="-16" y="195" type="curve" smooth="yes"/>
			<point x="-16" y="63"/>
			<point x="72" y="-23"/>
			<point x="207" y="-23" type="curve" smooth="yes"/>
			<point x="376" y="-23"/>
			<point x="533" y="126"/>
			<point x="533" y="286" type="curve" smooth="yes"/>
			<point x="533" y="377"/>
			<point x="478" y="436"/>
			<point x="393" y="436" type="curve" smooth="yes"/>
			<point x="286" y="436"/>
			<point x="187" y="345"/>
			<point x="187" y="245" type="curve" smooth="yes"/>
			<point x="187" y="179"/>
			<point x="221" y="130"/>
			<point x="268" y="130" type="curve" smooth="yes"/>
			<point x="284" y="130"/>
			<point x="305" y="132"/>
			<point x="318" y="145" type="curve"/>
			<point x="320" y="150"/>
			<point x="317" y="153"/>
			<point x="311" y="154" type="curve"/>
			<point x="297" y="141"/>
			<point x="277" y="141"/>
			<point x="277" y="141" type="curve" smooth="yes"/>
			<point x="238" y="141"/>
			<point x="211" y="186"/>
			<point x="211" y="247" type="curve" smooth="yes"/>
			<point x="211" y="341"/>
			<point x="293" y="423"/>
			<point x="388" y="423" type="curve" smooth="yes"/>
			<point x="462" y="423"/>
			<point x="508" y="371"/>
			<point x="508" y="288" type="curve" smooth="yes"/>
			<point x="508" y="133"/>
			<point x="365" y="-11"/>
			<point x="209" y="-11" type="curve" smooth="yes"/>
			<point x="86" y="-11"/>
			<point x="7" y="69"/>
			<point x="7" y="195" type="curve" smooth="yes"/>
			<point x="7" y="313"/>
			<point x="95" y="438"/>
			<point x="269" y="518" type="curve" smooth="yes"/>
			<point x="449" y="602"/>
			<point x="516" y="670"/>
			<point x="516" y="734" type="curve" smooth="yes"/>
			<point x="516" y="757"/>
			<point x="507" y="777"/>
		</contour>
	</outline>
</glyph>
<glyph name="quotesingle" format="2">
	<advance width="196"/>
	<unicode hex="0027"/>
	<outline>
		<contour>
			<point x="229" y="856" type="curve" smooth="yes"/>
			<point x="152" y="675" type="line"/>
			<point x="163" y="675" type="line"/>
			<point x="263" y="844" type="line" smooth="yes"/>
			<point x="266" y="850"/>
			<point x="268" y="856"/>
			<point x="268" y="860" type="curve" smooth="yes"/>
			<point x="268" y="870"/>
			<point x="261" y="875"/>
			<point x="254" y="875" type="curve" smooth="yes"/>
			<point x="245" y="875"/>
			<point x="235" y="869"/>
		</contour>
	</outline>
</glyph>
<glyph name="parenleft" format="2">
	<advance width="465"/>
	<unicode hex="0028"/>
	<outline>
		<contour>
			<point x="722" y="885" type="curve"/>
			<point x="716" y="896" type="line"/>
			<point x="503" y="825"/>
			<point x="289" y="622"/>
			<point x="178" y="378" type="curve" smooth="yes"/>
			<point x="124" y="255"/>
			<point x="94" y="121"/>
			<point x="94" y="-14" type="curve" smooth="yes"/>
			<point x="94" y="-126"/>
			<point x="116" y="-237"/>
			<point x="161" y="-342" type="curve"/>
			<point x="172" y="-336" type="line"/>
			<point x="132" y="-236"/>
			<point x="114" y="-135"/>
			<point x="114" y="-37" type="curve" smooth="yes"/>
			<point x="114" y="104"/>
			<point x="151" y="247"/>
			<point x="207" y="371" type="curve" smooth="yes"/>
			<point x="316" y="607"/>
			<point x="515" y="816"/>
		</contour>
	</outline>
</glyph>
<glyph name="parenright" format="2">
	<advance width="599"/>
	<unicode hex="0029"/>
	<outline>
		<contour>
			<point x="-224" y="-376" type="curve"/>
			<point x="-218" y="-386" type="line"/>
			<point x="-6" y="-315"/>
			<point x="209" y="-113"/>
			<point x="319" y="132" type="curve" smooth="yes"/>
			<point x="373" y="252"/>
			<point x="402" y="391"/>
			<point x="403" y="523" type="curve" smooth="yes"/>
			<point x="402" y="633"/>
			<point x="382" y="747"/>
			<point x="336" y="851" type="curve"/>
			<point x="325" y="845" type="line"/>
			<point x="366" y="745"/>
			<point x="384" y="645"/>
			<point x="384" y="546" type="curve" smooth="yes"/>
			<point x="384" y="405"/>
			<point x="346" y="262"/>
			<point x="291" y="138" type="curve" smooth="yes"/>
			<point x="181" y="-98"/>
			<point x="-18" y="-306"/>
		</contour>
	</outline>
</glyph>
<glyph name="asterisk" format="2">
	<advance width="387"/>
	<unicode hex="002A"/>
	<outline>
		<contour>
			<point x="191" y="475" type="curve" smooth="yes"/>
			<point x="273" y="561" type="line"/>
			<point x="314" y="476" type="line" smooth="yes"/>
			<point x="317" y="471"/>
			<point x="321" y="469"/>
			<point x="326" y="469" type="curve" smooth="yes"/>
			<point x="333" y="469"/>
			<point x="342" y="477"/>
			<point x="342" y="484" type="curve" smooth="yes"/>
			<point x="342" y="486"/>
			<point x="341" y="490"/>
			<point x="339" y="492" type="curve" smooth="yes"/>
			<point x="289" y="563" type="line"/>
			<point x="387" y="555" type="line" smooth="yes"/>
			<point x="398" y="555"/>
			<point x="404" y="564"/>
			<point x="404" y="571" type="curve" smooth="yes"/>
			<point x="404" y="578"/>
			<point x="399" y="585"/>
			<point x="390" y="585" type="curve" smooth="yes"/>
			<point x="296" y="578" type="line"/>
			<point x="382" y="650" type="line" smooth="yes"/>
			<point x="386" y="654"/>
			<point x="388" y="658"/>
			<point x="388" y="662" type="curve" smooth="yes"/>
			<point x="388" y="669"/>
			<point x="382" y="673"/>
			<point x="375" y="674" type="curve"/>
			<point x="370" y="673"/>
			<point x="365" y="672"/>
			<point x="361" y="668" type="curve" smooth="yes"/>
			<point x="278" y="580" type="line"/>
			<point x="236" y="667" type="line" smooth="yes"/>
			<point x="234" y="671"/>
			<point x="230" y="673"/>
			<point x="226" y="673" type="curve" smooth="yes"/>
			<point x="219" y="673"/>
			<point x="209" y="665"/>
			<point x="209" y="657" type="curve" smooth="yes"/>
			<point x="209" y="654"/>
			<point x="210" y="653"/>
			<point x="212" y="651" type="curve" smooth="yes"/>
			<point x="261" y="578" type="line"/>
			<point x="163" y="586" type="line" smooth="yes"/>
			<point x="153" y="586"/>
			<point x="147" y="577"/>
			<point x="147" y="568" type="curve" smooth="yes"/>
			<point x="147" y="562"/>
			<point x="151" y="556"/>
			<point x="160" y="556" type="curve" smooth="yes"/>
			<point x="254" y="563" type="line"/>
			<point x="169" y="493" type="line" smooth="yes"/>
			<point x="165" y="489"/>
			<point x="163" y="484"/>
			<point x="163" y="481" type="curve" smooth="yes"/>
			<point x="163" y="474"/>
			<point x="169" y="469"/>
			<point x="177" y="469" type="curve" smooth="yes"/>
			<point x="182" y="469"/>
			<point x="187" y="471"/>
		</contour>
	</outline>
</glyph>
<glyph name="comma" format="2">
	<advance width="212"/>
	<unicode hex="002C"/>
	<outline>
		<contour>
			<point x="42" y="47" type="curve" smooth="yes"/>
			<point x="25" y="47"/>
			<point x="9" y="33"/>
			<point x="9" y="17" type="curve" smooth="yes"/>
			<point x="9" y="5"/>
			<point x="16" y="-3"/>
			<point x="26" y="-3" type="curve" smooth="yes"/>
			<point x="29" y="-3"/>
			<point x="31" y="-3"/>
			<point x="34" y="-2" type="curve"/>
			<point x="34" y="-4"/>
			<point x="33" y="-6"/>
			<point x="32" y="-8" type="curve" smooth="yes"/>
			<point x="21" y="-33"/>
			<point x="-37" y="-94"/>
			<point x="-55" y="-107" type="curve"/>
			<point x="-57" y="-114"/>
			<point x="-55" y="-117"/>
			<point x="-49" y="-118" type="curve"/>
			<point x="-9" y="-88"/>
			<point x="61" y="-9"/>
			<point x="61" y="23" type="curve" smooth="yes"/>
			<point x="61" y="39"/>
			<point x="52" y="47"/>
		</contour>
	</outline>
</glyph>
<glyph name="slash" format="2">
	<advance width="416"/>
	<unicode hex="002F"/>
	<guideline y="339"/>
	<outline>
		<contour>
			<point x="10" y="-120" type="curve"/>
			<point x="31" y="-120" type="line"/>
			<point x="31" y="-120"/>
			<point x="145" y="114"/>
			<point x="259" y="335" type="curve" smooth="yes"/>
			<point x="371" y="554"/>
			<point x="480" y="771"/>
			<point x="480" y="771" type="curve"/>
			<point x="464" y="774" type="line"/>
			<point x="464" y="774"/>
			<point x="359" y="560"/>
			<point x="247" y="341" type="curve" smooth="yes"/>
			<point x="133" y="117"/>
			<point x="10" y="-120"/>
		</contour>
	</outline>
</glyph>
<glyph name="zero" format="2">
	<advance width="532"/>
	<unicode hex="0030"/>
	<outline>
		<contour>
			<point x="47" y="329" type="curve" smooth="yes"/>
			<point x="25" y="274"/>
			<point x="10" y="212"/>
			<point x="10" y="152" type="curve" smooth="yes"/>
			<point x="10" y="47"/>
			<point x="61" y="-27"/>
			<point x="158" y="-27" type="curve" smooth="yes"/>
			<point x="288" y="-27"/>
			<point x="470" y="132"/>
			<point x="548" y="316" type="curve" smooth="yes"/>
			<point x="570" y="369"/>
			<point x="586" y="434"/>
			<point x="586" y="493" type="curve" smooth="yes"/>
			<point x="586" y="600"/>
			<point x="528" y="672"/>
			<point x="436" y="672" type="curve" smooth="yes"/>
			<point x="301" y="672"/>
			<point x="126" y="519"/>
		</contour>
		<contour>
			<point x="435" y="660" type="curve" smooth="yes"/>
			<point x="516" y="660"/>
			<point x="561" y="595"/>
			<point x="561" y="498" type="curve" smooth="yes"/>
			<point x="561" y="441"/>
			<point x="545" y="380"/>
			<point x="523" y="326" type="curve" smooth="yes"/>
			<point x="447" y="140"/>
			<point x="284" y="-14"/>
			<point x="160" y="-14" type="curve" smooth="yes"/>
			<point x="78" y="-14"/>
			<point x="34" y="51"/>
			<point x="34" y="148" type="curve" smooth="yes"/>
			<point x="34" y="207"/>
			<point x="49" y="267"/>
			<point x="71" y="321" type="curve" smooth="yes"/>
			<point x="147" y="507"/>
			<point x="311" y="660"/>
		</contour>
	</outline>
</glyph>
<glyph name="one" format="2">
	<advance width="302"/>
	<unicode hex="0031"/>
	<outline>
		<contour>
			<point x="105" y="228" type="curve"/>
			<point x="93" y="243"/>
			<point x="92" y="256"/>
			<point x="92" y="266" type="curve" smooth="yes"/>
			<point x="92" y="394"/>
			<point x="222" y="489"/>
			<point x="318" y="554" type="curve"/>
			<point x="227" y="420"/>
			<point x="117" y="204"/>
			<point x="41" y="1" type="curve"/>
			<point x="67" y="1" type="line"/>
			<point x="147" y="215"/>
			<point x="260" y="443"/>
			<point x="346" y="571" type="curve"/>
			<point x="381" y="593" type="line" smooth="yes"/>
			<point x="410" y="611"/>
			<point x="443" y="634"/>
			<point x="461" y="648" type="curve" smooth="yes"/>
			<point x="470" y="655"/>
			<point x="475" y="664"/>
			<point x="475" y="671" type="curve" smooth="yes"/>
			<point x="475" y="681"/>
			<point x="467" y="688"/>
			<point x="454" y="688" type="curve" smooth="yes"/>
			<point x="427" y="688"/>
			<point x="384" y="646"/>
			<point x="336" y="579" type="curve"/>
			<point x="234" y="515"/>
			<point x="78" y="420"/>
			<point x="78" y="279" type="curve" smooth="yes"/>
			<point x="78" y="263"/>
			<point x="80" y="239"/>
			<point x="97" y="222" type="curve"/>
			<point x="102" y="220"/>
			<point x="104" y="222"/>
		</contour>
		<contour>
			<point x="447" y="671" type="curve" smooth="yes"/>
			<point x="452" y="671"/>
			<point x="455" y="669"/>
			<point x="455" y="666" type="curve" smooth="yes"/>
			<point x="455" y="662"/>
			<point x="452" y="657"/>
			<point x="446" y="653" type="curve"/>
			<point x="430" y="639"/>
			<point x="403" y="622"/>
			<point x="375" y="603" type="curve"/>
			<point x="364" y="596" type="line"/>
			<point x="397" y="643"/>
			<point x="427" y="671"/>
		</contour>
	</outline>
</glyph>
<glyph name="two" format="2">
	<advance width="524"/>
	<unicode hex="0032"/>
	<outline>
		<contour>
			<point x="-31" y="-2" type="curve"/>
			<point x="-7" y="-2" type="line"/>
			<point x="-2" y="11"/>
			<point x="12" y="33"/>
			<point x="19" y="40" type="curve" smooth="yes"/>
			<point x="68" y="89"/>
			<point x="143" y="142"/>
			<point x="222" y="198" type="curve" smooth="yes"/>
			<point x="383" y="312"/>
			<point x="558" y="436"/>
			<point x="558" y="560" type="curve" smooth="yes"/>
			<point x="558" y="642"/>
			<point x="493" y="684"/>
			<point x="420" y="684" type="curve" smooth="yes"/>
			<point x="302" y="684"/>
			<point x="162" y="566"/>
			<point x="162" y="432" type="curve" smooth="yes"/>
			<point x="162" y="408"/>
			<point x="176" y="366"/>
			<point x="206" y="364" type="curve"/>
			<point x="215" y="367"/>
			<point x="217" y="370"/>
			<point x="212" y="375" type="curve"/>
			<point x="184" y="379"/>
			<point x="179" y="406"/>
			<point x="179" y="426" type="curve" smooth="yes"/>
			<point x="179" y="553"/>
			<point x="308" y="672"/>
			<point x="420" y="672" type="curve" smooth="yes"/>
			<point x="483" y="672"/>
			<point x="539" y="643"/>
			<point x="539" y="570" type="curve" smooth="yes"/>
			<point x="539" y="462"/>
			<point x="378" y="342"/>
			<point x="226" y="228" type="curve" smooth="yes"/>
			<point x="152" y="172"/>
			<point x="64" y="111"/>
			<point x="3" y="40" type="curve"/>
			<point x="-9" y="28"/>
			<point x="-20" y="16"/>
		</contour>
		<contour>
			<point x="16" y="51" type="curve"/>
			<point x="4" y="40" type="line"/>
			<point x="85" y="40"/>
			<point x="140" y="-25"/>
			<point x="243" y="-25" type="curve" smooth="yes"/>
			<point x="327" y="-25"/>
			<point x="437" y="14"/>
			<point x="437" y="114" type="curve" smooth="yes"/>
			<point x="437" y="117"/>
			<point x="437" y="123"/>
			<point x="437" y="126" type="curve"/>
			<point x="433" y="132"/>
			<point x="428" y="133"/>
			<point x="424" y="129" type="curve"/>
			<point x="425" y="122"/>
			<point x="426" y="116"/>
			<point x="426" y="113" type="curve" smooth="yes"/>
			<point x="426" y="34"/>
			<point x="335" y="-7"/>
			<point x="268" y="-7" type="curve" smooth="yes"/>
			<point x="180" y="-7"/>
			<point x="103" y="51"/>
		</contour>
	</outline>
</glyph>
<glyph name="three" format="2">
	<advance width="407"/>
	<unicode hex="0033"/>
	<outline>
		<contour>
			<point x="190" y="329" type="curve" smooth="yes"/>
			<point x="213" y="329"/>
			<point x="233" y="324"/>
			<point x="252" y="315" type="curve"/>
			<point x="234" y="309"/>
			<point x="211" y="306"/>
			<point x="194" y="306" type="curve" smooth="yes"/>
			<point x="167" y="306"/>
			<point x="155" y="312"/>
			<point x="155" y="319" type="curve" smooth="yes"/>
			<point x="155" y="324"/>
			<point x="171" y="329"/>
		</contour>
		<contour>
			<point x="-21" y="-181" type="curve" smooth="yes"/>
			<point x="-96" y="-181"/>
			<point x="-158" y="-157"/>
			<point x="-158" y="-102" type="curve" smooth="yes"/>
			<point x="-158" y="-95"/>
			<point x="-155" y="-87"/>
			<point x="-143" y="-75" type="curve"/>
			<point x="-145" y="-68"/>
			<point x="-149" y="-66"/>
			<point x="-155" y="-69" type="curve"/>
			<point x="-171" y="-89"/>
			<point x="-174" y="-96"/>
			<point x="-174" y="-114" type="curve" smooth="yes"/>
			<point x="-174" y="-157"/>
			<point x="-98" y="-195"/>
			<point x="-18" y="-195" type="curve" smooth="yes"/>
			<point x="157" y="-195"/>
			<point x="362" y="-30"/>
			<point x="362" y="139" type="curve" smooth="yes"/>
			<point x="362" y="212"/>
			<point x="329" y="276"/>
			<point x="282" y="311" type="curve"/>
			<point x="374" y="349"/>
			<point x="483" y="460"/>
			<point x="483" y="566" type="curve" smooth="yes"/>
			<point x="483" y="646"/>
			<point x="421" y="684"/>
			<point x="346" y="684" type="curve" smooth="yes"/>
			<point x="246" y="684"/>
			<point x="108" y="583"/>
			<point x="108" y="476" type="curve" smooth="yes"/>
			<point x="108" y="452"/>
			<point x="121" y="418"/>
			<point x="147" y="416" type="curve"/>
			<point x="156" y="419"/>
			<point x="158" y="422"/>
			<point x="153" y="427" type="curve"/>
			<point x="129" y="431"/>
			<point x="125" y="451"/>
			<point x="125" y="471" type="curve" smooth="yes"/>
			<point x="125" y="574"/>
			<point x="248" y="672"/>
			<point x="346" y="672" type="curve" smooth="yes"/>
			<point x="409" y="672"/>
			<point x="459" y="641"/>
			<point x="459" y="571" type="curve" smooth="yes"/>
			<point x="459" y="470"/>
			<point x="357" y="356"/>
			<point x="268" y="320" type="curve"/>
			<point x="243" y="334"/>
			<point x="216" y="342"/>
			<point x="186" y="342" type="curve" smooth="yes"/>
			<point x="154" y="342"/>
			<point x="133" y="329"/>
			<point x="133" y="318" type="curve" smooth="yes"/>
			<point x="133" y="306"/>
			<point x="157" y="294"/>
			<point x="194" y="294" type="curve" smooth="yes"/>
			<point x="216" y="294"/>
			<point x="246" y="299"/>
			<point x="268" y="307" type="curve"/>
			<point x="309" y="277"/>
			<point x="337" y="220"/>
			<point x="337" y="152" type="curve" smooth="yes"/>
			<point x="337" y="7"/>
			<point x="173" y="-181"/>
		</contour>
	</outline>
</glyph>
<glyph name="four" format="2">
	<advance width="502"/>
	<unicode hex="0034"/>
	<outline>
		<contour>
			<point x="309" y="847" type="curve"/>
			<point x="306" y="834" type="line"/>
			<point x="359" y="822"/>
			<point x="371" y="756"/>
			<point x="371" y="713" type="curve" smooth="yes"/>
			<point x="371" y="495"/>
			<point x="133" y="187"/>
			<point x="-30" y="47" type="curve"/>
			<point x="-55" y="44"/>
			<point x="-70" y="27"/>
			<point x="-70" y="15" type="curve" smooth="yes"/>
			<point x="-70" y="11"/>
			<point x="-69" y="7"/>
			<point x="-67" y="2" type="curve"/>
			<point x="-48" y="1" type="line"/>
			<point x="-45" y="13"/>
			<point x="-40" y="22"/>
			<point x="-30" y="30" type="curve"/>
			<point x="-26" y="32"/>
			<point x="-20" y="33"/>
			<point x="-13" y="33" type="curve" smooth="yes"/>
			<point x="69" y="33"/>
			<point x="143" y="-12"/>
			<point x="224" y="-20" type="curve"/>
			<point x="203" y="-72"/>
			<point x="183" y="-124"/>
			<point x="165" y="-172" type="curve"/>
			<point x="192" y="-172" type="line"/>
			<point x="210" y="-125"/>
			<point x="229" y="-73"/>
			<point x="250" y="-21" type="curve"/>
			<point x="255" y="-22"/>
			<point x="261" y="-22"/>
			<point x="267" y="-22" type="curve" smooth="yes"/>
			<point x="314" y="-22"/>
			<point x="366" y="-12"/>
			<point x="404" y="14" type="curve" smooth="yes"/>
			<point x="447" y="44"/>
			<point x="458" y="79"/>
			<point x="458" y="130" type="curve"/>
			<point x="454" y="134"/>
			<point x="450" y="134"/>
			<point x="446" y="130" type="curve"/>
			<point x="446" y="85"/>
			<point x="424" y="50"/>
			<point x="391" y="27" type="curve" smooth="yes"/>
			<point x="356" y="2"/>
			<point x="310" y="-10"/>
			<point x="267" y="-10" type="curve" smooth="yes"/>
			<point x="263" y="-10"/>
			<point x="258" y="-9"/>
			<point x="254" y="-9" type="curve"/>
			<point x="356" y="246"/>
			<point x="483" y="531"/>
			<point x="565" y="615" type="curve"/>
			<point x="554" y="619" type="line"/>
			<point x="468" y="529"/>
			<point x="332" y="245"/>
			<point x="228" y="-8" type="curve"/>
			<point x="145" y="-1"/>
			<point x="72" y="44"/>
			<point x="-11" y="47" type="curve"/>
			<point x="152" y="187"/>
			<point x="390" y="483"/>
			<point x="390" y="699" type="curve" smooth="yes"/>
			<point x="390" y="750"/>
			<point x="368" y="833"/>
		</contour>
	</outline>
</glyph>
<glyph name="five" format="2">
	<advance width="394"/>
	<unicode hex="0035"/>
	<outline>
		<contour>
			<point x="256" y="654" type="curve" smooth="yes"/>
			<point x="247" y="650"/>
			<point x="244" y="652"/>
			<point x="245" y="662" type="curve" smooth="yes"/>
			<point x="246" y="672"/>
			<point x="247" y="681"/>
			<point x="248" y="691" type="curve"/>
			<point x="236" y="691" type="line"/>
			<point x="231" y="610"/>
			<point x="186" y="469"/>
			<point x="134" y="411" type="curve" smooth="yes"/>
			<point x="128" y="404"/>
			<point x="121" y="396"/>
			<point x="120" y="392" type="curve"/>
			<point x="120" y="385" type="line"/>
			<point x="134" y="389" type="line"/>
			<point x="139" y="395"/>
			<point x="164" y="405"/>
			<point x="191" y="405" type="curve" smooth="yes"/>
			<point x="292" y="405"/>
			<point x="345" y="316"/>
			<point x="345" y="218" type="curve" smooth="yes"/>
			<point x="345" y="34"/>
			<point x="171" y="-181"/>
			<point x="-21" y="-181" type="curve" smooth="yes"/>
			<point x="-96" y="-181"/>
			<point x="-158" y="-157"/>
			<point x="-158" y="-102" type="curve" smooth="yes"/>
			<point x="-158" y="-95"/>
			<point x="-155" y="-87"/>
			<point x="-143" y="-75" type="curve"/>
			<point x="-145" y="-70"/>
			<point x="-149" y="-68"/>
			<point x="-155" y="-69" type="curve"/>
			<point x="-171" y="-89"/>
			<point x="-174" y="-96"/>
			<point x="-174" y="-114" type="curve" smooth="yes"/>
			<point x="-174" y="-157"/>
			<point x="-98" y="-195"/>
			<point x="-18" y="-195" type="curve" smooth="yes"/>
			<point x="176" y="-195"/>
			<point x="369" y="9"/>
			<point x="369" y="201" type="curve" smooth="yes"/>
			<point x="369" y="314"/>
			<point x="304" y="419"/>
			<point x="188" y="419" type="curve" smooth="yes"/>
			<point x="178" y="419"/>
			<point x="167" y="418"/>
			<point x="157" y="418" type="curve"/>
			<point x="194" y="467"/>
			<point x="224" y="556"/>
			<point x="239" y="625" type="curve"/>
			<point x="245" y="635"/>
			<point x="260" y="644"/>
			<point x="274" y="644" type="curve" smooth="yes"/>
			<point x="309" y="644"/>
			<point x="345" y="618"/>
			<point x="383" y="618" type="curve" smooth="yes"/>
			<point x="407" y="618"/>
			<point x="451" y="627"/>
			<point x="462" y="664" type="curve"/>
			<point x="454" y="672" type="line"/>
			<point x="441" y="643"/>
			<point x="420" y="639"/>
			<point x="398" y="639" type="curve" smooth="yes"/>
			<point x="362" y="639"/>
			<point x="329" y="663"/>
			<point x="292" y="663" type="curve" smooth="yes"/>
			<point x="279" y="663"/>
			<point x="267" y="659"/>
		</contour>
	</outline>
</glyph>
<glyph name="six" format="2">
	<advance width="518"/>
	<unicode hex="0036"/>
	<outline>
		<contour>
			<point x="735" y="834" type="curve"/>
			<point x="723" y="838"/>
			<point x="710" y="839"/>
			<point x="697" y="839" type="curve" smooth="yes"/>
			<point x="634" y="839"/>
			<point x="535" y="804"/>
			<point x="450" y="750" type="curve" smooth="yes"/>
			<point x="245" y="621"/>
			<point x="28" y="383"/>
			<point x="28" y="148" type="curve" smooth="yes"/>
			<point x="28" y="65"/>
			<point x="54" y="-22"/>
			<point x="176" y="-22" type="curve" smooth="yes"/>
			<point x="327" y="-22"/>
			<point x="506" y="165"/>
			<point x="506" y="322" type="curve" smooth="yes"/>
			<point x="506" y="406"/>
			<point x="455" y="463"/>
			<point x="385" y="463" type="curve" smooth="yes"/>
			<point x="251" y="463"/>
			<point x="141" y="332"/>
			<point x="121" y="206" type="curve"/>
			<point x="124" y="203"/>
			<point x="128" y="203"/>
			<point x="133" y="206" type="curve"/>
			<point x="151" y="324"/>
			<point x="256" y="450"/>
			<point x="381" y="450" type="curve" smooth="yes"/>
			<point x="440" y="450"/>
			<point x="482" y="411"/>
			<point x="482" y="341" type="curve" smooth="yes"/>
			<point x="482" y="179"/>
			<point x="318" y="-9"/>
			<point x="176" y="-9" type="curve" smooth="yes"/>
			<point x="75" y="-9"/>
			<point x="53" y="67"/>
			<point x="53" y="140" type="curve" smooth="yes"/>
			<point x="53" y="376"/>
			<point x="272" y="619"/>
			<point x="455" y="740" type="curve" smooth="yes"/>
			<point x="526" y="787"/>
			<point x="625" y="826"/>
			<point x="697" y="826" type="curve" smooth="yes"/>
			<point x="709" y="826"/>
			<point x="722" y="826"/>
			<point x="735" y="823" type="curve"/>
			<point x="738" y="827"/>
			<point x="738" y="830"/>
		</contour>
	</outline>
</glyph>
<glyph name="seven" format="2">
	<advance width="390"/>
	<unicode hex="0037"/>
	<outline>
		<contour>
			<point x="67" y="-106" type="curve"/>
			<point x="67" y="129"/>
			<point x="355" y="477"/>
			<point x="552" y="613" type="curve" smooth="yes"/>
			<point x="568" y="624"/>
			<point x="581" y="645"/>
			<point x="592" y="661" type="curve"/>
			<point x="568" y="661" type="line"/>
			<point x="564" y="650"/>
			<point x="552" y="625"/>
			<point x="544" y="620" type="curve" smooth="yes"/>
			<point x="335" y="491"/>
			<point x="54" y="156"/>
			<point x="54" y="-94" type="curve"/>
			<point x="56" y="-107"/>
			<point x="61" y="-111"/>
		</contour>
		<contour>
			<point x="540" y="608" type="curve"/>
			<point x="558" y="620" type="line"/>
			<point x="480" y="620"/>
			<point x="428" y="684"/>
			<point x="329" y="684" type="curve" smooth="yes"/>
			<point x="251" y="684"/>
			<point x="151" y="646"/>
			<point x="151" y="546" type="curve" smooth="yes"/>
			<point x="151" y="543"/>
			<point x="151" y="537"/>
			<point x="151" y="534" type="curve"/>
			<point x="154" y="527"/>
			<point x="159" y="526"/>
			<point x="164" y="531" type="curve"/>
			<point x="163" y="538"/>
			<point x="163" y="544"/>
			<point x="163" y="547" type="curve" smooth="yes"/>
			<point x="163" y="626"/>
			<point x="244" y="666"/>
			<point x="305" y="666" type="curve" smooth="yes"/>
			<point x="394" y="666"/>
			<point x="465" y="608"/>
		</contour>
	</outline>
</glyph>
<glyph name="eight" format="2">
	<advance width="440"/>
	<unicode hex="0038"/>
	<outline>
		<contour>
			<point x="337" y="813" type="curve"/>
			<point x="369" y="844"/>
			<point x="404" y="859"/>
			<point x="443" y="859" type="curve" smooth="yes"/>
			<point x="501" y="859"/>
			<point x="535" y="825"/>
			<point x="535" y="763" type="curve" smooth="yes"/>
			<point x="535" y="641"/>
			<point x="374" y="541"/>
			<point x="278" y="480" type="curve" smooth="yes"/>
			<point x="131" y="384"/>
			<point x="-26" y="282"/>
			<point x="-26" y="113" type="curve" smooth="yes"/>
			<point x="-26" y="22"/>
			<point x="37" y="-30"/>
			<point x="128" y="-30" type="curve" smooth="yes"/>
			<point x="275" y="-30"/>
			<point x="404" y="99"/>
			<point x="404" y="242" type="curve" smooth="yes"/>
			<point x="404" y="379"/>
			<point x="323" y="498"/>
			<point x="323" y="635" type="curve" smooth="yes"/>
			<point x="323" y="715"/>
			<point x="358" y="769"/>
			<point x="417" y="782" type="curve"/>
			<point x="423" y="786"/>
			<point x="424" y="791"/>
			<point x="420" y="795" type="curve"/>
			<point x="346" y="779"/>
			<point x="303" y="715"/>
			<point x="303" y="626" type="curve" smooth="yes"/>
			<point x="303" y="489"/>
			<point x="380" y="366"/>
			<point x="380" y="230" type="curve" smooth="yes"/>
			<point x="380" y="98"/>
			<point x="262" y="-17"/>
			<point x="128" y="-17" type="curve" smooth="yes"/>
			<point x="47" y="-17"/>
			<point x="-7" y="26"/>
			<point x="-7" y="108" type="curve" smooth="yes"/>
			<point x="-7" y="273"/>
			<point x="146" y="381"/>
			<point x="295" y="476" type="curve" smooth="yes"/>
			<point x="389" y="536"/>
			<point x="556" y="642"/>
			<point x="556" y="764" type="curve" smooth="yes"/>
			<point x="556" y="832"/>
			<point x="516" y="872"/>
			<point x="446" y="872" type="curve" smooth="yes"/>
			<point x="403" y="872"/>
			<point x="366" y="856"/>
			<point x="333" y="826" type="curve"/>
			<point x="330" y="819"/>
			<point x="332" y="814"/>
		</contour>
	</outline>
</glyph>
<glyph name="nine" format="2">
	<advance width="498"/>
	<unicode hex="0039"/>
	<outline>
		<contour>
			<point x="-144" y="-181" type="curve"/>
			<point x="-132" y="-185"/>
			<point x="-120" y="-186"/>
			<point x="-107" y="-186" type="curve" smooth="yes"/>
			<point x="-43" y="-186"/>
			<point x="55" y="-150"/>
			<point x="140" y="-97" type="curve" smooth="yes"/>
			<point x="345" y="33"/>
			<point x="563" y="271"/>
			<point x="563" y="505" type="curve" smooth="yes"/>
			<point x="563" y="588"/>
			<point x="536" y="675"/>
			<point x="414" y="675" type="curve" smooth="yes"/>
			<point x="263" y="675"/>
			<point x="84" y="488"/>
			<point x="84" y="331" type="curve" smooth="yes"/>
			<point x="84" y="247"/>
			<point x="135" y="191"/>
			<point x="206" y="191" type="curve" smooth="yes"/>
			<point x="339" y="191"/>
			<point x="449" y="321"/>
			<point x="470" y="448" type="curve"/>
			<point x="467" y="454"/>
			<point x="463" y="454"/>
			<point x="458" y="448" type="curve"/>
			<point x="439" y="329"/>
			<point x="334" y="204"/>
			<point x="210" y="204" type="curve" smooth="yes"/>
			<point x="150" y="204"/>
			<point x="108" y="242"/>
			<point x="108" y="312" type="curve" smooth="yes"/>
			<point x="108" y="475"/>
			<point x="272" y="662"/>
			<point x="414" y="662" type="curve" smooth="yes"/>
			<point x="515" y="662"/>
			<point x="537" y="586"/>
			<point x="537" y="513" type="curve" smooth="yes"/>
			<point x="537" y="278"/>
			<point x="318" y="34"/>
			<point x="135" y="-87" type="curve" smooth="yes"/>
			<point x="64" y="-134"/>
			<point x="-35" y="-173"/>
			<point x="-107" y="-173" type="curve" smooth="yes"/>
			<point x="-119" y="-173"/>
			<point x="-131" y="-172"/>
			<point x="-144" y="-169" type="curve"/>
			<point x="-149" y="-172"/>
			<point x="-149" y="-176"/>
		</contour>
	</outline>
</glyph>
<glyph name="colon" format="2">
	<advance width="302"/>
	<unicode hex="003A"/>
	<outline>
		<contour>
			<point x="8" y="24" type="curve" smooth="yes"/>
			<point x="2" y="11"/>
			<point x="14" y="-3"/>
			<point x="27" y="-3" type="curve" smooth="yes"/>
			<point x="41" y="-3"/>
			<point x="54" y="7"/>
			<point x="60" y="22" type="curve" smooth="yes"/>
			<point x="64" y="34"/>
			<point x="58" y="49"/>
			<point x="43" y="49" type="curve" smooth="yes"/>
			<point x="26" y="49"/>
			<point x="13" y="39"/>
		</contour>
		<contour>
			<point x="165" y="419" type="curve" smooth="yes"/>
			<point x="162" y="405"/>
			<point x="171" y="393"/>
			<point x="184" y="393" type="curve" smooth="yes"/>
			<point x="198" y="393"/>
			<point x="213" y="402"/>
			<point x="218" y="417" type="curve" smooth="yes"/>
			<point x="223" y="430"/>
			<point x="215" y="445"/>
			<point x="200" y="445" type="curve" smooth="yes"/>
			<point x="183" y="445"/>
			<point x="169" y="435"/>
		</contour>
	</outline>
</glyph>
<glyph name="semicolon" format="2">
	<advance width="302"/>
	<unicode hex="003B"/>
	<outline>
		<contour>
			<point x="42" y="47" type="curve" smooth="yes"/>
			<point x="25" y="47"/>
			<point x="9" y="33"/>
			<point x="9" y="17" type="curve" smooth="yes"/>
			<point x="9" y="5"/>
			<point x="16" y="-3"/>
			<point x="26" y="-3" type="curve" smooth="yes"/>
			<point x="29" y="-3"/>
			<point x="31" y="-3"/>
			<point x="34" y="-2" type="curve"/>
			<point x="34" y="-4"/>
			<point x="33" y="-6"/>
			<point x="32" y="-8" type="curve" smooth="yes"/>
			<point x="21" y="-33"/>
			<point x="-37" y="-94"/>
			<point x="-55" y="-107" type="curve"/>
			<point x="-57" y="-114"/>
			<point x="-55" y="-117"/>
			<point x="-49" y="-118" type="curve"/>
			<point x="-9" y="-88"/>
			<point x="61" y="-9"/>
			<point x="61" y="23" type="curve" smooth="yes"/>
			<point x="61" y="39"/>
			<point x="52" y="47"/>
		</contour>
		<contour>
			<point x="163" y="412" type="curve" smooth="yes"/>
			<point x="163" y="401"/>
			<point x="170" y="393"/>
			<point x="183" y="393" type="curve" smooth="yes"/>
			<point x="200" y="393"/>
			<point x="218" y="407"/>
			<point x="218" y="425" type="curve" smooth="yes"/>
			<point x="218" y="437"/>
			<point x="210" y="445"/>
			<point x="199" y="445" type="curve" smooth="yes"/>
			<point x="181" y="445"/>
			<point x="163" y="430"/>
		</contour>
	</outline>
</glyph>
<glyph name="equal" format="2">
	<advance width="582"/>
	<unicode hex="003D"/>
	<outline>
		<contour>
			<point x="152" y="373" type="curve"/>
			<point x="152" y="360" type="line"/>
			<point x="152" y="360"/>
			<point x="484" y="360"/>
			<point x="484" y="360" type="curve"/>
			<point x="484" y="373" type="line"/>
			<point x="484" y="373"/>
			<point x="152" y="373"/>
		</contour>
		<contour>
			<point x="105" y="269" type="curve"/>
			<point x="105" y="256" type="line"/>
			<point x="105" y="256"/>
			<point x="437" y="256"/>
			<point x="437" y="256" type="curve"/>
			<point x="437" y="269" type="line"/>
			<point x="437" y="269"/>
			<point x="105" y="269"/>
		</contour>
	</outline>
</glyph>
<glyph name="greater" format="2">
	<advance width="423"/>
	<unicode hex="003E"/>
	<outline>
		<contour>
			<point x="68" y="75" type="line"/>
			<point x="296" y="280" type="line"/>
			<point x="214" y="499" type="line"/>
			<point x="203" y="493" type="line"/>
			<point x="272" y="288" type="line"/>
			<point x="66" y="89" type="line"/>
		</contour>
	</outline>
</glyph>
<glyph name="question" format="2">
	<advance width="506"/>
	<unicode hex="003F"/>
	<outline>
		<contour>
			<point x="64" y="123" type="curve"/>
			<point x="84" y="123" type="line"/>
			<point x="108" y="372"/>
			<point x="553" y="482"/>
			<point x="553" y="715" type="curve" smooth="yes"/>
			<point x="553" y="808"/>
			<point x="477" y="877"/>
			<point x="375" y="877" type="curve" smooth="yes"/>
			<point x="255" y="877"/>
			<point x="149" y="783"/>
			<point x="149" y="676" type="curve" smooth="yes"/>
			<point x="149" y="617"/>
			<point x="181" y="569"/>
			<point x="222" y="569" type="curve" smooth="yes"/>
			<point x="231" y="569"/>
			<point x="239" y="570"/>
			<point x="246" y="573" type="curve"/>
			<point x="250" y="577"/>
			<point x="251" y="582"/>
			<point x="249" y="586" type="curve"/>
			<point x="240" y="582"/>
			<point x="231" y="581"/>
			<point x="225" y="581" type="curve" smooth="yes"/>
			<point x="193" y="581"/>
			<point x="171" y="613"/>
			<point x="171" y="658" type="curve" smooth="yes"/>
			<point x="171" y="769"/>
			<point x="267" y="865"/>
			<point x="377" y="865" type="curve" smooth="yes"/>
			<point x="467" y="865"/>
			<point x="528" y="807"/>
			<point x="528" y="721" type="curve" smooth="yes"/>
			<point x="528" y="482"/>
			<point x="86" y="368"/>
		</contour>
		<contour>
			<point x="8" y="24" type="curve" smooth="yes"/>
			<point x="7" y="22"/>
			<point x="7" y="19"/>
			<point x="7" y="17" type="curve" smooth="yes"/>
			<point x="7" y="6"/>
			<point x="14" y="-3"/>
			<point x="27" y="-3" type="curve" smooth="yes"/>
			<point x="41" y="-3"/>
			<point x="54" y="7"/>
			<point x="60" y="22" type="curve" smooth="yes"/>
			<point x="61" y="25"/>
			<point x="61" y="28"/>
			<point x="61" y="30" type="curve" smooth="yes"/>
			<point x="61" y="42"/>
			<point x="53" y="49"/>
			<point x="43" y="49" type="curve" smooth="yes"/>
			<point x="26" y="49"/>
			<point x="13" y="39"/>
		</contour>
	</outline>
</glyph>
<glyph name="at" format="2">
	<advance width="719"/>
	<unicode hex="0040"/>
	<outline>
		<contour>
			<point x="-16" y="163" type="curve" smooth="yes"/>
			<point x="-16" y="-33"/>
			<point x="78" y="-126"/>
			<point x="251" y="-126" type="curve" smooth="yes"/>
			<point x="406" y="-126"/>
			<point x="604" y="-59"/>
			<point x="730" y="276" type="curve"/>
			<point x="730" y="282"/>
			<point x="726" y="286"/>
			<point x="720" y="282" type="curve"/>
			<point x="596" y="-47"/>
			<point x="403" y="-114"/>
			<point x="251" y="-114" type="curve" smooth="yes"/>
			<point x="87" y="-114"/>
			<point x="-4" y="-23"/>
			<point x="-4" y="163" type="curve" smooth="yes"/>
			<point x="-4" y="385"/>
			<point x="203" y="737"/>
			<point x="463" y="737" type="curve" smooth="yes"/>
			<point x="607" y="737"/>
			<point x="673" y="628"/>
			<point x="673" y="488" type="curve" smooth="yes"/>
			<point x="673" y="368"/>
			<point x="569" y="104"/>
			<point x="435" y="104" type="curve" smooth="yes"/>
			<point x="397" y="104"/>
			<point x="378" y="134"/>
			<point x="378" y="172" type="curve" smooth="yes"/>
			<point x="378" y="217"/>
			<point x="395" y="271"/>
			<point x="413" y="308" type="curve" smooth="yes"/>
			<point x="521" y="533" type="line"/>
			<point x="491" y="533" type="line"/>
			<point x="390" y="312" type="line" smooth="yes"/>
			<point x="339" y="200"/>
			<point x="270" y="111"/>
			<point x="219" y="111" type="curve" smooth="yes"/>
			<point x="197" y="111"/>
			<point x="186" y="133"/>
			<point x="186" y="169" type="curve" smooth="yes"/>
			<point x="186" y="219"/>
			<point x="199" y="271"/>
			<point x="218" y="316" type="curve" smooth="yes"/>
			<point x="268" y="434"/>
			<point x="351" y="530"/>
			<point x="402" y="530" type="curve" smooth="yes"/>
			<point x="425" y="530"/>
			<point x="435" y="517"/>
			<point x="435" y="502" type="curve" smooth="yes"/>
			<point x="435" y="470"/>
			<point x="415" y="433"/>
			<point x="393" y="412" type="curve"/>
			<point x="390" y="408"/>
			<point x="392" y="404"/>
			<point x="397" y="402" type="curve"/>
			<point x="422" y="425"/>
			<point x="449" y="465"/>
			<point x="449" y="501" type="curve" smooth="yes"/>
			<point x="449" y="524"/>
			<point x="435" y="542"/>
			<point x="402" y="542" type="curve" smooth="yes"/>
			<point x="342" y="542"/>
			<point x="247" y="450"/>
			<point x="198" y="328" type="curve" smooth="yes"/>
			<point x="180" y="283"/>
			<point x="163" y="234"/>
			<point x="163" y="185" type="curve" smooth="yes"/>
			<point x="163" y="134"/>
			<point x="186" y="96"/>
			<point x="217" y="96" type="curve" smooth="yes"/>
			<point x="270" y="96"/>
			<point x="343" y="179"/>
			<point x="385" y="271" type="curve"/>
			<point x="379" y="274" type="line"/>
			<point x="368" y="243"/>
			<point x="361" y="209"/>
			<point x="361" y="179" type="curve" smooth="yes"/>
			<point x="361" y="132"/>
			<point x="385" y="92"/>
			<point x="435" y="92" type="curve" smooth="yes"/>
			<point x="575" y="92"/>
			<point x="685" y="364"/>
			<point x="685" y="488" type="curve" smooth="yes"/>
			<point x="685" y="634"/>
			<point x="615" y="748"/>
			<point x="463" y="748" type="curve" smooth="yes"/>
			<point x="240" y="748"/>
			<point x="54" y="497"/>
			<point x="0" y="282" type="curve" smooth="yes"/>
			<point x="-11" y="240"/>
			<point x="-16" y="200"/>
		</contour>
	</outline>
</glyph>
<glyph name="A" format="2">
	<advance width="1025"/>
	<unicode hex="0041"/>
	<anchor x="1142" y="998" name="top"/>
	<outline>
		<contour>
			<point x="887.808" y="339.135" type="curve" smooth="yes"/>
			<point x="730.621" y="0.046" type="line"/>
			<point x="760.279" y="0.046" type="line"/>
			<point x="1066.745" y="664.385" type="line" smooth="yes"/>
			<point x="1096.403" y="727.655"/>
			<point x="1148.799" y="840.356"/>
			<point x="1180.434" y="861.116" type="curve"/>
			<point x="1194.274" y="869.025"/>
			<point x="1204.16" y="881.877"/>
			<point x="1204.16" y="890.774" type="curve" smooth="yes"/>
			<point x="1204.16" y="908.569"/>
			<point x="1186.366" y="941.193"/>
			<point x="1134.958" y="941.193" type="curve" smooth="yes"/>
			<point x="1092.449" y="941.193"/>
			<point x="1023.247" y="916.478"/>
			<point x="959.976" y="857.162" type="curve" smooth="yes"/>
			<point x="869.025" y="769.176"/>
			<point x="787.96" y="642.636"/>
			<point x="704.917" y="510.163" type="curve" smooth="yes"/>
			<point x="665.373" y="446.893"/>
			<point x="621.875" y="379.668"/>
			<point x="578.377" y="315.409" type="curve" smooth="yes"/>
			<point x="473.585" y="167.119"/>
			<point x="314.42" y="-14.783"/>
			<point x="135.484" y="-14.783" type="curve" smooth="yes"/>
			<point x="66.282" y="-14.783"/>
			<point x="-4.897" y="11.909"/>
			<point x="-4.897" y="91.985" type="curve" smooth="yes"/>
			<point x="-4.897" y="128.564"/>
			<point x="13.886" y="159.21"/>
			<point x="43.544" y="174.039" type="curve"/>
			<point x="47.498" y="179.971"/>
			<point x="44.533" y="182.937"/>
			<point x="37.612" y="182.937" type="curve"/>
			<point x="-1.932" y="164.153"/>
			<point x="-24.669" y="131.529"/>
			<point x="-24.669" y="87.042" type="curve" smooth="yes"/>
			<point x="-24.669" y="-8.852"/>
			<point x="77.156" y="-28.624"/>
			<point x="152.29" y="-28.624" type="curve" smooth="yes"/>
			<point x="354.953" y="-28.624"/>
			<point x="481.494" y="134.495"/>
			<point x="593.206" y="307.5" type="curve" smooth="yes"/>
			<point x="626.818" y="358.907"/>
			<point x="658.453" y="410.315"/>
			<point x="689.1" y="459.745" type="curve" smooth="yes"/>
			<point x="784.994" y="613.966"/>
			<point x="871.002" y="752.37"/>
			<point x="973.817" y="847.276" type="curve" smooth="yes"/>
			<point x="1024.235" y="894.729"/>
			<point x="1080.585" y="920.432"/>
			<point x="1127.05" y="920.432" type="curve" smooth="yes"/>
			<point x="1165.605" y="920.432"/>
			<point x="1192.297" y="903.626"/>
			<point x="1192.297" y="890.774" type="curve" smooth="yes"/>
			<point x="1192.297" y="884.843"/>
			<point x="1186.366" y="877.922"/>
			<point x="1174.502" y="871.991" type="curve"/>
			<point x="1138.913" y="851.23"/>
			<point x="1068.722" y="731.61"/>
			<point x="1039.064" y="668.339" type="curve" smooth="yes"/>
			<point x="901.649" y="367.805" type="line" smooth="yes"/>
			<point x="899.672" y="363.85"/>
			<point x="893.74" y="359.896"/>
			<point x="888.797" y="359.896" type="curve" smooth="yes"/>
			<point x="505.22" y="359.896" type="line"/>
			<point x="505.22" y="347.044" type="line"/>
			<point x="885.831" y="347.044" type="line" smooth="yes"/>
			<point x="891.763" y="347.044"/>
			<point x="889.786" y="343.09"/>
		</contour>
		<contour>
			<point x="858.15" y="925.375" type="curve"/>
			<point x="832.447" y="859.139"/>
			<point x="787.96" y="829.481"/>
			<point x="711.838" y="829.481" type="curve" smooth="yes"/>
			<point x="612.978" y="829.481"/>
			<point x="520.049" y="873.968"/>
			<point x="417.235" y="873.968" type="curve" smooth="yes"/>
			<point x="192.823" y="873.968"/>
			<point x="1.034" y="695.031"/>
			<point x="1.034" y="486.437" type="curve" smooth="yes"/>
			<point x="1.034" y="348.033"/>
			<point x="97.917" y="244.23"/>
			<point x="227.424" y="244.23" type="curve" smooth="yes"/>
			<point x="378.679" y="244.23"/>
			<point x="521.038" y="382.634"/>
			<point x="521.038" y="528.947" type="curve" smooth="yes"/>
			<point x="521.038" y="622.864"/>
			<point x="461.722" y="688.111"/>
			<point x="376.702" y="688.111" type="curve" smooth="yes"/>
			<point x="277.842" y="688.111"/>
			<point x="182.937" y="600.126"/>
			<point x="182.937" y="509.175" type="curve" smooth="yes"/>
			<point x="182.937" y="487.425"/>
			<point x="187.88" y="467.653"/>
			<point x="206.663" y="447.881" type="curve"/>
			<point x="212.595" y="445.904"/>
			<point x="216.549" y="446.893"/>
			<point x="218.526" y="452.824" type="curve"/>
			<point x="205.674" y="469.631"/>
			<point x="201.72" y="488.414"/>
			<point x="201.72" y="507.197" type="curve" smooth="yes"/>
			<point x="201.72" y="594.194"/>
			<point x="283.774" y="674.271"/>
			<point x="373.736" y="674.271" type="curve" smooth="yes"/>
			<point x="448.87" y="674.271"/>
			<point x="496.323" y="618.909"/>
			<point x="496.323" y="531.912" type="curve" smooth="yes"/>
			<point x="496.323" y="386.588"/>
			<point x="368.793" y="257.082"/>
			<point x="227.424" y="257.082" type="curve" smooth="yes"/>
			<point x="108.792" y="257.082"/>
			<point x="23.772" y="345.067"/>
			<point x="23.772" y="469.631" type="curve" smooth="yes"/>
			<point x="23.772" y="677.237"/>
			<point x="211.606" y="859.139"/>
			<point x="426.132" y="859.139" type="curve" smooth="yes"/>
			<point x="522.026" y="859.139"/>
			<point x="611" y="816.629"/>
			<point x="705.906" y="816.629" type="curve" smooth="yes"/>
			<point x="788.948" y="816.629"/>
			<point x="840.356" y="847.276"/>
			<point x="871.991" y="913.512" type="curve"/>
			<point x="871.002" y="923.398"/>
			<point x="867.048" y="927.352"/>
		</contour>
	</outline>
</glyph>
<glyph name="B" format="2">
	<advance width="865"/>
	<unicode hex="0042"/>
	<outline>
		<contour>
			<point x="627" y="933" type="curve" smooth="yes"/>
			<point x="363" y="933"/>
			<point x="43" y="679"/>
			<point x="43" y="393" type="curve" smooth="yes"/>
			<point x="43" y="266"/>
			<point x="109" y="126"/>
			<point x="275" y="126" type="curve" smooth="yes"/>
			<point x="435" y="126"/>
			<point x="597" y="266"/>
			<point x="597" y="432" type="curve" smooth="yes"/>
			<point x="597" y="529"/>
			<point x="533" y="604"/>
			<point x="437" y="604" type="curve" smooth="yes"/>
			<point x="325" y="604"/>
			<point x="219" y="511"/>
			<point x="219" y="412" type="curve" smooth="yes"/>
			<point x="219" y="378"/>
			<point x="231" y="339"/>
			<point x="269" y="324" type="curve"/>
			<point x="278" y="323"/>
			<point x="284" y="326"/>
			<point x="287" y="331" type="curve"/>
			<point x="251" y="340"/>
			<point x="238" y="372"/>
			<point x="238" y="399" type="curve" smooth="yes"/>
			<point x="238" y="503"/>
			<point x="329" y="591"/>
			<point x="437" y="591" type="curve" smooth="yes"/>
			<point x="528" y="591"/>
			<point x="575" y="524"/>
			<point x="575" y="435" type="curve" smooth="yes"/>
			<point x="575" y="277"/>
			<point x="433" y="138"/>
			<point x="276" y="138" type="curve" smooth="yes"/>
			<point x="120" y="138"/>
			<point x="62" y="263"/>
			<point x="62" y="376" type="curve" smooth="yes"/>
			<point x="62" y="655"/>
			<point x="379" y="919"/>
			<point x="633" y="919" type="curve" smooth="yes"/>
			<point x="778" y="919"/>
			<point x="882" y="833"/>
			<point x="882" y="716" type="curve" smooth="yes"/>
			<point x="882" y="593"/>
			<point x="774" y="463"/>
			<point x="647" y="463" type="curve"/>
			<point x="640" y="453" type="line"/>
			<point x="640" y="453"/>
			<point x="652" y="448"/>
			<point x="658" y="446" type="curve" smooth="yes"/>
			<point x="689" y="437"/>
			<point x="759" y="401"/>
			<point x="759" y="305" type="curve" smooth="yes"/>
			<point x="759" y="132"/>
			<point x="566" y="-37"/>
			<point x="368" y="-37" type="curve" smooth="yes"/>
			<point x="199" y="-37"/>
			<point x="111" y="85"/>
			<point x="-25" y="85" type="curve" smooth="yes"/>
			<point x="-62" y="85"/>
			<point x="-82" y="67"/>
			<point x="-82" y="51" type="curve" smooth="yes"/>
			<point x="-82" y="5"/>
			<point x="31" y="3"/>
			<point x="55" y="3" type="curve" smooth="yes"/>
			<point x="326" y="3"/>
			<point x="449" y="268"/>
			<point x="552" y="508" type="curve" smooth="yes"/>
			<point x="635" y="706"/>
			<point x="776" y="959"/>
			<point x="935" y="959" type="curve"/>
			<point x="935" y="976" type="line"/>
			<point x="783" y="976"/>
			<point x="612" y="715"/>
			<point x="521" y="512" type="curve" smooth="yes"/>
			<point x="418" y="282"/>
			<point x="312" y="16"/>
			<point x="55" y="16" type="curve" smooth="yes"/>
			<point x="35" y="16"/>
			<point x="-54" y="17"/>
			<point x="-54" y="50" type="curve" smooth="yes"/>
			<point x="-54" y="60"/>
			<point x="-42" y="72"/>
			<point x="-18" y="72" type="curve" smooth="yes"/>
			<point x="81" y="72"/>
			<point x="197" y="-48"/>
			<point x="372" y="-48" type="curve" smooth="yes"/>
			<point x="586" y="-48"/>
			<point x="783" y="115"/>
			<point x="783" y="293" type="curve" smooth="yes"/>
			<point x="783" y="384"/>
			<point x="726" y="428"/>
			<point x="686" y="449" type="curve" smooth="yes"/>
			<point x="682" y="451"/>
			<point x="680" y="452"/>
			<point x="679" y="452" type="curve"/>
			<point x="680" y="452"/>
			<point x="682" y="452"/>
			<point x="686" y="453" type="curve" smooth="yes"/>
			<point x="806" y="474"/>
			<point x="907" y="590"/>
			<point x="907" y="711" type="curve" smooth="yes"/>
			<point x="907" y="837"/>
			<point x="788" y="933"/>
		</contour>
	</outline>
</glyph>
<glyph name="D" format="2">
	<advance width="1106"/>
	<unicode hex="0044"/>
	<anchor x="936" y="998" name="top"/>
	<outline>
		<contour>
			<point x="680.362" y="954.045" type="curve" smooth="yes"/>
			<point x="338.306" y="954.045"/>
			<point x="14.046" y="687.123"/>
			<point x="14.046" y="401.417" type="curve" smooth="yes"/>
			<point x="14.046" y="284.762"/>
			<point x="75.339" y="156.244"/>
			<point x="227.583" y="156.244" type="curve" smooth="yes"/>
			<point x="374.885" y="156.244"/>
			<point x="523.175" y="284.762"/>
			<point x="523.175" y="437.995" type="curve" smooth="yes"/>
			<point x="523.175" y="526.969"/>
			<point x="464.847" y="596.171"/>
			<point x="375.873" y="596.171" type="curve" smooth="yes"/>
			<point x="274.047" y="596.171"/>
			<point x="176.176" y="510.163"/>
			<point x="176.176" y="419.212" type="curve" smooth="yes"/>
			<point x="176.176" y="387.577"/>
			<point x="187.051" y="351.987"/>
			<point x="221.652" y="338.147" type="curve"/>
			<point x="228.572" y="336.17"/>
			<point x="232.526" y="340.124"/>
			<point x="231.538" y="347.044" type="curve"/>
			<point x="203.857" y="355.942"/>
			<point x="193.971" y="383.622"/>
			<point x="193.971" y="407.349" type="curve" smooth="yes"/>
			<point x="193.971" y="503.243"/>
			<point x="278.002" y="583.32"/>
			<point x="375.873" y="583.32" type="curve" smooth="yes"/>
			<point x="459.904" y="583.32"/>
			<point x="502.414" y="522.026"/>
			<point x="502.414" y="439.973" type="curve" smooth="yes"/>
			<point x="502.414" y="295.637"/>
			<point x="372.907" y="169.096"/>
			<point x="228.572" y="169.096" type="curve" smooth="yes"/>
			<point x="88.191" y="169.096"/>
			<point x="35.795" y="281.797"/>
			<point x="35.795" y="383.622" type="curve" smooth="yes"/>
			<point x="35.795" y="662.408"/>
			<point x="323.477" y="939.216"/>
			<point x="682.339" y="939.216" type="curve" smooth="yes"/>
			<point x="894.888" y="939.216"/>
			<point x="1055.041" y="793.891"/>
			<point x="1055.041" y="578.377" type="curve" smooth="yes"/>
			<point x="1055.041" y="287.728"/>
			<point x="798.005" y="-36.533"/>
			<point x="512.3" y="-36.533" type="curve" smooth="yes"/>
			<point x="334.352" y="-36.533"/>
			<point x="240.435" y="79.134"/>
			<point x="108.951" y="79.134" type="curve" smooth="yes"/>
			<point x="67.43" y="79.134"/>
			<point x="38.761" y="66.282"/>
			<point x="38.761" y="49.476" type="curve" smooth="yes"/>
			<point x="38.761" y="24.761"/>
			<point x="103.02" y="3.011"/>
			<point x="176.176" y="3.011" type="curve" smooth="yes"/>
			<point x="476.71" y="3.011"/>
			<point x="573.593" y="202.709"/>
			<point x="692.225" y="509.175" type="curve" smooth="yes"/>
			<point x="767.359" y="704.917"/>
			<point x="898.843" y="958.988"/>
			<point x="1058.007" y="958.988" type="curve"/>
			<point x="1058.007" y="975.794" type="line"/>
			<point x="905.763" y="975.794"/>
			<point x="743.632" y="714.803"/>
			<point x="661.579" y="512.14" type="curve" smooth="yes"/>
			<point x="543.935" y="216.549"/>
			<point x="461.881" y="15.863"/>
			<point x="176.176" y="15.863" type="curve" smooth="yes"/>
			<point x="114.883" y="15.863"/>
			<point x="66.441" y="30.692"/>
			<point x="66.441" y="49.476" type="curve" smooth="yes"/>
			<point x="66.441" y="59.362"/>
			<point x="85.225" y="66.282"/>
			<point x="114.883" y="66.282" type="curve" smooth="yes"/>
			<point x="226.595" y="66.282"/>
			<point x="329.409" y="-48.396"/>
			<point x="516.254" y="-48.396" type="curve" smooth="yes"/>
			<point x="815.8" y="-48.396"/>
			<point x="1079.756" y="273.888"/>
			<point x="1079.756" y="564.536" type="curve" smooth="yes"/>
			<point x="1079.756" y="793.891"/>
			<point x="905.763" y="954.045"/>
		</contour>
	</outline>
</glyph>
<glyph name="E" format="2">
	<advance width="673"/>
	<unicode hex="0045"/>
	<anchor x="630" y="998" name="top"/>
	<outline>
		<contour>
			<point x="597.16" y="909.558" type="curve" smooth="yes"/>
			<point x="697.009" y="909.558"/>
			<point x="773.131" y="846.287"/>
			<point x="773.131" y="764.233" type="curve" smooth="yes"/>
			<point x="773.131" y="710.849"/>
			<point x="743.473" y="662.408"/>
			<point x="706.895" y="653.51" type="curve"/>
			<point x="703.929" y="647.579"/>
			<point x="704.917" y="642.636"/>
			<point x="711.838" y="640.658" type="curve"/>
			<point x="757.313" y="652.522"/>
			<point x="794.88" y="706.895"/>
			<point x="794.88" y="762.256" type="curve" smooth="yes"/>
			<point x="794.88" y="848.264"/>
			<point x="700.963" y="922.409"/>
			<point x="591.228" y="922.409" type="curve" smooth="yes"/>
			<point x="407.349" y="922.409"/>
			<point x="319.363" y="790.926"/>
			<point x="319.363" y="668.339" type="curve" smooth="yes"/>
			<point x="319.363" y="563.548"/>
			<point x="387.577" y="464.688"/>
			<point x="523.015" y="464.688" type="curve" smooth="yes"/>
			<point x="556.627" y="464.688"/>
			<point x="583.32" y="479.517"/>
			<point x="583.32" y="499.289" type="curve" smooth="yes"/>
			<point x="583.32" y="533.89"/>
			<point x="511.152" y="563.548"/>
			<point x="428.109" y="563.548" type="curve" smooth="yes"/>
			<point x="183.925" y="563.548"/>
			<point x="-21.704" y="382.634"/>
			<point x="-21.704" y="169.096" type="curve" smooth="yes"/>
			<point x="-21.704" y="11.909"/>
			<point x="84.077" y="-92.883"/>
			<point x="245.218" y="-92.883" type="curve" smooth="yes"/>
			<point x="434.041" y="-92.883"/>
			<point x="605.069" y="58.373"/>
			<point x="605.069" y="224.458" type="curve" smooth="yes"/>
			<point x="605.069" y="325.295"/>
			<point x="538.833" y="396.474"/>
			<point x="445.904" y="396.474" type="curve" smooth="yes"/>
			<point x="334.192" y="396.474"/>
			<point x="234.344" y="296.626"/>
			<point x="234.344" y="181.948" type="curve" smooth="yes"/>
			<point x="234.344" y="153.279"/>
			<point x="244.23" y="123.621"/>
			<point x="264.002" y="100.883" type="curve"/>
			<point x="271.911" y="96.928"/>
			<point x="275.865" y="97.917"/>
			<point x="277.842" y="105.826" type="curve"/>
			<point x="263.013" y="123.621"/>
			<point x="253.127" y="153.279"/>
			<point x="253.127" y="177.994" type="curve" smooth="yes"/>
			<point x="253.127" y="288.717"/>
			<point x="341.113" y="382.634"/>
			<point x="442.938" y="382.634" type="curve" smooth="yes"/>
			<point x="525.981" y="382.634"/>
			<point x="578.377" y="321.341"/>
			<point x="578.377" y="225.446" type="curve" smooth="yes"/>
			<point x="578.377" y="60.35"/>
			<point x="425.144" y="-80.031"/>
			<point x="243.241" y="-80.031" type="curve" smooth="yes"/>
			<point x="94.951" y="-80.031"/>
			<point x="3.011" y="7.954"/>
			<point x="3.011" y="150.313" type="curve" smooth="yes"/>
			<point x="3.011" y="361.873"/>
			<point x="202.709" y="551.684"/>
			<point x="427.121" y="551.684" type="curve" smooth="yes"/>
			<point x="497.311" y="551.684"/>
			<point x="556.627" y="527.958"/>
			<point x="556.627" y="501.266" type="curve" smooth="yes"/>
			<point x="556.627" y="488.414"/>
			<point x="537.844" y="479.517"/>
			<point x="510.163" y="479.517" type="curve" smooth="yes"/>
			<point x="402.406" y="479.517"/>
			<point x="345.067" y="567.502"/>
			<point x="345.067" y="663.396" type="curve" smooth="yes"/>
			<point x="345.067" y="781.04"/>
			<point x="426.132" y="909.558"/>
		</contour>
	</outline>
</glyph>
<glyph name="F" format="2">
	<advance width="806"/>
	<unicode hex="0046"/>
	<outline>
		<contour>
			<point x="198" y="456" type="curve"/>
			<point x="188" y="471"/>
			<point x="182" y="488"/>
			<point x="182" y="507" type="curve" smooth="yes"/>
			<point x="182" y="587"/>
			<point x="262" y="661"/>
			<point x="350" y="661" type="curve" smooth="yes"/>
			<point x="427" y="661"/>
			<point x="478" y="607"/>
			<point x="478" y="523" type="curve" smooth="yes"/>
			<point x="478" y="381"/>
			<point x="350" y="254"/>
			<point x="208" y="254" type="curve" smooth="yes"/>
			<point x="92" y="254"/>
			<point x="14" y="341"/>
			<point x="14" y="470" type="curve" smooth="yes"/>
			<point x="14" y="723"/>
			<point x="284" y="943"/>
			<point x="594" y="943" type="curve" smooth="yes"/>
			<point x="837" y="943"/>
			<point x="1037" y="785"/>
			<point x="1278" y="785" type="curve" smooth="yes"/>
			<point x="1354" y="785"/>
			<point x="1405" y="800"/>
			<point x="1448" y="832" type="curve"/>
			<point x="1450" y="839"/>
			<point x="1449" y="842"/>
			<point x="1443" y="843" type="curve"/>
			<point x="1400" y="812"/>
			<point x="1350" y="797"/>
			<point x="1277" y="797" type="curve" smooth="yes"/>
			<point x="1032" y="797"/>
			<point x="838" y="957"/>
			<point x="583" y="957" type="curve" smooth="yes"/>
			<point x="264" y="957"/>
			<point x="-3" y="740"/>
			<point x="-3" y="482" type="curve" smooth="yes"/>
			<point x="-3" y="343"/>
			<point x="85" y="242"/>
			<point x="208" y="242" type="curve" smooth="yes"/>
			<point x="357" y="242"/>
			<point x="498" y="377"/>
			<point x="498" y="520" type="curve" smooth="yes"/>
			<point x="498" y="610"/>
			<point x="439" y="673"/>
			<point x="354" y="673" type="curve" smooth="yes"/>
			<point x="258" y="673"/>
			<point x="164" y="593"/>
			<point x="164" y="512" type="curve" smooth="yes"/>
			<point x="164" y="490"/>
			<point x="171" y="473"/>
			<point x="185" y="451" type="curve"/>
			<point x="191" y="447"/>
			<point x="196" y="448"/>
		</contour>
		<contour>
			<point x="652" y="467" type="curve"/>
			<point x="655" y="475"/>
			<point x="661" y="478"/>
			<point x="668" y="478" type="curve" smooth="yes"/>
			<point x="796" y="478" type="line"/>
			<point x="796" y="489" type="line"/>
			<point x="670" y="489" type="line" smooth="yes"/>
			<point x="665" y="489"/>
			<point x="665" y="492"/>
			<point x="667" y="496" type="curve" smooth="yes"/>
			<point x="731" y="624"/>
			<point x="814" y="752"/>
			<point x="921" y="777" type="curve"/>
			<point x="921" y="799" type="line"/>
			<point x="809" y="762"/>
			<point x="719" y="633"/>
			<point x="646" y="500" type="curve" smooth="yes"/>
			<point x="642" y="492"/>
			<point x="636" y="489"/>
			<point x="628" y="489" type="curve" smooth="yes"/>
			<point x="546" y="489" type="line"/>
			<point x="546" y="478" type="line"/>
			<point x="626" y="478" type="line" smooth="yes"/>
			<point x="634" y="478"/>
			<point x="633" y="476"/>
			<point x="630" y="471" type="curve" smooth="yes"/>
			<point x="599" y="410"/>
			<point x="569" y="347"/>
			<point x="537" y="286" type="curve" smooth="yes"/>
			<point x="473" y="160"/>
			<point x="326" y="-43"/>
			<point x="159" y="-43" type="curve" smooth="yes"/>
			<point x="77" y="-43"/>
			<point x="23" y="-2"/>
			<point x="23" y="59" type="curve" smooth="yes"/>
			<point x="23" y="99"/>
			<point x="46" y="131"/>
			<point x="82" y="147" type="curve"/>
			<point x="73" y="156" type="line"/>
			<point x="34" y="137"/>
			<point x="10" y="104"/>
			<point x="10" y="61" type="curve" smooth="yes"/>
			<point x="11" y="-13"/>
			<point x="70" y="-57"/>
			<point x="173" y="-57" type="curve" smooth="yes"/>
			<point x="402" y="-57"/>
			<point x="523" y="188"/>
			<point x="606" y="370" type="curve" smooth="yes"/>
			<point x="620" y="401"/>
			<point x="636" y="434"/>
		</contour>
	</outline>
</glyph>
<glyph name="G" format="2">
	<advance width="700"/>
	<unicode hex="0047"/>
	<outline>
		<contour>
			<point x="746" y="809" type="curve" smooth="yes"/>
			<point x="746" y="659"/>
			<point x="511" y="485"/>
			<point x="309" y="485" type="curve" smooth="yes"/>
			<point x="221" y="485"/>
			<point x="158" y="511"/>
			<point x="116" y="556" type="curve"/>
			<point x="218" y="739"/>
			<point x="409" y="905"/>
			<point x="603" y="905" type="curve" smooth="yes"/>
			<point x="692" y="905"/>
			<point x="746" y="868"/>
		</contour>
		<contour>
			<point x="54" y="-361" type="curve" smooth="yes"/>
			<point x="-71" y="-361"/>
			<point x="-175" y="-272"/>
			<point x="-175" y="-162" type="curve" smooth="yes"/>
			<point x="-175" y="-57"/>
			<point x="-99" y="27"/>
			<point x="-2" y="27" type="curve" smooth="yes"/>
			<point x="18" y="27"/>
			<point x="40" y="21"/>
			<point x="58" y="11" type="curve"/>
			<point x="63" y="24" type="line"/>
			<point x="43" y="33"/>
			<point x="21" y="38"/>
			<point x="-2" y="38" type="curve" smooth="yes"/>
			<point x="-107" y="38"/>
			<point x="-198" y="-45"/>
			<point x="-198" y="-160" type="curve" smooth="yes"/>
			<point x="-198" y="-280"/>
			<point x="-75" y="-374"/>
			<point x="56" y="-374" type="curve" smooth="yes"/>
			<point x="192" y="-374"/>
			<point x="307" y="-308"/>
			<point x="380" y="-205" type="curve"/>
			<point x="463" y="-82"/>
			<point x="493" y="49"/>
			<point x="519" y="172" type="curve" smooth="yes"/>
			<point x="542" y="275"/>
			<point x="563" y="375"/>
			<point x="617" y="468" type="curve" smooth="yes"/>
			<point x="646" y="518"/>
			<point x="666" y="542"/>
			<point x="677" y="542" type="curve" smooth="yes"/>
			<point x="681" y="542"/>
			<point x="681" y="532"/>
			<point x="681" y="529" type="curve" smooth="yes"/>
			<point x="681" y="505"/>
			<point x="669" y="466"/>
			<point x="650" y="423" type="curve" smooth="yes"/>
			<point x="582" y="276"/>
			<point x="412" y="59"/>
			<point x="235" y="59" type="curve" smooth="yes"/>
			<point x="109" y="59"/>
			<point x="37" y="167"/>
			<point x="37" y="292" type="curve" smooth="yes"/>
			<point x="37" y="368"/>
			<point x="62" y="457"/>
			<point x="107" y="540" type="curve"/>
			<point x="153" y="499"/>
			<point x="219" y="474"/>
			<point x="310" y="474" type="curve" smooth="yes"/>
			<point x="525" y="474"/>
			<point x="768" y="648"/>
			<point x="768" y="801" type="curve" smooth="yes"/>
			<point x="768" y="871"/>
			<point x="703" y="915"/>
			<point x="599" y="915" type="curve" smooth="yes"/>
			<point x="392" y="915"/>
			<point x="198" y="747"/>
			<point x="97" y="576" type="curve"/>
			<point x="71" y="611"/>
			<point x="57" y="653"/>
			<point x="57" y="701" type="curve" smooth="yes"/>
			<point x="57" y="802"/>
			<point x="123" y="894"/>
			<point x="223" y="894" type="curve" smooth="yes"/>
			<point x="256" y="894"/>
			<point x="279" y="885"/>
			<point x="291" y="868" type="curve"/>
			<point x="304" y="868" type="line"/>
			<point x="286" y="893"/>
			<point x="256" y="906"/>
			<point x="219" y="906" type="curve" smooth="yes"/>
			<point x="115" y="906"/>
			<point x="35" y="812"/>
			<point x="35" y="704" type="curve" smooth="yes"/>
			<point x="35" y="648"/>
			<point x="54" y="599"/>
			<point x="87" y="562" type="curve"/>
			<point x="39" y="475"/>
			<point x="13" y="386"/>
			<point x="13" y="307" type="curve" smooth="yes"/>
			<point x="13" y="175"/>
			<point x="80" y="45"/>
			<point x="230" y="45" type="curve" smooth="yes"/>
			<point x="418" y="45"/>
			<point x="588" y="262"/>
			<point x="660" y="414" type="curve" smooth="yes"/>
			<point x="684" y="466"/>
			<point x="699" y="510"/>
			<point x="699" y="540" type="curve" smooth="yes"/>
			<point x="699" y="558"/>
			<point x="694" y="566"/>
			<point x="683" y="566" type="curve" smooth="yes"/>
			<point x="666" y="566"/>
			<point x="634" y="532"/>
			<point x="602" y="473" type="curve" smooth="yes"/>
			<point x="553" y="379"/>
			<point x="530" y="282"/>
			<point x="505" y="185" type="curve" smooth="yes"/>
			<point x="475" y="60"/>
			<point x="444" y="-66"/>
			<point x="358" y="-190" type="curve" smooth="yes"/>
			<point x="287" y="-291"/>
			<point x="184" y="-361"/>
		</contour>
	</outline>
</glyph>
<glyph name="H" format="2">
	<advance width="950"/>
	<unicode hex="0048"/>
	<outline>
		<contour>
			<point x="333" y="409" type="line"/>
			<point x="398" y="409" type="line" smooth="yes"/>
			<point x="403" y="409"/>
			<point x="401" y="407"/>
			<point x="400" y="405" type="curve" smooth="yes"/>
			<point x="349" y="309" type="line" smooth="yes"/>
			<point x="288" y="193"/>
			<point x="155" y="-5"/>
			<point x="-2" y="-5" type="curve" smooth="yes"/>
			<point x="-41" y="-5"/>
			<point x="-110" y="21"/>
			<point x="-110" y="86" type="curve" smooth="yes"/>
			<point x="-110" y="100"/>
			<point x="-107" y="114"/>
			<point x="-100" y="132" type="curve"/>
			<point x="-107" y="138" type="line"/>
			<point x="-117" y="115"/>
			<point x="-122" y="93"/>
			<point x="-122" y="78" type="curve" smooth="yes"/>
			<point x="-122" y="4"/>
			<point x="-44" y="-20"/>
			<point x="2" y="-20" type="curve" smooth="yes"/>
			<point x="192" y="-20"/>
			<point x="311" y="159"/>
			<point x="386" y="314" type="curve" smooth="yes"/>
			<point x="428" y="401" type="line"/>
			<point x="430" y="407"/>
			<point x="434" y="409"/>
			<point x="440" y="409" type="curve" smooth="yes"/>
			<point x="804" y="409" type="line" smooth="yes"/>
			<point x="809" y="409"/>
			<point x="807" y="407"/>
			<point x="806" y="405" type="curve" smooth="yes"/>
			<point x="777" y="340"/>
			<point x="748" y="275"/>
			<point x="725" y="211" type="curve" smooth="yes"/>
			<point x="696" y="134"/>
			<point x="668" y="43"/>
			<point x="668" y="-32" type="curve" smooth="yes"/>
			<point x="668" y="-132"/>
			<point x="716" y="-192"/>
			<point x="795" y="-192" type="curve" smooth="yes"/>
			<point x="851" y="-192"/>
			<point x="900" y="-150"/>
			<point x="900" y="-103" type="curve" smooth="yes"/>
			<point x="900" y="-80"/>
			<point x="885" y="-58"/>
			<point x="866" y="-51" type="curve"/>
			<point x="862" y="-60" type="line"/>
			<point x="876" y="-67"/>
			<point x="885" y="-81"/>
			<point x="885" y="-95" type="curve" smooth="yes"/>
			<point x="885" y="-140"/>
			<point x="843" y="-180"/>
			<point x="796" y="-180" type="curve" smooth="yes"/>
			<point x="732" y="-180"/>
			<point x="691" y="-126"/>
			<point x="691" y="-37" type="curve" smooth="yes"/>
			<point x="691" y="32"/>
			<point x="716" y="120"/>
			<point x="746" y="195" type="curve" smooth="yes"/>
			<point x="774" y="263"/>
			<point x="804" y="332"/>
			<point x="835" y="401" type="curve" smooth="yes"/>
			<point x="837" y="406"/>
			<point x="841" y="409"/>
			<point x="847" y="409" type="curve" smooth="yes"/>
			<point x="911" y="409" type="line"/>
			<point x="911" y="421" type="line"/>
			<point x="848" y="421" type="line" smooth="yes"/>
			<point x="844" y="421"/>
			<point x="845" y="422"/>
			<point x="846" y="425" type="curve" smooth="yes"/>
			<point x="980" y="703"/>
			<point x="1150" y="948"/>
			<point x="1313" y="948" type="curve" smooth="yes"/>
			<point x="1358" y="948"/>
			<point x="1404" y="928"/>
			<point x="1411" y="886" type="curve"/>
			<point x="1418" y="886" type="line"/>
			<point x="1421" y="894"/>
			<point x="1422" y="900"/>
			<point x="1422" y="905" type="curve" smooth="yes"/>
			<point x="1422" y="944"/>
			<point x="1365" y="961"/>
			<point x="1320" y="961" type="curve" smooth="yes"/>
			<point x="1141" y="961"/>
			<point x="958" y="714"/>
			<point x="818" y="429" type="curve"/>
			<point x="816" y="423"/>
			<point x="812" y="421"/>
			<point x="806" y="421" type="curve" smooth="yes"/>
			<point x="442" y="421" type="line" smooth="yes"/>
			<point x="438" y="421"/>
			<point x="439" y="422"/>
			<point x="440" y="425" type="curve" smooth="yes"/>
			<point x="495" y="540"/>
			<point x="589" y="727"/>
			<point x="683" y="785" type="curve" smooth="yes"/>
			<point x="711" y="802"/>
			<point x="768" y="818"/>
			<point x="768" y="852" type="curve" smooth="yes"/>
			<point x="768" y="930"/>
			<point x="587" y="973"/>
			<point x="456" y="973" type="curve" smooth="yes"/>
			<point x="216" y="973"/>
			<point x="-50" y="832"/>
			<point x="-50" y="592" type="curve" smooth="yes"/>
			<point x="-50" y="493"/>
			<point x="8" y="383"/>
			<point x="135" y="383" type="curve" smooth="yes"/>
			<point x="264" y="383"/>
			<point x="390" y="495"/>
			<point x="390" y="629" type="curve" smooth="yes"/>
			<point x="390" y="715"/>
			<point x="327" y="759"/>
			<point x="258" y="759" type="curve" smooth="yes"/>
			<point x="170" y="759"/>
			<point x="86" y="686"/>
			<point x="86" y="613" type="curve" smooth="yes"/>
			<point x="86" y="591"/>
			<point x="95" y="572"/>
			<point x="105" y="552" type="curve"/>
			<point x="110" y="550"/>
			<point x="113" y="551"/>
			<point x="116" y="557" type="curve"/>
			<point x="108" y="575"/>
			<point x="104" y="593"/>
			<point x="104" y="610" type="curve" smooth="yes"/>
			<point x="104" y="679"/>
			<point x="174" y="746"/>
			<point x="257" y="746" type="curve" smooth="yes"/>
			<point x="315" y="746"/>
			<point x="368" y="710"/>
			<point x="368" y="630" type="curve" smooth="yes"/>
			<point x="368" y="502"/>
			<point x="258" y="394"/>
			<point x="144" y="394" type="curve" smooth="yes"/>
			<point x="20" y="394"/>
			<point x="-31" y="487"/>
			<point x="-31" y="574" type="curve" smooth="yes"/>
			<point x="-31" y="764"/>
			<point x="167" y="960"/>
			<point x="456" y="960" type="curve" smooth="yes"/>
			<point x="591" y="960"/>
			<point x="749" y="917"/>
			<point x="749" y="852" type="curve" smooth="yes"/>
			<point x="749" y="826"/>
			<point x="700" y="809"/>
			<point x="678" y="796" type="curve" smooth="yes"/>
			<point x="552" y="722"/>
			<point x="475" y="542"/>
			<point x="412" y="429" type="curve" smooth="yes"/>
			<point x="410" y="425"/>
			<point x="406" y="421"/>
			<point x="400" y="421" type="curve" smooth="yes"/>
			<point x="339" y="421" type="line"/>
		</contour>
	</outline>
</glyph>
<glyph name="I" format="2">
	<advance width="569"/>
	<unicode hex="0049"/>
	<anchor x="672" y="998" name="top"/>
	<outline>
		<contour>
			<point x="-24.692" y="-47.407" type="curve" smooth="yes"/>
			<point x="151.279" y="-47.407"/>
			<point x="244.207" y="92.974"/>
			<point x="327.249" y="236.321" type="curve"/>
			<point x="449.836" y="252.139"/>
			<point x="556.605" y="358.907"/>
			<point x="556.605" y="487.425" type="curve" smooth="yes"/>
			<point x="556.605" y="531.912"/>
			<point x="544.741" y="571.456"/>
			<point x="512.118" y="602.103" type="curve"/>
			<point x="558.582" y="679.214"/>
			<point x="609.989" y="744.461"/>
			<point x="672.271" y="764.233" type="curve" smooth="yes"/>
			<point x="705.883" y="775.108"/>
			<point x="763.222" y="802.789"/>
			<point x="763.222" y="845.299" type="curve" smooth="yes"/>
			<point x="763.222" y="894.729"/>
			<point x="674.248" y="933.284"/>
			<point x="562.536" y="933.284" type="curve" smooth="yes"/>
			<point x="287.705" y="933.284"/>
			<point x="79.111" y="684.157"/>
			<point x="79.111" y="480.505" type="curve" smooth="yes"/>
			<point x="79.111" y="354.953"/>
			<point x="155.233" y="234.344"/>
			<point x="290.671" y="234.344" type="curve" smooth="yes"/>
			<point x="292.648" y="234.344" type="line"/>
			<point x="216.526" y="109.78"/>
			<point x="104.814" y="-33.567"/>
			<point x="-37.544" y="-33.567" type="curve" smooth="yes"/>
			<point x="-104.769" y="-33.567"/>
			<point x="-171.005" y="1.034"/>
			<point x="-171.005" y="75.179" type="curve" smooth="yes"/>
			<point x="-171.005" y="111.757"/>
			<point x="-154.199" y="139.438"/>
			<point x="-124.541" y="155.256" type="curve"/>
			<point x="-120.586" y="161.187"/>
			<point x="-123.552" y="164.153"/>
			<point x="-130.472" y="164.153" type="curve"/>
			<point x="-170.016" y="144.381"/>
			<point x="-189.788" y="112.746"/>
			<point x="-189.788" y="70.236" type="curve" smooth="yes"/>
			<point x="-189.788" y="-19.726"/>
			<point x="-97.849" y="-47.407"/>
		</contour>
		<contour>
			<point x="571.434" y="920.432" type="curve" smooth="yes"/>
			<point x="667.328" y="920.432"/>
			<point x="741.473" y="885.831"/>
			<point x="741.473" y="841.344" type="curve" smooth="yes"/>
			<point x="741.473" y="808.72"/>
			<point x="698.963" y="789.937"/>
			<point x="670.294" y="779.062" type="curve" smooth="yes"/>
			<point x="606.035" y="755.336"/>
			<point x="550.673" y="689.1"/>
			<point x="499.266" y="612.978" type="curve"/>
			<point x="473.562" y="633.738"/>
			<point x="439.95" y="643.624"/>
			<point x="405.349" y="643.624" type="curve" smooth="yes"/>
			<point x="311.432" y="643.624"/>
			<point x="230.367" y="566.513"/>
			<point x="230.367" y="488.414" type="curve" smooth="yes"/>
			<point x="230.367" y="466.665"/>
			<point x="239.264" y="447.881"/>
			<point x="256.07" y="432.064" type="curve"/>
			<point x="262.002" y="431.075"/>
			<point x="265.956" y="433.052"/>
			<point x="267.933" y="437.995" type="curve"/>
			<point x="252.116" y="451.836"/>
			<point x="247.173" y="468.642"/>
			<point x="247.173" y="485.448" type="curve" smooth="yes"/>
			<point x="247.173" y="557.616"/>
			<point x="319.341" y="630.772"/>
			<point x="405.349" y="630.772" type="curve" smooth="yes"/>
			<point x="436.984" y="630.772"/>
			<point x="468.619" y="620.886"/>
			<point x="491.357" y="599.137" type="curve"/>
			<point x="440.938" y="521.038"/>
			<point x="404.36" y="436.018"/>
			<point x="360.862" y="354.953" type="curve" smooth="yes"/>
			<point x="341.09" y="318.375"/>
			<point x="321.318" y="281.797"/>
			<point x="300.557" y="246.207" type="curve"/>
			<point x="295.614" y="246.207" type="line" smooth="yes"/>
			<point x="169.073" y="246.207"/>
			<point x="95.917" y="348.033"/>
			<point x="95.917" y="467.653" type="curve" smooth="yes"/>
			<point x="95.917" y="669.328"/>
			<point x="305.5" y="920.432"/>
		</contour>
		<contour>
			<point x="333.181" y="249.173" type="curve"/>
			<point x="379.645" y="333.204" type="line" smooth="yes"/>
			<point x="425.121" y="416.246"/>
			<point x="457.745" y="504.232"/>
			<point x="503.22" y="587.274" type="curve"/>
			<point x="529.912" y="558.605"/>
			<point x="536.833" y="523.015"/>
			<point x="536.833" y="485.448" type="curve" smooth="yes"/>
			<point x="536.833" y="367.805"/>
			<point x="443.904" y="265.979"/>
		</contour>
	</outline>
</glyph>
<glyph name="J" format="2">
	<advance width="546"/>
	<unicode hex="004A"/>
	<outline>
		<contour>
			<point x="-158" y="-154" type="curve" smooth="yes"/>
			<point x="50" y="-154"/>
			<point x="179" y="52"/>
			<point x="265" y="224" type="curve" smooth="yes"/>
			<point x="267" y="228"/>
			<point x="269" y="231"/>
			<point x="270" y="235" type="curve"/>
			<point x="399" y="249"/>
			<point x="518" y="364"/>
			<point x="518" y="499" type="curve" smooth="yes"/>
			<point x="518" y="542"/>
			<point x="503" y="585"/>
			<point x="470" y="613" type="curve"/>
			<point x="521" y="687"/>
			<point x="582" y="744"/>
			<point x="648" y="764" type="curve" smooth="yes"/>
			<point x="685" y="775"/>
			<point x="742" y="805"/>
			<point x="742" y="848" type="curve" smooth="yes"/>
			<point x="742" y="906"/>
			<point x="649" y="933"/>
			<point x="547" y="933" type="curve" smooth="yes"/>
			<point x="267" y="933"/>
			<point x="42" y="674"/>
			<point x="42" y="469" type="curve" smooth="yes"/>
			<point x="42" y="348"/>
			<point x="105" y="238"/>
			<point x="235" y="234" type="curve"/>
			<point x="237" y="234"/>
			<point x="238" y="234"/>
			<point x="240" y="234" type="curve"/>
			<point x="231" y="218" type="line" smooth="yes"/>
			<point x="156" y="85"/>
			<point x="8" y="-140"/>
			<point x="-171" y="-140" type="curve" smooth="yes"/>
			<point x="-239" y="-140"/>
			<point x="-303" y="-107"/>
			<point x="-303" y="-32" type="curve" smooth="yes"/>
			<point x="-303" y="5"/>
			<point x="-284" y="33"/>
			<point x="-254" y="48" type="curve"/>
			<point x="-250" y="54"/>
			<point x="-253" y="57"/>
			<point x="-260" y="57" type="curve"/>
			<point x="-300" y="38"/>
			<point x="-322" y="5"/>
			<point x="-322" y="-37" type="curve" smooth="yes"/>
			<point x="-322" y="-127"/>
			<point x="-231" y="-154"/>
		</contour>
		<contour>
			<point x="556" y="920" type="curve" smooth="yes"/>
			<point x="651" y="920"/>
			<point x="721" y="893"/>
			<point x="721" y="843" type="curve" smooth="yes"/>
			<point x="721" y="810"/>
			<point x="678" y="789"/>
			<point x="647" y="779" type="curve" smooth="yes"/>
			<point x="578" y="757"/>
			<point x="514" y="696"/>
			<point x="458" y="620" type="curve"/>
			<point x="433" y="636"/>
			<point x="404" y="644"/>
			<point x="375" y="644" type="curve" smooth="yes"/>
			<point x="280" y="644"/>
			<point x="191" y="567"/>
			<point x="191" y="488" type="curve" smooth="yes"/>
			<point x="191" y="466"/>
			<point x="201" y="449"/>
			<point x="215" y="432" type="curve"/>
			<point x="221" y="430"/>
			<point x="225" y="432"/>
			<point x="225" y="438" type="curve"/>
			<point x="214" y="453"/>
			<point x="208" y="467"/>
			<point x="208" y="485" type="curve" smooth="yes"/>
			<point x="208" y="559"/>
			<point x="287" y="631"/>
			<point x="374" y="631" type="curve" smooth="yes"/>
			<point x="400" y="631"/>
			<point x="427" y="624"/>
			<point x="449" y="609" type="curve"/>
			<point x="366" y="494"/>
			<point x="310" y="363"/>
			<point x="246" y="246" type="curve"/>
			<point x="244" y="246" type="line" smooth="yes"/>
			<point x="121" y="246"/>
			<point x="58" y="340"/>
			<point x="58" y="455" type="curve" smooth="yes"/>
			<point x="58" y="655"/>
			<point x="284" y="920"/>
		</contour>
		<contour>
			<point x="461" y="600" type="curve"/>
			<point x="486" y="575"/>
			<point x="498" y="536"/>
			<point x="498" y="500" type="curve" smooth="yes"/>
			<point x="498" y="373"/>
			<point x="393" y="266"/>
			<point x="276" y="248" type="curve"/>
			<point x="328" y="364"/>
			<point x="385" y="489"/>
		</contour>
	</outline>
</glyph>
<glyph name="L" format="2">
	<advance width="678"/>
	<unicode hex="004C"/>
	<anchor x="818" y="998" name="top"/>
	<outline>
		<contour>
			<point x="645.704" y="-237.218" type="curve" smooth="yes"/>
			<point x="801.903" y="-237.218"/>
			<point x="896.808" y="-151.21"/>
			<point x="896.808" y="-79.042" type="curve" smooth="yes"/>
			<point x="896.808" y="-72.122"/>
			<point x="895.82" y="-63.225"/>
			<point x="892.854" y="-55.316" type="curve"/>
			<point x="888.9" y="-51.362"/>
			<point x="881.979" y="-54.327"/>
			<point x="881.979" y="-61.248" type="curve"/>
			<point x="882.968" y="-66.191"/>
			<point x="883.957" y="-72.122"/>
			<point x="883.957" y="-77.065" type="curve"/>
			<point x="881.979" y="-140.336"/>
			<point x="772.245" y="-213.492"/>
			<point x="621.978" y="-213.492" type="curve" smooth="yes"/>
			<point x="337.261" y="-213.492"/>
			<point x="203.8" y="108.792"/>
			<point x="-62.134" y="108.792" type="curve" smooth="yes"/>
			<point x="-111.564" y="108.792"/>
			<point x="-140.233" y="93.963"/>
			<point x="-140.233" y="71.225" type="curve" smooth="yes"/>
			<point x="-140.233" y="41.567"/>
			<point x="-93.769" y="19.818"/>
			<point x="-31.487" y="19.818" type="curve" smooth="yes"/>
			<point x="157.336" y="19.818"/>
			<point x="306.614" y="187.88"/>
			<point x="397.565" y="376.702" type="curve" smooth="yes"/>
			<point x="460.836" y="514.118"/>
			<point x="621.978" y="935.261"/>
			<point x="774.222" y="935.261" type="curve" smooth="yes"/>
			<point x="819.698" y="935.261"/>
			<point x="835.515" y="892.751"/>
			<point x="835.515" y="853.207" type="curve" smooth="yes"/>
			<point x="835.515" y="612.978"/>
			<point x="521.14" y="258.07"/>
			<point x="269.047" y="258.07" type="curve" smooth="yes"/>
			<point x="125.7" y="258.07"/>
			<point x="4.103" y="357.919"/>
			<point x="4.103" y="507.197" type="curve" smooth="yes"/>
			<point x="4.103" y="644.613"/>
			<point x="110.871" y="744.461"/>
			<point x="224.56" y="744.461" type="curve" smooth="yes"/>
			<point x="306.614" y="744.461"/>
			<point x="362.964" y="689.1"/>
			<point x="362.964" y="625.829" type="curve" smooth="yes"/>
			<point x="362.964" y="571.456"/>
			<point x="323.42" y="502.254"/>
			<point x="259.161" y="502.254" type="curve" smooth="yes"/>
			<point x="248.287" y="502.254"/>
			<point x="207.754" y="504.232"/>
			<point x="189.959" y="545.753" type="curve"/>
			<point x="184.028" y="548.719"/>
			<point x="179.085" y="547.73"/>
			<point x="177.108" y="540.81" type="curve"/>
			<point x="199.845" y="497.311"/>
			<point x="237.412" y="490.391"/>
			<point x="262.127" y="490.391" type="curve" smooth="yes"/>
			<point x="338.249" y="490.391"/>
			<point x="380.759" y="564.536"/>
			<point x="380.759" y="624.841" type="curve" smooth="yes"/>
			<point x="380.759" y="699.974"/>
			<point x="314.523" y="756.325"/>
			<point x="223.572" y="756.325" type="curve" smooth="yes"/>
			<point x="99.997" y="756.325"/>
			<point x="-20.612" y="654.499"/>
			<point x="-20.612" y="509.175" type="curve" smooth="yes"/>
			<point x="-20.612" y="348.033"/>
			<point x="126.689" y="245.218"/>
			<point x="276.956" y="245.218" type="curve" smooth="yes"/>
			<point x="530.038" y="245.218"/>
			<point x="854.299" y="592.217"/>
			<point x="854.299" y="839.367" type="curve" smooth="yes"/>
			<point x="854.299" y="885.831"/>
			<point x="831.561" y="947.124"/>
			<point x="775.211" y="947.124" type="curve" smooth="yes"/>
			<point x="591.331" y="947.124"/>
			<point x="428.212" y="510.163"/>
			<point x="354.067" y="351.987" type="curve" smooth="yes"/>
			<point x="272.013" y="176.016"/>
			<point x="139.541" y="33.658"/>
			<point x="-31.487" y="33.658" type="curve" smooth="yes"/>
			<point x="-81.906" y="33.658"/>
			<point x="-116.507" y="46.51"/>
			<point x="-116.507" y="67.27" type="curve" smooth="yes"/>
			<point x="-116.507" y="83.088"/>
			<point x="-93.769" y="92.974"/>
			<point x="-57.191" y="92.974" type="curve" smooth="yes"/>
			<point x="161.29" y="92.974"/>
			<point x="356.044" y="-237.218"/>
		</contour>
	</outline>
</glyph>
<glyph name="M" format="2">
	<advance width="1241"/>
	<unicode hex="004D"/>
	<outline>
		<contour>
			<point x="824" y="925" type="curve"/>
			<point x="798" y="859"/>
			<point x="753" y="829"/>
			<point x="677" y="829" type="curve" smooth="yes"/>
			<point x="578" y="829"/>
			<point x="486" y="874"/>
			<point x="383" y="874" type="curve" smooth="yes"/>
			<point x="158" y="874"/>
			<point x="-34" y="695"/>
			<point x="-34" y="486" type="curve" smooth="yes"/>
			<point x="-34" y="348"/>
			<point x="63" y="244"/>
			<point x="193" y="244" type="curve" smooth="yes"/>
			<point x="344" y="244"/>
			<point x="486" y="383"/>
			<point x="486" y="529" type="curve" smooth="yes"/>
			<point x="486" y="623"/>
			<point x="427" y="688"/>
			<point x="342" y="688" type="curve" smooth="yes"/>
			<point x="243" y="688"/>
			<point x="148" y="600"/>
			<point x="148" y="509" type="curve" smooth="yes"/>
			<point x="148" y="480"/>
			<point x="152" y="455"/>
			<point x="181" y="429" type="curve"/>
			<point x="187" y="427"/>
			<point x="191" y="428"/>
			<point x="193" y="434" type="curve"/>
			<point x="170" y="454"/>
			<point x="167" y="481"/>
			<point x="167" y="507" type="curve" smooth="yes"/>
			<point x="167" y="594"/>
			<point x="249" y="674"/>
			<point x="339" y="674" type="curve" smooth="yes"/>
			<point x="414" y="674"/>
			<point x="462" y="619"/>
			<point x="462" y="532" type="curve" smooth="yes"/>
			<point x="462" y="387"/>
			<point x="334" y="257"/>
			<point x="193" y="257" type="curve" smooth="yes"/>
			<point x="74" y="257"/>
			<point x="-11" y="345"/>
			<point x="-11" y="470" type="curve" smooth="yes"/>
			<point x="-11" y="677"/>
			<point x="177" y="859"/>
			<point x="392" y="859" type="curve" smooth="yes"/>
			<point x="488" y="859"/>
			<point x="576" y="817"/>
			<point x="671" y="817" type="curve" smooth="yes"/>
			<point x="754" y="817"/>
			<point x="806" y="847"/>
			<point x="837" y="913" type="curve"/>
			<point x="837" y="923"/>
			<point x="832" y="927"/>
		</contour>
		<contour>
			<point x="46" y="-44" type="curve" smooth="yes"/>
			<point x="-34" y="-44"/>
			<point x="-82" y="-3"/>
			<point x="-82" y="62" type="curve" smooth="yes"/>
			<point x="-82" y="99"/>
			<point x="-63" y="130"/>
			<point x="-34" y="144" type="curve"/>
			<point x="-30" y="150"/>
			<point x="-33" y="153"/>
			<point x="-40" y="153" type="curve"/>
			<point x="-79" y="134"/>
			<point x="-102" y="102"/>
			<point x="-102" y="57" type="curve" smooth="yes"/>
			<point x="-102" y="-17"/>
			<point x="-43" y="-58"/>
			<point x="59" y="-58" type="curve" smooth="yes"/>
			<point x="288" y="-58"/>
			<point x="413" y="168"/>
			<point x="525" y="345" type="curve" smooth="yes"/>
			<point x="619" y="494"/>
			<point x="702" y="690"/>
			<point x="841" y="800" type="curve"/>
			<point x="807" y="721"/>
			<point x="800" y="597"/>
			<point x="800" y="500" type="curve" smooth="yes"/>
			<point x="800" y="437" type="line"/>
			<point x="721" y="345"/>
			<point x="534" y="112"/>
			<point x="534" y="-15" type="curve" smooth="yes"/>
			<point x="534" y="-73"/>
			<point x="563" y="-104"/>
			<point x="601" y="-104" type="curve" smooth="yes"/>
			<point x="682" y="-104"/>
			<point x="797" y="49"/>
			<point x="817" y="228" type="curve" smooth="yes"/>
			<point x="821" y="267"/>
			<point x="822" y="326"/>
			<point x="822" y="389" type="curve" smooth="yes"/>
			<point x="822" y="407"/>
			<point x="822" y="424"/>
			<point x="822" y="442" type="curve"/>
			<point x="1020" y="675"/>
			<point x="1283" y="904"/>
			<point x="1402" y="904" type="curve" smooth="yes"/>
			<point x="1407" y="904"/>
			<point x="1409" y="902"/>
			<point x="1409" y="900" type="curve" smooth="yes"/>
			<point x="1409" y="883"/>
			<point x="1369" y="844"/>
			<point x="1357" y="832" type="curve" smooth="yes"/>
			<point x="1178" y="653"/>
			<point x="940" y="249"/>
			<point x="940" y="-31" type="curve" smooth="yes"/>
			<point x="940" y="-118"/>
			<point x="978" y="-192"/>
			<point x="1068" y="-192" type="curve" smooth="yes"/>
			<point x="1159" y="-192"/>
			<point x="1186" y="-126"/>
			<point x="1186" y="-96" type="curve" smooth="yes"/>
			<point x="1186" y="-83"/>
			<point x="1180" y="-54"/>
			<point x="1153" y="-43" type="curve"/>
			<point x="1149" y="-44"/>
			<point x="1147" y="-47"/>
			<point x="1149" y="-52" type="curve"/>
			<point x="1163" y="-60"/>
			<point x="1171" y="-72"/>
			<point x="1171" y="-88" type="curve" smooth="yes"/>
			<point x="1171" y="-115"/>
			<point x="1148" y="-180"/>
			<point x="1068" y="-180" type="curve" smooth="yes"/>
			<point x="999" y="-180"/>
			<point x="968" y="-115"/>
			<point x="968" y="-37" type="curve" smooth="yes"/>
			<point x="968" y="220"/>
			<point x="1196" y="653"/>
			<point x="1377" y="833" type="curve" smooth="yes"/>
			<point x="1398" y="853"/>
			<point x="1437" y="891"/>
			<point x="1437" y="909" type="curve" smooth="yes"/>
			<point x="1437" y="919"/>
			<point x="1431" y="924"/>
			<point x="1419" y="924" type="curve" smooth="yes"/>
			<point x="1289" y="924"/>
			<point x="1027" y="700"/>
			<point x="822" y="463" type="curve"/>
			<point x="821" y="502"/>
			<point x="821" y="530"/>
			<point x="821" y="567" type="curve" smooth="yes"/>
			<point x="821" y="658"/>
			<point x="833" y="758"/>
			<point x="868" y="817" type="curve"/>
			<point x="885" y="828"/>
			<point x="904" y="836"/>
			<point x="921" y="842" type="curve" smooth="yes"/>
			<point x="954" y="854"/>
			<point x="971" y="871"/>
			<point x="971" y="881" type="curve" smooth="yes"/>
			<point x="971" y="892"/>
			<point x="965" y="897"/>
			<point x="952" y="897" type="curve" smooth="yes"/>
			<point x="908" y="897"/>
			<point x="876" y="861"/>
			<point x="854" y="826" type="curve"/>
			<point x="725" y="732"/>
			<point x="577" y="479"/>
			<point x="489" y="333" type="curve" smooth="yes"/>
			<point x="405" y="194"/>
			<point x="238" y="-44"/>
		</contour>
		<contour>
			<point x="941" y="882" type="curve" smooth="yes"/>
			<point x="943" y="882"/>
			<point x="944" y="881"/>
			<point x="944" y="878" type="curve"/>
			<point x="944" y="878"/>
			<point x="944" y="878"/>
			<point x="944" y="878" type="curve"/>
			<point x="944" y="875"/>
			<point x="935" y="866"/>
			<point x="923" y="861" type="curve" smooth="yes"/>
			<point x="912" y="857"/>
			<point x="898" y="850"/>
			<point x="885" y="844" type="curve"/>
			<point x="900" y="864"/>
			<point x="920" y="882"/>
		</contour>
		<contour>
			<point x="800" y="416" type="curve"/>
			<point x="799" y="356"/>
			<point x="796" y="293"/>
			<point x="795" y="282" type="curve" smooth="yes"/>
			<point x="783" y="86"/>
			<point x="671" y="-89"/>
			<point x="595" y="-89" type="curve" smooth="yes"/>
			<point x="569" y="-89"/>
			<point x="554" y="-71"/>
			<point x="554" y="-28" type="curve" smooth="yes"/>
			<point x="554" y="101"/>
			<point x="717" y="316"/>
		</contour>
	</outline>
</glyph>
<glyph name="N" format="2">
	<advance width="1069"/>
	<unicode hex="004E"/>
	<anchor x="1107" y="936" name="top"/>
	<outline>
		<contour>
			<point x="887.808" y="182.937" type="curve" smooth="yes"/>
			<point x="1026.212" y="518.072"/>
			<point x="1277.317" y="902.637"/>
			<point x="1470.094" y="902.637" type="curve" smooth="yes"/>
			<point x="1534.353" y="902.637"/>
			<point x="1558.079" y="874.957"/>
			<point x="1565.988" y="832.447" type="curve"/>
			<point x="1572.908" y="832.447" type="line"/>
			<point x="1575.874" y="839.367"/>
			<point x="1576.863" y="846.287"/>
			<point x="1576.863" y="851.23" type="curve"/>
			<point x="1575.874" y="890.774"/>
			<point x="1521.501" y="921.421"/>
			<point x="1451.31" y="921.421" type="curve" smooth="yes"/>
			<point x="1239.75" y="921.421"/>
			<point x="995.566" y="482.482"/>
			<point x="876.934" y="190.845" type="curve" smooth="yes"/>
			<point x="852.219" y="129.552"/>
			<point x="832.447" y="75.179"/>
			<point x="820.584" y="32.669" type="curve" smooth="yes"/>
			<point x="815.641" y="15.863"/>
			<point x="810.698" y="-1.932"/>
			<point x="810.698" y="-12.806" type="curve" smooth="yes"/>
			<point x="810.698" y="-35.544"/>
			<point x="816.629" y="-45.43"/>
			<point x="829.481" y="-45.43" type="curve" smooth="yes"/>
			<point x="867.048" y="-45.43"/>
			<point x="898.683" y="28.715"/>
			<point x="898.683" y="121.643" type="curve" smooth="yes"/>
			<point x="898.683" y="309.477"/>
			<point x="785.983" y="476.551"/>
			<point x="784.005" y="663.396" type="curve" smooth="yes"/>
			<point x="784.005" y="724.689"/>
			<point x="796.857" y="775.108"/>
			<point x="833.435" y="814.652" type="curve"/>
			<point x="848.264" y="825.527"/>
			<point x="870.014" y="835.413"/>
			<point x="886.82" y="843.321" type="curve" smooth="yes"/>
			<point x="899.672" y="849.253"/>
			<point x="939.216" y="870.014"/>
			<point x="939.216" y="887.808" type="curve" smooth="yes"/>
			<point x="939.216" y="895.717"/>
			<point x="932.295" y="899.672"/>
			<point x="921.421" y="899.672" type="curve" smooth="yes"/>
			<point x="875.945" y="899.672"/>
			<point x="822.561" y="845.299"/>
			<point x="800.812" y="808.72" type="curve"/>
			<point x="690.088" y="707.883"/>
			<point x="622.864" y="506.209"/>
			<point x="557.616" y="366.816" type="curve" smooth="yes"/>
			<point x="471.608" y="184.914"/>
			<point x="329.249" y="-44.441"/>
			<point x="136.472" y="-44.441" type="curve" smooth="yes"/>
			<point x="58.373" y="-44.441"/>
			<point x="7.954" y="-0.943"/>
			<point x="7.954" y="62.327" type="curve" smooth="yes"/>
			<point x="7.954" y="98.906"/>
			<point x="25.749" y="129.552"/>
			<point x="55.407" y="144.381" type="curve"/>
			<point x="59.362" y="150.313"/>
			<point x="56.396" y="153.279"/>
			<point x="49.476" y="153.279" type="curve"/>
			<point x="9.932" y="134.495"/>
			<point x="-11.818" y="101.871"/>
			<point x="-11.818" y="57.384" type="curve" smooth="yes"/>
			<point x="-10.829" y="-16.761"/>
			<point x="47.498" y="-58.282"/>
			<point x="150.313" y="-58.282" type="curve" smooth="yes"/>
			<point x="378.679" y="-58.282"/>
			<point x="490.391" y="164.153"/>
			<point x="578.377" y="345.067" type="curve" smooth="yes"/>
			<point x="646.59" y="486.437"/>
			<point x="677.237" y="656.476"/>
			<point x="784.994" y="776.097" type="curve"/>
			<point x="769.176" y="736.553"/>
			<point x="764.233" y="691.077"/>
			<point x="764.233" y="645.601" type="curve" smooth="yes"/>
			<point x="764.233" y="457.767"/>
			<point x="871.002" y="288.717"/>
			<point x="871.002" y="101.871" type="curve" smooth="yes"/>
			<point x="871.002" y="43.544"/>
			<point x="849.253" y="-24.669"/>
			<point x="830.47" y="-24.669" type="curve" smooth="yes"/>
			<point x="826.515" y="-24.669"/>
			<point x="824.538" y="-19.726"/>
			<point x="824.538" y="-10.829" type="curve" smooth="yes"/>
			<point x="824.538" y="-1.932"/>
			<point x="827.504" y="12.897"/>
			<point x="832.447" y="29.704" type="curve" smooth="yes"/>
			<point x="847.276" y="81.111"/>
			<point x="877.922" y="158.222"/>
		</contour>
		<contour>
			<point x="910.546" y="883.854" type="curve" smooth="yes"/>
			<point x="913.512" y="883.854"/>
			<point x="915.489" y="882.865"/>
			<point x="915.489" y="879.9" type="curve" smooth="yes"/>
			<point x="915.489" y="875.945"/>
			<point x="897.694" y="864.082"/>
			<point x="885.831" y="858.15" type="curve" smooth="yes"/>
			<point x="871.991" y="851.23"/>
			<point x="853.207" y="843.321"/>
			<point x="837.39" y="833.435" type="curve"/>
			<point x="853.207" y="855.185"/>
			<point x="884.843" y="883.854"/>
		</contour>
		<contour>
			<point x="811.686" y="913.512" type="curve"/>
			<point x="797.846" y="925.375" type="line"/>
			<point x="772.142" y="859.139"/>
			<point x="727.655" y="829.481"/>
			<point x="651.533" y="829.481" type="curve" smooth="yes"/>
			<point x="557.616" y="829.481"/>
			<point x="469.631" y="868.036"/>
			<point x="374.725" y="868.036" type="curve" smooth="yes"/>
			<point x="154.267" y="868.036"/>
			<point x="-34.555" y="692.066"/>
			<point x="-34.555" y="486.437" type="curve" smooth="yes"/>
			<point x="-34.555" y="348.033"/>
			<point x="62.327" y="244.23"/>
			<point x="191.834" y="244.23" type="curve" smooth="yes"/>
			<point x="343.09" y="244.23"/>
			<point x="485.448" y="382.634"/>
			<point x="485.448" y="528.947" type="curve" smooth="yes"/>
			<point x="485.448" y="622.864"/>
			<point x="426.132" y="688.111"/>
			<point x="341.113" y="688.111" type="curve" smooth="yes"/>
			<point x="242.253" y="688.111"/>
			<point x="147.347" y="600.126"/>
			<point x="147.347" y="509.175" type="curve" smooth="yes"/>
			<point x="147.347" y="487.425"/>
			<point x="154.267" y="471.608"/>
			<point x="171.073" y="447.881" type="curve"/>
			<point x="176.016" y="445.904"/>
			<point x="179.971" y="446.893"/>
			<point x="182.937" y="452.824" type="curve"/>
			<point x="172.062" y="471.608"/>
			<point x="166.13" y="488.414"/>
			<point x="166.13" y="507.197" type="curve" smooth="yes"/>
			<point x="166.13" y="594.194"/>
			<point x="248.184" y="674.271"/>
			<point x="338.147" y="674.271" type="curve" smooth="yes"/>
			<point x="413.28" y="674.271"/>
			<point x="460.733" y="618.909"/>
			<point x="460.733" y="531.912" type="curve" smooth="yes"/>
			<point x="460.733" y="386.588"/>
			<point x="333.204" y="257.082"/>
			<point x="191.834" y="257.082" type="curve" smooth="yes"/>
			<point x="73.202" y="257.082"/>
			<point x="-11.818" y="345.067"/>
			<point x="-11.818" y="469.631" type="curve" smooth="yes"/>
			<point x="-11.818" y="674.271"/>
			<point x="173.051" y="853.207"/>
			<point x="383.622" y="853.207" type="curve" smooth="yes"/>
			<point x="473.585" y="853.207"/>
			<point x="556.627" y="816.629"/>
			<point x="645.601" y="816.629" type="curve" smooth="yes"/>
			<point x="728.644" y="816.629"/>
			<point x="780.051" y="847.276"/>
		</contour>
	</outline>
</glyph>
<glyph name="O" format="2">
	<advance width="853"/>
	<unicode hex="004F"/>
	<anchor x="713" y="998" name="top"/>
	<outline>
		<contour>
			<point x="630.772" y="869.025" type="curve" smooth="yes"/>
			<point x="762.256" y="869.025"/>
			<point x="840.356" y="779.062"/>
			<point x="840.356" y="625.829" type="curve" smooth="yes"/>
			<point x="840.356" y="322.329"/>
			<point x="540.81" y="-22.692"/>
			<point x="277.842" y="-22.692" type="curve" smooth="yes"/>
			<point x="122.632" y="-22.692"/>
			<point x="19.818" y="95.94"/>
			<point x="19.818" y="274.876" type="curve" smooth="yes"/>
			<point x="19.818" y="586.285"/>
			<point x="335.181" y="931.307"/>
			<point x="619.898" y="931.307" type="curve"/>
			<point x="622.864" y="936.25"/>
			<point x="620.886" y="940.204"/>
			<point x="613.966" y="943.17" type="curve"/>
			<point x="311.455" y="943.17"/>
			<point x="0.046" y="611"/>
			<point x="0.046" y="288.717" type="curve" smooth="yes"/>
			<point x="0.046" y="91.985"/>
			<point x="114.723" y="-38.51"/>
			<point x="288.717" y="-38.51" type="curve" smooth="yes"/>
			<point x="565.525" y="-38.51"/>
			<point x="859.139" y="294.648"/>
			<point x="859.139" y="608.035" type="curve" smooth="yes"/>
			<point x="859.139" y="780.051"/>
			<point x="772.142" y="881.877"/>
			<point x="625.829" y="881.877" type="curve" smooth="yes"/>
			<point x="431.075" y="881.877"/>
			<point x="248.184" y="701.952"/>
			<point x="248.184" y="512.14" type="curve" smooth="yes"/>
			<point x="248.184" y="399.44"/>
			<point x="311.455" y="325.295"/>
			<point x="408.337" y="325.295" type="curve" smooth="yes"/>
			<point x="523.015" y="325.295"/>
			<point x="635.715" y="430.087"/>
			<point x="635.715" y="535.867" type="curve" smooth="yes"/>
			<point x="635.715" y="562.559"/>
			<point x="627.807" y="585.297"/>
			<point x="610.012" y="611" type="curve"/>
			<point x="603.092" y="612.978"/>
			<point x="599.137" y="610.012"/>
			<point x="600.126" y="602.103" type="curve"/>
			<point x="611" y="582.331"/>
			<point x="615.943" y="563.548"/>
			<point x="615.943" y="541.798" type="curve" smooth="yes"/>
			<point x="615.943" y="437.007"/>
			<point x="516.095" y="338.147"/>
			<point x="409.326" y="338.147" type="curve" smooth="yes"/>
			<point x="323.318" y="338.147"/>
			<point x="269.933" y="402.406"/>
			<point x="269.933" y="506.209" type="curve" smooth="yes"/>
			<point x="269.933" y="695.031"/>
			<point x="443.927" y="869.025"/>
		</contour>
	</outline>
</glyph>
<glyph name="P" format="2">
	<advance width="818"/>
	<unicode hex="0050"/>
	<outline>
		<contour>
			<point x="503" y="922" type="curve" smooth="yes"/>
			<point x="666" y="922"/>
			<point x="845" y="824"/>
			<point x="845" y="642" type="curve" smooth="yes"/>
			<point x="845" y="496"/>
			<point x="728" y="349"/>
			<point x="586" y="349" type="curve" smooth="yes"/>
			<point x="556" y="349"/>
			<point x="531" y="361"/>
			<point x="531" y="377" type="curve"/>
			<point x="530" y="384"/>
			<point x="521" y="383"/>
			<point x="520" y="377" type="curve"/>
			<point x="520" y="354"/>
			<point x="550" y="337"/>
			<point x="586" y="337" type="curve" smooth="yes"/>
			<point x="740" y="337"/>
			<point x="871" y="484"/>
			<point x="871" y="638" type="curve" smooth="yes"/>
			<point x="871" y="834"/>
			<point x="668" y="934"/>
			<point x="497" y="934" type="curve" smooth="yes"/>
			<point x="166" y="934"/>
			<point x="-86" y="673"/>
			<point x="-86" y="452" type="curve" smooth="yes"/>
			<point x="-86" y="309"/>
			<point x="2" y="207"/>
			<point x="122" y="207" type="curve" smooth="yes"/>
			<point x="269" y="207"/>
			<point x="409" y="342"/>
			<point x="409" y="484" type="curve" smooth="yes"/>
			<point x="409" y="573"/>
			<point x="350" y="638"/>
			<point x="268" y="638" type="curve" smooth="yes"/>
			<point x="174" y="638"/>
			<point x="86" y="558"/>
			<point x="86" y="474" type="curve" smooth="yes"/>
			<point x="86" y="450"/>
			<point x="93" y="427"/>
			<point x="107" y="400" type="curve"/>
			<point x="113" y="396"/>
			<point x="118" y="397"/>
			<point x="120" y="405" type="curve"/>
			<point x="110" y="424"/>
			<point x="104" y="447"/>
			<point x="104" y="469" type="curve" smooth="yes"/>
			<point x="104" y="552"/>
			<point x="180" y="626"/>
			<point x="265" y="626" type="curve" smooth="yes"/>
			<point x="339" y="626"/>
			<point x="389" y="569"/>
			<point x="389" y="486" type="curve" smooth="yes"/>
			<point x="389" y="346"/>
			<point x="261" y="219"/>
			<point x="121" y="219" type="curve" smooth="yes"/>
			<point x="9" y="219"/>
			<point x="-67" y="307"/>
			<point x="-67" y="437" type="curve" smooth="yes"/>
			<point x="-67" y="653"/>
			<point x="178" y="922"/>
		</contour>
		<contour>
			<point x="911" y="949" type="curve"/>
			<point x="911" y="966" type="line"/>
			<point x="746" y="966"/>
			<point x="524" y="517"/>
			<point x="436" y="340" type="curve" smooth="yes"/>
			<point x="368" y="204"/>
			<point x="234" y="-15"/>
			<point x="65" y="-15" type="curve" smooth="yes"/>
			<point x="-13" y="-15"/>
			<point x="-63" y="29"/>
			<point x="-63" y="92" type="curve" smooth="yes"/>
			<point x="-63" y="129"/>
			<point x="-45" y="159"/>
			<point x="-16" y="174" type="curve"/>
			<point x="-12" y="180"/>
			<point x="-15" y="183"/>
			<point x="-22" y="183" type="curve"/>
			<point x="-62" y="164"/>
			<point x="-83" y="132"/>
			<point x="-83" y="87" type="curve" smooth="yes"/>
			<point x="-83" y="13"/>
			<point x="-24" y="-29"/>
			<point x="79" y="-29" type="curve" smooth="yes"/>
			<point x="286" y="-29"/>
			<point x="405" y="209"/>
			<point x="480" y="374" type="curve" smooth="yes"/>
			<point x="564" y="547"/>
			<point x="658" y="741"/>
			<point x="781" y="878" type="curve" smooth="yes"/>
			<point x="817" y="918"/>
			<point x="861" y="949"/>
		</contour>
	</outline>
</glyph>
<glyph name="Q" format="2">
	<advance width="920"/>
	<unicode hex="0051"/>
	<outline>
		<contour>
			<point x="747" y="-232" type="curve" smooth="yes"/>
			<point x="621" y="-232"/>
			<point x="482" y="-176"/>
			<point x="312" y="-51" type="curve"/>
			<point x="586" y="-35"/>
			<point x="871" y="260"/>
			<point x="871" y="566" type="curve" smooth="yes"/>
			<point x="871" y="783"/>
			<point x="737" y="933"/>
			<point x="544" y="933" type="curve" smooth="yes"/>
			<point x="289" y="933"/>
			<point x="45" y="705"/>
			<point x="45" y="465" type="curve" smooth="yes"/>
			<point x="45" y="304"/>
			<point x="150" y="189"/>
			<point x="298" y="189" type="curve" smooth="yes"/>
			<point x="476" y="189"/>
			<point x="641" y="344"/>
			<point x="641" y="512" type="curve" smooth="yes"/>
			<point x="641" y="613"/>
			<point x="581" y="681"/>
			<point x="493" y="681" type="curve" smooth="yes"/>
			<point x="393" y="681"/>
			<point x="302" y="595"/>
			<point x="302" y="503" type="curve" smooth="yes"/>
			<point x="302" y="474"/>
			<point x="311" y="449"/>
			<point x="332" y="425" type="curve"/>
			<point x="339" y="425"/>
			<point x="341" y="428"/>
			<point x="340" y="434" type="curve"/>
			<point x="326" y="452"/>
			<point x="320" y="476"/>
			<point x="320" y="500" type="curve" smooth="yes"/>
			<point x="320" y="589"/>
			<point x="400" y="669"/>
			<point x="489" y="669" type="curve" smooth="yes"/>
			<point x="568" y="669"/>
			<point x="619" y="608"/>
			<point x="619" y="514" type="curve" smooth="yes"/>
			<point x="619" y="349"/>
			<point x="468" y="201"/>
			<point x="299" y="201" type="curve" smooth="yes"/>
			<point x="160" y="201"/>
			<point x="63" y="306"/>
			<point x="63" y="455" type="curve" smooth="yes"/>
			<point x="63" y="687"/>
			<point x="305" y="915"/>
			<point x="551" y="915" type="curve" smooth="yes"/>
			<point x="729" y="915"/>
			<point x="845" y="785"/>
			<point x="845" y="585" type="curve" smooth="yes"/>
			<point x="845" y="286"/>
			<point x="568" y="-28"/>
			<point x="296" y="-40" type="curve"/>
			<point x="197" y="18"/>
			<point x="85" y="117"/>
			<point x="-37" y="117" type="curve" smooth="yes"/>
			<point x="-78" y="117"/>
			<point x="-102" y="105"/>
			<point x="-102" y="82" type="curve" smooth="yes"/>
			<point x="-102" y="12"/>
			<point x="84" y="-52"/>
			<point x="289" y="-52" type="curve"/>
			<point x="289" y="-52"/>
			<point x="291" y="-52"/>
			<point x="291" y="-52" type="curve"/>
			<point x="489" y="-191"/>
			<point x="640" y="-256"/>
			<point x="768" y="-256" type="curve" smooth="yes"/>
			<point x="912" y="-256"/>
			<point x="1037" y="-168"/>
			<point x="1037" y="-74" type="curve" smooth="yes"/>
			<point x="1037" y="-65"/>
			<point x="1036" y="-54"/>
			<point x="1032" y="-43" type="curve"/>
			<point x="1026" y="-43"/>
			<point x="1023" y="-43"/>
			<point x="1021" y="-49" type="curve"/>
			<point x="1023" y="-56"/>
			<point x="1024" y="-63"/>
			<point x="1024" y="-70" type="curve" smooth="yes"/>
			<point x="1024" y="-152"/>
			<point x="893" y="-232"/>
		</contour>
		<contour>
			<point x="-43" y="97" type="curve" smooth="yes"/>
			<point x="24" y="97"/>
			<point x="126" y="51"/>
			<point x="272" y="-40" type="curve"/>
			<point x="83" y="-38"/>
			<point x="-85" y="19"/>
			<point x="-85" y="79" type="curve" smooth="yes"/>
			<point x="-85" y="90"/>
			<point x="-70" y="97"/>
		</contour>
	</outline>
</glyph>
<glyph name="R" format="2">
	<advance width="857"/>
	<unicode hex="0052"/>
	<anchor x="793" y="998" name="top"/>
	<outline>
		<contour>
			<point x="64.248" y="-26.647" type="curve" smooth="yes"/>
			<point x="-13.852" y="-26.647"/>
			<point x="-65.259" y="16.852"/>
			<point x="-65.259" y="80.122" type="curve" smooth="yes"/>
			<point x="-65.259" y="116.7"/>
			<point x="-47.464" y="147.347"/>
			<point x="-17.806" y="162.176" type="curve"/>
			<point x="-13.852" y="168.108"/>
			<point x="-16.818" y="171.073"/>
			<point x="-23.738" y="171.073" type="curve"/>
			<point x="-63.282" y="152.29"/>
			<point x="-85.031" y="119.666"/>
			<point x="-85.031" y="75.179" type="curve" smooth="yes"/>
			<point x="-84.042" y="1.034"/>
			<point x="-24.726" y="-40.487"/>
			<point x="78.088" y="-40.487" type="curve" smooth="yes"/>
			<point x="274.819" y="-40.487"/>
			<point x="389.497" y="147.347"/>
			<point x="470.562" y="306.512" type="curve" smooth="yes"/>
			<point x="553.605" y="478.528"/>
			<point x="648.51" y="688.111"/>
			<point x="763.188" y="834.424" type="curve"/>
			<point x="824.481" y="781.04"/>
			<point x="861.059" y="704.917"/>
			<point x="861.059" y="622.864" type="curve" smooth="yes"/>
			<point x="861.059" y="472.596"/>
			<point x="733.53" y="318.375"/>
			<point x="576.342" y="318.375" type="curve"/>
			<point x="573.377" y="306.512" type="line"/>
			<point x="689.043" y="266.968"/>
			<point x="601.057" y="-127.484"/>
			<point x="721.667" y="-248.093" type="curve" smooth="yes"/>
			<point x="738.473" y="-264.899"/>
			<point x="764.176" y="-279.728"/>
			<point x="792.846" y="-279.728" type="curve" smooth="yes"/>
			<point x="812.618" y="-279.728"/>
			<point x="835.356" y="-271.819"/>
			<point x="860.071" y="-249.082" type="curve"/>
			<point x="860.071" y="-242.161"/>
			<point x="858.093" y="-240.184"/>
			<point x="852.162" y="-241.173" type="curve"/>
			<point x="836.344" y="-258.968"/>
			<point x="814.595" y="-266.876"/>
			<point x="793.834" y="-266.876" type="curve" smooth="yes"/>
			<point x="771.097" y="-266.876"/>
			<point x="745.393" y="-257.979"/>
			<point x="729.575" y="-238.207" type="curve" smooth="yes"/>
			<point x="670.259" y="-168.016"/>
			<point x="677.18" y="-19.726"/>
			<point x="671.248" y="70.236" type="curve" smooth="yes"/>
			<point x="664.328" y="167.119"/>
			<point x="662.351" y="262.025"/>
			<point x="601.057" y="304.534" type="curve"/>
			<point x="601.057" y="305.523"/>
			<point x="602.046" y="306.512"/>
			<point x="603.035" y="306.512" type="curve"/>
			<point x="758.245" y="322.329"/>
			<point x="888.74" y="468.642"/>
			<point x="888.74" y="618.909" type="curve" smooth="yes"/>
			<point x="888.74" y="710.849"/>
			<point x="842.276" y="790.926"/>
			<point x="774.062" y="848.264" type="curve"/>
			<point x="812.618" y="895.717"/>
			<point x="876.877" y="950.09"/>
			<point x="936.193" y="950.09" type="curve"/>
			<point x="936.193" y="966.896" type="line"/>
			<point x="881.82" y="966.896"/>
			<point x="821.515" y="922.409"/>
			<point x="763.188" y="854.196" type="curve"/>
			<point x="696.952" y="902.637"/>
			<point x="608.966" y="934.273"/>
			<point x="505.163" y="934.273" type="curve" smooth="yes"/>
			<point x="180.902" y="934.273"/>
			<point x="-74.156" y="670.316"/>
			<point x="-74.156" y="443.927" type="curve" smooth="yes"/>
			<point x="-74.156" y="318.375"/>
			<point x="-0.011" y="193.811"/>
			<point x="139.381" y="193.811" type="curve" smooth="yes"/>
			<point x="285.694" y="193.811"/>
			<point x="423.109" y="327.272"/>
			<point x="423.109" y="468.642" type="curve" smooth="yes"/>
			<point x="423.109" y="552.673"/>
			<point x="370.714" y="624.841"/>
			<point x="280.751" y="624.841" type="curve" smooth="yes"/>
			<point x="186.834" y="624.841"/>
			<point x="100.826" y="545.753"/>
			<point x="100.826" y="461.722" type="curve" smooth="yes"/>
			<point x="100.826" y="437.995"/>
			<point x="107.746" y="414.269"/>
			<point x="121.586" y="387.577" type="curve"/>
			<point x="127.518" y="384.611"/>
			<point x="132.461" y="385.6"/>
			<point x="134.438" y="392.52" type="curve"/>
			<point x="123.564" y="412.292"/>
			<point x="118.621" y="435.03"/>
			<point x="118.621" y="457.767" type="curve" smooth="yes"/>
			<point x="118.621" y="538.833"/>
			<point x="194.743" y="612.978"/>
			<point x="277.785" y="612.978" type="curve" smooth="yes"/>
			<point x="359.839" y="612.978"/>
			<point x="402.349" y="546.741"/>
			<point x="402.349" y="470.619" type="curve" smooth="yes"/>
			<point x="402.349" y="331.227"/>
			<point x="277.785" y="205.674"/>
			<point x="138.393" y="205.674" type="curve" smooth="yes"/>
			<point x="13.829" y="205.674"/>
			<point x="-52.407" y="313.432"/>
			<point x="-52.407" y="428.109" type="curve" smooth="yes"/>
			<point x="-52.407" y="648.567"/>
			<point x="194.743" y="921.421"/>
			<point x="511.095" y="921.421" type="curve" smooth="yes"/>
			<point x="612.921" y="921.421"/>
			<point x="693.986" y="889.786"/>
			<point x="753.302" y="842.333" type="curve"/>
			<point x="654.442" y="720.735"/>
			<point x="552.616" y="524.004"/>
			<point x="472.539" y="367.805" type="curve" smooth="yes"/>
			<point x="392.463" y="213.583"/>
			<point x="258.013" y="-26.647"/>
		</contour>
	</outline>
</glyph>
<glyph name="S" format="2">
	<advance width="766"/>
	<unicode hex="0053"/>
	<anchor x="865" y="998" name="top"/>
	<outline>
		<contour>
			<point x="388.565" y="836.401" type="curve"/>
			<point x="320.352" y="836.401"/>
			<point x="282.785" y="769.176"/>
			<point x="282.785" y="707.883" type="curve" smooth="yes"/>
			<point x="282.785" y="571.456"/>
			<point x="413.28" y="507.197"/>
			<point x="532.901" y="507.197" type="curve" smooth="yes"/>
			<point x="581.342" y="507.197"/>
			<point x="631.761" y="517.083"/>
			<point x="673.282" y="534.878" type="curve"/>
			<point x="666.362" y="422.178"/>
			<point x="657.465" y="304.534"/>
			<point x="616.932" y="208.64" type="curve" smooth="yes"/>
			<point x="550.696" y="49.476"/>
			<point x="407.349" y="-55.316"/>
			<point x="253.127" y="-55.316" type="curve" smooth="yes"/>
			<point x="98.906" y="-55.316"/>
			<point x="-18.738" y="53.43"/>
			<point x="-18.738" y="209.629" type="curve" smooth="yes"/>
			<point x="-18.738" y="359.896"/>
			<point x="103.849" y="494.346"/>
			<point x="242.253" y="494.346" type="curve" smooth="yes"/>
			<point x="331.227" y="494.346"/>
			<point x="411.303" y="436.018"/>
			<point x="411.303" y="341.113" type="curve" smooth="yes"/>
			<point x="411.303" y="257.082"/>
			<point x="341.113" y="177.005"/>
			<point x="265.979" y="177.005" type="curve" smooth="yes"/>
			<point x="219.515" y="177.005"/>
			<point x="180.959" y="209.629"/>
			<point x="179.971" y="249.173" type="curve"/>
			<point x="176.016" y="251.15"/>
			<point x="172.062" y="249.173"/>
			<point x="168.108" y="243.241" type="curve"/>
			<point x="170.085" y="197.766"/>
			<point x="215.56" y="162.176"/>
			<point x="270.922" y="162.176" type="curve" smooth="yes"/>
			<point x="356.93" y="162.176"/>
			<point x="434.041" y="246.207"/>
			<point x="434.041" y="337.158" type="curve" smooth="yes"/>
			<point x="434.041" y="444.916"/>
			<point x="342.101" y="507.197"/>
			<point x="242.253" y="507.197" type="curve" smooth="yes"/>
			<point x="89.02" y="507.197"/>
			<point x="-43.453" y="369.782"/>
			<point x="-43.453" y="213.583" type="curve" smooth="yes"/>
			<point x="-43.453" y="43.544"/>
			<point x="93.963" y="-68.168"/>
			<point x="257.082" y="-68.168" type="curve" smooth="yes"/>
			<point x="413.28" y="-68.168"/>
			<point x="565.525" y="32.669"/>
			<point x="644.613" y="193.811" type="curve" smooth="yes"/>
			<point x="687.123" y="282.785"/>
			<point x="693.054" y="380.657"/>
			<point x="693.054" y="480.505" type="curve" smooth="yes"/>
			<point x="693.054" y="502.254"/>
			<point x="694.043" y="524.992"/>
			<point x="695.031" y="545.753" type="curve"/>
			<point x="809.709" y="604.08"/>
			<point x="898.683" y="737.541"/>
			<point x="898.683" y="847.276" type="curve" smooth="yes"/>
			<point x="898.683" y="901.649"/>
			<point x="875.945" y="937.238"/>
			<point x="842.333" y="937.238" type="curve" smooth="yes"/>
			<point x="807.732" y="937.238"/>
			<point x="768.188" y="905.603"/>
			<point x="738.53" y="854.196" type="curve" smooth="yes"/>
			<point x="702.94" y="790.926"/>
			<point x="685.145" y="709.86"/>
			<point x="674.271" y="552.673" type="curve"/>
			<point x="633.738" y="530.924"/>
			<point x="587.274" y="520.049"/>
			<point x="540.81" y="520.049" type="curve" smooth="yes"/>
			<point x="424.155" y="520.049"/>
			<point x="304.534" y="591.228"/>
			<point x="304.534" y="718.758" type="curve" smooth="yes"/>
			<point x="304.534" y="768.188"/>
			<point x="332.215" y="824.538"/>
			<point x="388.565" y="824.538" type="curve"/>
			<point x="389.554" y="828.492"/>
			<point x="389.554" y="832.447"/>
		</contour>
		<contour>
			<point x="752.37" y="842.333" type="curve" smooth="yes"/>
			<point x="780.051" y="893.74"/>
			<point x="814.652" y="925.375"/>
			<point x="844.31" y="925.375" type="curve" smooth="yes"/>
			<point x="866.059" y="925.375"/>
			<point x="879.9" y="900.66"/>
			<point x="879.9" y="859.139" type="curve" smooth="yes"/>
			<point x="879.9" y="750.393"/>
			<point x="799.823" y="623.852"/>
			<point x="695.031" y="564.536" type="curve"/>
			<point x="701.952" y="700.963"/>
			<point x="715.792" y="778.074"/>
		</contour>
	</outline>
</glyph>
<glyph name="T" format="2">
	<advance width="641"/>
	<unicode hex="0054"/>
	<anchor x="900" y="971" name="top"/>
	<outline>
		<contour>
			<point x="77.145" y="-57.293" type="curve" smooth="yes"/>
			<point x="310.455" y="-57.293"/>
			<point x="429.087" y="199.743"/>
			<point x="515.095" y="382.634" type="curve" smooth="yes"/>
			<point x="587.263" y="538.833"/>
			<point x="682.168" y="744.461"/>
			<point x="822.549" y="777.085" type="curve"/>
			<point x="822.549" y="798.834" type="line"/>
			<point x="669.316" y="748.416"/>
			<point x="552.662" y="514.118"/>
			<point x="471.596" y="349.021" type="curve" smooth="yes"/>
			<point x="392.508" y="196.777"/>
			<point x="258.059" y="-43.453"/>
			<point x="63.305" y="-43.453" type="curve" smooth="yes"/>
			<point x="-20.726" y="-43.453"/>
			<point x="-73.122" y="-2.92"/>
			<point x="-73.122" y="62.327" type="curve" smooth="yes"/>
			<point x="-73.122" y="99.894"/>
			<point x="-52.362" y="130.541"/>
			<point x="-15.783" y="147.347" type="curve"/>
			<point x="-14.795" y="153.279"/>
			<point x="-17.761" y="156.244"/>
			<point x="-24.681" y="156.244" type="curve"/>
			<point x="-64.225" y="136.472"/>
			<point x="-85.974" y="104.837"/>
			<point x="-85.974" y="61.339" type="curve" smooth="yes"/>
			<point x="-85.974" y="-13.795"/>
			<point x="-25.669" y="-57.293"/>
		</contour>
		<contour>
			<point x="1169.548" y="796.857" type="curve" smooth="yes"/>
			<point x="925.364" y="796.857"/>
			<point x="730.61" y="957.01"/>
			<point x="475.551" y="957.01" type="curve" smooth="yes"/>
			<point x="179.959" y="957.01"/>
			<point x="-67.191" y="763.245"/>
			<point x="-67.191" y="531.912" type="curve" smooth="yes"/>
			<point x="-67.191" y="392.52"/>
			<point x="20.795" y="291.683"/>
			<point x="143.381" y="291.683" type="curve" smooth="yes"/>
			<point x="292.66" y="291.683"/>
			<point x="434.03" y="426.132"/>
			<point x="434.03" y="569.479" type="curve" smooth="yes"/>
			<point x="434.03" y="659.442"/>
			<point x="374.714" y="722.712"/>
			<point x="289.694" y="722.712" type="curve" smooth="yes"/>
			<point x="193.8" y="722.712"/>
			<point x="99.883" y="642.636"/>
			<point x="99.883" y="561.57" type="curve" smooth="yes"/>
			<point x="99.883" y="539.821"/>
			<point x="106.803" y="522.026"/>
			<point x="120.643" y="500.277" type="curve"/>
			<point x="126.575" y="496.323"/>
			<point x="131.518" y="497.311"/>
			<point x="133.495" y="505.22" type="curve"/>
			<point x="123.609" y="520.049"/>
			<point x="117.678" y="537.844"/>
			<point x="117.678" y="556.627" type="curve" smooth="yes"/>
			<point x="117.678" y="636.704"/>
			<point x="197.754" y="710.849"/>
			<point x="285.74" y="710.849" type="curve" smooth="yes"/>
			<point x="362.85" y="710.849"/>
			<point x="413.269" y="656.476"/>
			<point x="413.269" y="572.445" type="curve" smooth="yes"/>
			<point x="413.269" y="430.087"/>
			<point x="285.74" y="303.546"/>
			<point x="143.381" y="303.546" type="curve" smooth="yes"/>
			<point x="27.715" y="303.546"/>
			<point x="-50.384" y="390.543"/>
			<point x="-50.384" y="519.061" type="curve" smooth="yes"/>
			<point x="-50.384" y="745.45"/>
			<point x="199.731" y="943.17"/>
			<point x="486.425" y="943.17" type="curve" smooth="yes"/>
			<point x="728.632" y="943.17"/>
			<point x="929.318" y="784.994"/>
			<point x="1170.537" y="784.994" type="curve" smooth="yes"/>
			<point x="1245.67" y="784.994"/>
			<point x="1297.077" y="799.823"/>
			<point x="1340.576" y="832.447" type="curve"/>
			<point x="1341.564" y="838.378"/>
			<point x="1339.587" y="841.344"/>
			<point x="1334.644" y="843.321" type="curve"/>
			<point x="1292.134" y="811.686"/>
			<point x="1241.716" y="796.857"/>
		</contour>
	</outline>
</glyph>
<glyph name="V" format="2">
	<advance width="1015"/>
	<unicode hex="0056"/>
	<outline>
		<contour>
			<point x="877" y="867" type="curve"/>
			<point x="871" y="843" type="line"/>
			<point x="885" y="851"/>
			<point x="904" y="859"/>
			<point x="913" y="859" type="curve" smooth="yes"/>
			<point x="999" y="859"/>
			<point x="1019" y="747"/>
			<point x="1019" y="681" type="curve" smooth="yes"/>
			<point x="1019" y="458"/>
			<point x="837" y="176"/>
			<point x="631" y="62" type="curve" smooth="yes"/>
			<point x="612" y="51"/>
			<point x="584" y="37"/>
			<point x="555" y="22" type="curve"/>
			<point x="658" y="147"/>
			<point x="741" y="363"/>
			<point x="741" y="551" type="curve" smooth="yes"/>
			<point x="741" y="777"/>
			<point x="636" y="945"/>
			<point x="412" y="945" type="curve" smooth="yes"/>
			<point x="172" y="945"/>
			<point x="-38" y="747"/>
			<point x="-38" y="520" type="curve" smooth="yes"/>
			<point x="-38" y="359"/>
			<point x="66" y="239"/>
			<point x="206" y="239" type="curve" smooth="yes"/>
			<point x="359" y="239"/>
			<point x="503" y="379"/>
			<point x="503" y="529" type="curve" smooth="yes"/>
			<point x="503" y="631"/>
			<point x="438" y="703"/>
			<point x="345" y="703" type="curve" smooth="yes"/>
			<point x="250" y="703"/>
			<point x="143" y="622"/>
			<point x="143" y="521" type="curve" smooth="yes"/>
			<point x="143" y="488"/>
			<point x="148" y="456"/>
			<point x="184" y="418" type="curve"/>
			<point x="189" y="416"/>
			<point x="193" y="418"/>
			<point x="194" y="424" type="curve"/>
			<point x="169" y="448"/>
			<point x="165" y="480"/>
			<point x="165" y="513" type="curve" smooth="yes"/>
			<point x="165" y="608"/>
			<point x="247" y="690"/>
			<point x="342" y="690" type="curve" smooth="yes"/>
			<point x="425" y="690"/>
			<point x="478" y="629"/>
			<point x="478" y="531" type="curve" smooth="yes"/>
			<point x="478" y="381"/>
			<point x="352" y="252"/>
			<point x="207" y="252" type="curve" smooth="yes"/>
			<point x="74" y="252"/>
			<point x="-14" y="354"/>
			<point x="-14" y="506" type="curve" smooth="yes"/>
			<point x="-14" y="737"/>
			<point x="185" y="932"/>
			<point x="417" y="932" type="curve" smooth="yes"/>
			<point x="625" y="932"/>
			<point x="714" y="777"/>
			<point x="714" y="559" type="curve" smooth="yes"/>
			<point x="714" y="354"/>
			<point x="632" y="124"/>
			<point x="524" y="6" type="curve"/>
			<point x="492" y="-6"/>
			<point x="433" y="-36"/>
			<point x="433" y="-55" type="curve" smooth="yes"/>
			<point x="433" y="-63"/>
			<point x="437" y="-67"/>
			<point x="447" y="-67" type="curve" smooth="yes"/>
			<point x="476" y="-67"/>
			<point x="517" y="-24"/>
			<point x="534" y="-3" type="curve"/>
			<point x="568" y="15"/>
			<point x="604" y="32"/>
			<point x="638" y="51" type="curve" smooth="yes"/>
			<point x="845" y="172"/>
			<point x="1042" y="431"/>
			<point x="1042" y="663" type="curve" smooth="yes"/>
			<point x="1042" y="743"/>
			<point x="1011" y="873"/>
			<point x="909" y="873" type="curve" smooth="yes"/>
			<point x="899" y="873"/>
			<point x="887" y="871"/>
		</contour>
		<contour>
			<point x="461" y="-51" type="curve" smooth="yes"/>
			<point x="459" y="-51"/>
			<point x="458" y="-50"/>
			<point x="458" y="-48" type="curve" smooth="yes"/>
			<point x="458" y="-39"/>
			<point x="488" y="-22"/>
			<point x="509" y="-12" type="curve"/>
			<point x="493" y="-29"/>
			<point x="471" y="-51"/>
		</contour>
	</outline>
</glyph>
<glyph name="W" format="2">
	<advance width="1339"/>
	<unicode hex="0057"/>
	<outline>
		<contour>
			<point x="912" y="16" type="curve"/>
			<point x="955" y="95"/>
			<point x="965" y="191"/>
			<point x="965" y="292" type="curve" smooth="yes"/>
			<point x="965" y="413"/>
			<point x="937" y="532"/>
			<point x="937" y="652" type="curve" smooth="yes"/>
			<point x="937" y="768"/>
			<point x="986" y="851"/>
			<point x="1053" y="851" type="curve" smooth="yes"/>
			<point x="1101" y="851"/>
			<point x="1131" y="811"/>
			<point x="1131" y="745" type="curve" smooth="yes"/>
			<point x="1131" y="487"/>
			<point x="762" y="138"/>
			<point x="519" y="22" type="curve"/>
			<point x="648" y="166"/>
			<point x="743" y="376"/>
			<point x="743" y="593" type="curve" smooth="yes"/>
			<point x="743" y="797"/>
			<point x="622" y="945"/>
			<point x="412" y="945" type="curve" smooth="yes"/>
			<point x="172" y="945"/>
			<point x="-38" y="747"/>
			<point x="-38" y="520" type="curve" smooth="yes"/>
			<point x="-38" y="359"/>
			<point x="66" y="239"/>
			<point x="206" y="239" type="curve" smooth="yes"/>
			<point x="359" y="239"/>
			<point x="503" y="379"/>
			<point x="503" y="529" type="curve" smooth="yes"/>
			<point x="503" y="631"/>
			<point x="438" y="703"/>
			<point x="345" y="703" type="curve" smooth="yes"/>
			<point x="250" y="703"/>
			<point x="143" y="622"/>
			<point x="143" y="521" type="curve" smooth="yes"/>
			<point x="143" y="488"/>
			<point x="144" y="462"/>
			<point x="180" y="424" type="curve"/>
			<point x="186" y="421"/>
			<point x="190" y="423"/>
			<point x="190" y="430" type="curve"/>
			<point x="165" y="455"/>
			<point x="165" y="480"/>
			<point x="165" y="513" type="curve" smooth="yes"/>
			<point x="165" y="608"/>
			<point x="247" y="690"/>
			<point x="342" y="690" type="curve" smooth="yes"/>
			<point x="425" y="690"/>
			<point x="478" y="629"/>
			<point x="478" y="531" type="curve" smooth="yes"/>
			<point x="478" y="381"/>
			<point x="352" y="252"/>
			<point x="207" y="252" type="curve" smooth="yes"/>
			<point x="74" y="252"/>
			<point x="-14" y="354"/>
			<point x="-14" y="506" type="curve" smooth="yes"/>
			<point x="-14" y="737"/>
			<point x="185" y="932"/>
			<point x="417" y="932" type="curve" smooth="yes"/>
			<point x="610" y="932"/>
			<point x="716" y="798"/>
			<point x="716" y="605" type="curve" smooth="yes"/>
			<point x="716" y="381"/>
			<point x="610" y="144"/>
			<point x="474" y="-1" type="curve"/>
			<point x="467" y="-6"/>
			<point x="454" y="-12"/>
			<point x="439" y="-19" type="curve" smooth="yes"/>
			<point x="406" y="-35"/>
			<point x="368" y="-51"/>
			<point x="368" y="-67" type="curve" smooth="yes"/>
			<point x="368" y="-76"/>
			<point x="373" y="-80"/>
			<point x="386" y="-80" type="curve" smooth="yes"/>
			<point x="428" y="-80"/>
			<point x="464" y="-45"/>
			<point x="487" y="-11" type="curve"/>
			<point x="738" y="104"/>
			<point x="1146" y="462"/>
			<point x="1146" y="737" type="curve" smooth="yes"/>
			<point x="1146" y="815"/>
			<point x="1109" y="865"/>
			<point x="1052" y="865" type="curve" smooth="yes"/>
			<point x="972" y="865"/>
			<point x="912" y="767"/>
			<point x="912" y="634" type="curve" smooth="yes"/>
			<point x="912" y="502"/>
			<point x="940" y="370"/>
			<point x="940" y="237" type="curve" smooth="yes"/>
			<point x="940" y="147"/>
			<point x="920" y="54"/>
			<point x="884" y="-1" type="curve"/>
			<point x="877" y="-6"/>
			<point x="864" y="-12"/>
			<point x="849" y="-19" type="curve" smooth="yes"/>
			<point x="816" y="-35"/>
			<point x="778" y="-51"/>
			<point x="778" y="-67" type="curve" smooth="yes"/>
			<point x="778" y="-76"/>
			<point x="783" y="-80"/>
			<point x="796" y="-80" type="curve" smooth="yes"/>
			<point x="838" y="-80"/>
			<point x="874" y="-45"/>
			<point x="897" y="-11" type="curve"/>
			<point x="1046" y="85"/>
			<point x="1171" y="290"/>
			<point x="1249" y="423" type="curve" smooth="yes"/>
			<point x="1345" y="589"/>
			<point x="1510" y="873"/>
			<point x="1722" y="873" type="curve" smooth="yes"/>
			<point x="1799" y="873"/>
			<point x="1847" y="824"/>
			<point x="1847" y="765" type="curve" smooth="yes"/>
			<point x="1847" y="747"/>
			<point x="1841" y="727"/>
			<point x="1831" y="705" type="curve"/>
			<point x="1832" y="700"/>
			<point x="1835" y="698"/>
			<point x="1840" y="701" type="curve"/>
			<point x="1855" y="727"/>
			<point x="1862" y="750"/>
			<point x="1862" y="771" type="curve" smooth="yes"/>
			<point x="1862" y="838"/>
			<point x="1796" y="886"/>
			<point x="1717" y="886" type="curve" smooth="yes"/>
			<point x="1478" y="886"/>
			<point x="1318" y="595"/>
			<point x="1214" y="406" type="curve" smooth="yes"/>
			<point x="1147" y="283"/>
			<point x="1044" y="106"/>
		</contour>
		<contour>
			<point x="397" y="-65" type="curve" smooth="yes"/>
			<point x="395" y="-65"/>
			<point x="392" y="-65"/>
			<point x="392" y="-63" type="curve" smooth="yes"/>
			<point x="392" y="-54"/>
			<point x="433" y="-38"/>
			<point x="459" y="-25" type="curve"/>
			<point x="442" y="-45"/>
			<point x="419" y="-65"/>
		</contour>
		<contour>
			<point x="807" y="-65" type="curve" smooth="yes"/>
			<point x="805" y="-65"/>
			<point x="802" y="-65"/>
			<point x="802" y="-63" type="curve" smooth="yes"/>
			<point x="802" y="-54"/>
			<point x="842" y="-38"/>
			<point x="869" y="-25" type="curve"/>
			<point x="851" y="-45"/>
			<point x="828" y="-65"/>
		</contour>
	</outline>
</glyph>
<glyph name="X" format="2">
	<advance width="940"/>
	<unicode hex="0058"/>
	<outline>
		<contour>
			<point x="669" y="393" type="curve" smooth="yes"/>
			<point x="667" y="387"/>
			<point x="662" y="384"/>
			<point x="655" y="384" type="curve" smooth="yes"/>
			<point x="526" y="384" type="line"/>
			<point x="526" y="372" type="line"/>
			<point x="653" y="372" type="line" smooth="yes"/>
			<point x="658" y="372"/>
			<point x="659" y="369"/>
			<point x="657" y="365" type="curve" smooth="yes"/>
			<point x="573" y="168"/>
			<point x="405" y="-34"/>
			<point x="191" y="-34" type="curve" smooth="yes"/>
			<point x="124" y="-34"/>
			<point x="36" y="1"/>
			<point x="36" y="81" type="curve" smooth="yes"/>
			<point x="36" y="100"/>
			<point x="43" y="124"/>
			<point x="59" y="138" type="curve"/>
			<point x="59" y="143"/>
			<point x="57" y="146"/>
			<point x="51" y="145" type="curve"/>
			<point x="27" y="128"/>
			<point x="18" y="101"/>
			<point x="18" y="78" type="curve" smooth="yes"/>
			<point x="18" y="-10"/>
			<point x="122" y="-45"/>
			<point x="193" y="-45" type="curve" smooth="yes"/>
			<point x="395" y="-45"/>
			<point x="551" y="107"/>
			<point x="645" y="274" type="curve"/>
			<point x="638" y="236"/>
			<point x="635" y="199"/>
			<point x="635" y="161" type="curve" smooth="yes"/>
			<point x="635" y="-64"/>
			<point x="746" y="-223"/>
			<point x="904" y="-223" type="curve" smooth="yes"/>
			<point x="958" y="-223"/>
			<point x="1054" y="-199"/>
			<point x="1054" y="-130" type="curve"/>
			<point x="1051" y="-126"/>
			<point x="1046" y="-126"/>
			<point x="1041" y="-130" type="curve"/>
			<point x="1042" y="-134"/>
			<point x="1042" y="-137"/>
			<point x="1042" y="-139" type="curve" smooth="yes"/>
			<point x="1042" y="-176"/>
			<point x="977" y="-212"/>
			<point x="907" y="-212" type="curve" smooth="yes"/>
			<point x="762" y="-212"/>
			<point x="660" y="-60"/>
			<point x="660" y="155" type="curve" smooth="yes"/>
			<point x="660" y="226"/>
			<point x="672" y="297"/>
			<point x="693" y="363" type="curve" smooth="yes"/>
			<point x="695" y="368"/>
			<point x="699" y="372"/>
			<point x="706" y="372" type="curve" smooth="yes"/>
			<point x="858" y="372" type="line"/>
			<point x="858" y="384" type="line"/>
			<point x="707" y="384" type="line" smooth="yes"/>
			<point x="701" y="384"/>
			<point x="700" y="386"/>
			<point x="702" y="391" type="curve" smooth="yes"/>
			<point x="790" y="638"/>
			<point x="1011" y="903"/>
			<point x="1292" y="903" type="curve" smooth="yes"/>
			<point x="1364" y="903"/>
			<point x="1453" y="869"/>
			<point x="1453" y="783" type="curve" smooth="yes"/>
			<point x="1453" y="746"/>
			<point x="1435" y="703"/>
			<point x="1396" y="693" type="curve"/>
			<point x="1393" y="687"/>
			<point x="1394" y="684"/>
			<point x="1399" y="682" type="curve"/>
			<point x="1445" y="694"/>
			<point x="1473" y="746"/>
			<point x="1473" y="785" type="curve" smooth="yes"/>
			<point x="1473" y="878"/>
			<point x="1370" y="914"/>
			<point x="1292" y="914" type="curve" smooth="yes"/>
			<point x="1046" y="914"/>
			<point x="854" y="739"/>
			<point x="742" y="539" type="curve"/>
			<point x="746" y="562"/>
			<point x="748" y="585"/>
			<point x="748" y="608" type="curve" smooth="yes"/>
			<point x="748" y="793"/>
			<point x="649" y="934"/>
			<point x="451" y="934" type="curve" smooth="yes"/>
			<point x="195" y="934"/>
			<point x="-25" y="727"/>
			<point x="-25" y="477" type="curve" smooth="yes"/>
			<point x="-25" y="337"/>
			<point x="63" y="236"/>
			<point x="186" y="236" type="curve" smooth="yes"/>
			<point x="335" y="236"/>
			<point x="477" y="371"/>
			<point x="477" y="514" type="curve" smooth="yes"/>
			<point x="477" y="604"/>
			<point x="417" y="667"/>
			<point x="332" y="667" type="curve" smooth="yes"/>
			<point x="242" y="667"/>
			<point x="153" y="582"/>
			<point x="153" y="496" type="curve" smooth="yes"/>
			<point x="153" y="474"/>
			<point x="160" y="457"/>
			<point x="174" y="435" type="curve"/>
			<point x="181" y="431"/>
			<point x="186" y="432"/>
			<point x="187" y="440" type="curve"/>
			<point x="177" y="455"/>
			<point x="171" y="472"/>
			<point x="171" y="491" type="curve" smooth="yes"/>
			<point x="171" y="576"/>
			<point x="246" y="655"/>
			<point x="328" y="655" type="curve" smooth="yes"/>
			<point x="405" y="655"/>
			<point x="456" y="601"/>
			<point x="456" y="517" type="curve" smooth="yes"/>
			<point x="456" y="375"/>
			<point x="328" y="248"/>
			<point x="186" y="248" type="curve" smooth="yes"/>
			<point x="70" y="248"/>
			<point x="-8" y="335"/>
			<point x="-8" y="464" type="curve" smooth="yes"/>
			<point x="-8" y="709"/>
			<point x="202" y="920"/>
			<point x="441" y="920" type="curve" smooth="yes"/>
			<point x="614" y="920"/>
			<point x="720" y="799"/>
			<point x="720" y="630" type="curve" smooth="yes"/>
			<point x="720" y="552"/>
			<point x="698" y="465"/>
		</contour>
	</outline>
</glyph>
<glyph name="Y" format="2">
	<advance width="899"/>
	<unicode hex="0059"/>
	<anchor x="1010" y="971" name="top"/>
	<outline>
		<contour>
			<point x="245.218" y="39.59" type="curve"/>
			<point x="224.458" y="48.487"/>
			<point x="202.709" y="53.43"/>
			<point x="179.971" y="53.43" type="curve" smooth="yes"/>
			<point x="71.225" y="53.43"/>
			<point x="-22.692" y="-36.533"/>
			<point x="-22.692" y="-160.108" type="curve" smooth="yes"/>
			<point x="-22.692" y="-279.728"/>
			<point x="99.894" y="-373.645"/>
			<point x="231.378" y="-373.645" type="curve" smooth="yes"/>
			<point x="410.315" y="-373.645"/>
			<point x="548.719" y="-239.196"/>
			<point x="627.807" y="-82.008" type="curve" smooth="yes"/>
			<point x="707.883" y="81.111"/>
			<point x="740.507" y="264.99"/>
			<point x="812.675" y="432.064" type="curve" smooth="yes"/>
			<point x="858.15" y="537.844"/>
			<point x="916.478" y="636.704"/>
			<point x="1001.497" y="729.632" type="curve" smooth="yes"/>
			<point x="1104.312" y="844.31"/>
			<point x="1207.126" y="924.387"/>
			<point x="1320.815" y="924.387" type="curve" smooth="yes"/>
			<point x="1352.45" y="924.387"/>
			<point x="1411.766" y="906.592"/>
			<point x="1419.675" y="867.048" type="curve"/>
			<point x="1425.607" y="864.082"/>
			<point x="1428.573" y="866.059"/>
			<point x="1430.55" y="874.957" type="curve"/>
			<point x="1422.641" y="920.432"/>
			<point x="1357.393" y="936.25"/>
			<point x="1315.872" y="936.25" type="curve" smooth="yes"/>
			<point x="1191.309" y="936.25"/>
			<point x="1078.608" y="853.207"/>
			<point x="986.668" y="746.439" type="curve" smooth="yes"/>
			<point x="901.649" y="647.579"/>
			<point x="833.435" y="527.958"/>
			<point x="789.937" y="435.03" type="curve" smooth="yes"/>
			<point x="706.895" y="258.07"/>
			<point x="532.901" y="57.384"/>
			<point x="425.144" y="57.384" type="curve" smooth="yes"/>
			<point x="363.85" y="57.384"/>
			<point x="341.113" y="100.883"/>
			<point x="341.113" y="150.313" type="curve" smooth="yes"/>
			<point x="341.113" y="324.306"/>
			<point x="584.308" y="703.929"/>
			<point x="735.564" y="794.88" type="curve" smooth="yes"/>
			<point x="762.256" y="811.686"/>
			<point x="786.971" y="826.515"/>
			<point x="786.971" y="852.219" type="curve" smooth="yes"/>
			<point x="786.971" y="930.318"/>
			<point x="606.057" y="972.828"/>
			<point x="467.653" y="972.828" type="curve" smooth="yes"/>
			<point x="234.344" y="972.828"/>
			<point x="-31.59" y="832.447"/>
			<point x="-31.59" y="592.217" type="curve" smooth="yes"/>
			<point x="-31.59" y="493.357"/>
			<point x="26.738" y="385.6"/>
			<point x="154.267" y="382.634" type="curve"/>
			<point x="282.785" y="382.634"/>
			<point x="408.337" y="495.334"/>
			<point x="408.337" y="628.795" type="curve" smooth="yes"/>
			<point x="408.337" y="714.803"/>
			<point x="346.056" y="759.29"/>
			<point x="276.854" y="759.29" type="curve" smooth="yes"/>
			<point x="188.868" y="759.29"/>
			<point x="104.837" y="686.134"/>
			<point x="104.837" y="612.978" type="curve" smooth="yes"/>
			<point x="104.837" y="591.228"/>
			<point x="112.746" y="572.445"/>
			<point x="122.632" y="551.684" type="curve"/>
			<point x="128.564" y="548.719"/>
			<point x="131.529" y="549.707"/>
			<point x="133.507" y="556.627" type="curve"/>
			<point x="126.586" y="575.411"/>
			<point x="122.632" y="593.206"/>
			<point x="122.632" y="610.012" type="curve" smooth="yes"/>
			<point x="122.632" y="679.214"/>
			<point x="192.823" y="746.439"/>
			<point x="275.865" y="746.439" type="curve" smooth="yes"/>
			<point x="334.192" y="746.439"/>
			<point x="386.588" y="709.86"/>
			<point x="386.588" y="629.784" type="curve" smooth="yes"/>
			<point x="386.588" y="504.232"/>
			<point x="274.876" y="401.417"/>
			<point x="163.165" y="394.497" type="curve"/>
			<point x="40.578" y="396.474"/>
			<point x="-12.806" y="491.38"/>
			<point x="-12.806" y="580.354" type="curve" smooth="yes"/>
			<point x="-12.806" y="767.199"/>
			<point x="184.914" y="959.976"/>
			<point x="468.642" y="959.976" type="curve" smooth="yes"/>
			<point x="610.012" y="959.976"/>
			<point x="768.188" y="917.466"/>
			<point x="768.188" y="852.219" type="curve" smooth="yes"/>
			<point x="768.188" y="832.447"/>
			<point x="745.45" y="819.595"/>
			<point x="723.701" y="803.777" type="curve" smooth="yes"/>
			<point x="565.525" y="686.134"/>
			<point x="321.341" y="368.793"/>
			<point x="321.341" y="166.13" type="curve" smooth="yes"/>
			<point x="321.341" y="101.871"/>
			<point x="345.067" y="42.555"/>
			<point x="420.201" y="42.555" type="curve" smooth="yes"/>
			<point x="521.038" y="42.555"/>
			<point x="673.282" y="198.754"/>
			<point x="772.142" y="372.748" type="curve"/>
			<point x="774.119" y="372.748" type="line"/>
			<point x="712.826" y="219.515"/>
			<point x="666.362" y="55.407"/>
			<point x="590.24" y="-90.906" type="curve" smooth="yes"/>
			<point x="514.118" y="-234.253"/>
			<point x="390.543" y="-359.805"/>
			<point x="227.424" y="-359.805" type="curve" smooth="yes"/>
			<point x="101.871" y="-359.805"/>
			<point x="0.046" y="-271.819"/>
			<point x="0.046" y="-162.085" type="curve" smooth="yes"/>
			<point x="0.046" y="-48.396"/>
			<point x="79.134" y="42.555"/>
			<point x="179.971" y="42.555" type="curve" smooth="yes"/>
			<point x="199.743" y="42.555"/>
			<point x="221.492" y="36.624"/>
			<point x="240.275" y="26.738" type="curve"/>
			<point x="249.173" y="27.726"/>
			<point x="250.161" y="32.669"/>
		</contour>
	</outline>
</glyph>
<glyph name="Z" format="2">
	<advance width="581"/>
	<unicode hex="005A"/>
	<anchor x="762" y="998" name="top"/>
	<outline>
		<contour>
			<point x="381.634" y="655.487" type="curve" smooth="yes"/>
			<point x="269.922" y="655.487"/>
			<point x="164.142" y="562.559"/>
			<point x="164.142" y="463.699" type="curve" smooth="yes"/>
			<point x="164.142" y="429.098"/>
			<point x="176.005" y="390.543"/>
			<point x="213.572" y="375.714" type="curve"/>
			<point x="223.458" y="373.736"/>
			<point x="226.424" y="377.691"/>
			<point x="224.446" y="385.6" type="curve"/>
			<point x="193.8" y="393.508"/>
			<point x="182.925" y="424.155"/>
			<point x="182.925" y="450.847" type="curve" smooth="yes"/>
			<point x="182.925" y="554.65"/>
			<point x="273.876" y="642.636"/>
			<point x="381.634" y="642.636" type="curve" smooth="yes"/>
			<point x="472.585" y="642.636"/>
			<point x="520.038" y="575.411"/>
			<point x="520.038" y="486.437" type="curve" smooth="yes"/>
			<point x="520.038" y="328.261"/>
			<point x="377.679" y="189.857"/>
			<point x="220.492" y="189.857" type="curve" smooth="yes"/>
			<point x="64.293" y="189.857"/>
			<point x="6.954" y="314.42"/>
			<point x="6.954" y="427.121" type="curve" smooth="yes"/>
			<point x="6.954" y="685.145"/>
			<point x="262.013" y="887.808"/>
			<point x="528.935" y="887.808" type="curve" smooth="yes"/>
			<point x="649.544" y="887.808"/>
			<point x="766.199" y="855.185"/>
			<point x="886.808" y="855.185" type="curve" smooth="yes"/>
			<point x="979.737" y="855.185"/>
			<point x="1034.11" y="880.888"/>
			<point x="1034.11" y="920.432" type="curve" smooth="yes"/>
			<point x="1034.11" y="944.159"/>
			<point x="1017.304" y="956.022"/>
			<point x="984.68" y="956.022" type="curve" smooth="yes"/>
			<point x="828.481" y="956.022"/>
			<point x="584.297" y="653.51"/>
			<point x="480.494" y="523.015" type="curve" smooth="yes"/>
			<point x="362.85" y="373.736"/>
			<point x="166.119" y="132.518"/>
			<point x="-2.932" y="49.476" type="curve"/>
			<point x="-35.555" y="58.373"/>
			<point x="-77.077" y="69.248"/>
			<point x="-121.564" y="69.248" type="curve" smooth="yes"/>
			<point x="-148.256" y="69.248"/>
			<point x="-161.108" y="59.362"/>
			<point x="-161.108" y="48.487" type="curve" smooth="yes"/>
			<point x="-161.108" y="35.635"/>
			<point x="-144.301" y="22.783"/>
			<point x="-112.666" y="22.783" type="curve" smooth="yes"/>
			<point x="-75.099" y="22.783"/>
			<point x="-40.498" y="25.749"/>
			<point x="-8.863" y="32.669" type="curve"/>
			<point x="203.686" y="-43.453"/>
			<point x="370.759" y="-237.218"/>
			<point x="610" y="-237.218" type="curve" smooth="yes"/>
			<point x="767.188" y="-237.218"/>
			<point x="864.071" y="-150.222"/>
			<point x="864.071" y="-79.042" type="curve" smooth="yes"/>
			<point x="864.071" y="-71.134"/>
			<point x="863.082" y="-62.236"/>
			<point x="859.128" y="-52.35" type="curve"/>
			<point x="853.196" y="-49.384"/>
			<point x="850.23" y="-51.362"/>
			<point x="848.253" y="-58.282" type="curve"/>
			<point x="850.23" y="-65.202"/>
			<point x="851.219" y="-71.134"/>
			<point x="851.219" y="-76.077" type="curve" smooth="yes"/>
			<point x="851.219" y="-140.336"/>
			<point x="737.53" y="-213.492"/>
			<point x="586.274" y="-213.492" type="curve" smooth="yes"/>
			<point x="352.964" y="-213.492"/>
			<point x="220.492" y="-33.567"/>
			<point x="20.795" y="42.555" type="curve"/>
			<point x="173.039" y="121.643"/>
			<point x="328.249" y="309.477"/>
			<point x="469.619" y="488.414" type="curve" smooth="yes"/>
			<point x="551.673" y="592.217"/>
			<point x="832.435" y="935.261"/>
			<point x="969.851" y="935.261" type="curve" smooth="yes"/>
			<point x="991.6" y="935.261"/>
			<point x="1004.452" y="927.352"/>
			<point x="1004.452" y="913.512" type="curve" smooth="yes"/>
			<point x="1004.452" y="885.831"/>
			<point x="958.976" y="868.036"/>
			<point x="884.831" y="868.036" type="curve" smooth="yes"/>
			<point x="761.256" y="868.036"/>
			<point x="640.647" y="903.626"/>
			<point x="517.072" y="903.626" type="curve" smooth="yes"/>
			<point x="251.139" y="903.626"/>
			<point x="-14.795" y="709.86"/>
			<point x="-14.795" y="445.904" type="curve" smooth="yes"/>
			<point x="-14.795" y="318.375"/>
			<point x="52.43" y="177.005"/>
			<point x="219.503" y="177.005" type="curve" smooth="yes"/>
			<point x="379.657" y="177.005"/>
			<point x="541.787" y="317.386"/>
			<point x="541.787" y="483.471" type="curve" smooth="yes"/>
			<point x="541.787" y="580.354"/>
			<point x="477.528" y="655.487"/>
		</contour>
		<contour>
			<point x="-112.666" y="36.624" type="curve" smooth="yes"/>
			<point x="-129.472" y="36.624"/>
			<point x="-136.393" y="40.578"/>
			<point x="-136.393" y="44.533" type="curve" smooth="yes"/>
			<point x="-136.393" y="48.487"/>
			<point x="-127.495" y="53.43"/>
			<point x="-112.666" y="53.43" type="curve" smooth="yes"/>
			<point x="-89.928" y="53.43"/>
			<point x="-67.191" y="49.476"/>
			<point x="-43.464" y="42.555" type="curve"/>
			<point x="-65.213" y="38.601"/>
			<point x="-88.94" y="36.624"/>
		</contour>
	</outline>
</glyph>
<glyph name="bracketleft" format="2">
	<advance width="402"/>
	<unicode hex="005B"/>
	<outline>
		<contour>
			<point x="426" y="893" type="line"/>
			<point x="-95" y="-292" type="line"/>
			<point x="60" y="-292" type="line"/>
			<point x="66" y="-280" type="line"/>
			<point x="-64" y="-280" type="line"/>
			<point x="447" y="881" type="line"/>
			<point x="576" y="881" type="line"/>
			<point x="582" y="893" type="line"/>
		</contour>
	</outline>
</glyph>
<glyph name="backslash" format="2">
	<advance width="550"/>
	<unicode hex="005C"/>
	<outline>
		<contour>
			<point x="343" y="-120" type="curve"/>
			<point x="362" y="-120" type="line"/>
			<point x="362" y="-120"/>
			<point x="313" y="116"/>
			<point x="271" y="338" type="curve" smooth="yes"/>
			<point x="230" y="555"/>
			<point x="190" y="772"/>
			<point x="190" y="772" type="curve"/>
			<point x="172" y="774" type="line"/>
			<point x="172" y="774"/>
			<point x="218" y="557"/>
			<point x="258" y="338" type="curve" smooth="yes"/>
			<point x="301" y="114"/>
			<point x="343" y="-120"/>
		</contour>
	</outline>
</glyph>
<glyph name="bracketright" format="2">
	<advance width="402"/>
	<unicode hex="005D"/>
	<outline>
		<contour>
			<point x="-70" y="-292" type="line"/>
			<point x="451" y="893" type="line"/>
			<point x="296" y="893" type="line"/>
			<point x="290" y="881" type="line"/>
			<point x="420" y="881" type="line"/>
			<point x="-91" y="-280" type="line"/>
			<point x="-220" y="-280" type="line"/>
			<point x="-226" y="-292" type="line"/>
		</contour>
	</outline>
</glyph>
<glyph name="asciicircum" format="2">
	<advance width="600"/>
	<unicode hex="005E"/>
	<outline>
		<contour>
			<point x="79" y="211" type="curve"/>
			<point x="374" y="492" type="line"/>
			<point x="476" y="220" type="line"/>
			<point x="481" y="217"/>
			<point x="486" y="221"/>
			<point x="487" y="226" type="curve"/>
			<point x="393" y="536" type="line"/>
			<point x="71" y="220" type="line"/>
			<point x="71" y="213"/>
			<point x="73" y="210"/>
		</contour>
	</outline>
</glyph>
<glyph name="underscore" format="2">
	<advance width="361"/>
	<unicode hex="005F"/>
	<outline>
		<contour>
			<point x="-51" y="13" type="curve"/>
			<point x="-51" y="0" type="line"/>
			<point x="-51" y="0"/>
			<point x="237" y="0"/>
			<point x="237" y="0" type="curve"/>
			<point x="237" y="13" type="line"/>
			<point x="237" y="13"/>
			<point x="-51" y="13"/>
		</contour>
	</outline>
</glyph>
<glyph name="grave" format="2">
	<advance width="257"/>
	<unicode hex="0060"/>
	<anchor x="165" y="694" name="_top"/>
	<outline>
		<contour>
			<point x="106" y="825" type="curve"/>
			<point x="243" y="684" type="line"/>
			<point x="250" y="692" type="line"/>
			<point x="132" y="846" type="line"/>
			<point x="116" y="870"/>
			<point x="85" y="842"/>
		</contour>
	</outline>
</glyph>
<glyph name="a" format="2">
	<advance width="436"/>
	<unicode hex="0061"/>
	<anchor x="307" y="638" name="top"/>
	<outline>
		<contour>
			<point x="268.194" y="550.133" type="curve" smooth="yes"/>
			<point x="294.811" y="550.133"/>
			<point x="309.598" y="532.389"/>
			<point x="309.598" y="501.829" type="curve" smooth="yes"/>
			<point x="309.598" y="464.369"/>
			<point x="285.939" y="415.079"/>
			<point x="257.351" y="387.476" type="curve"/>
			<point x="253.407" y="382.547"/>
			<point x="254.393" y="377.618"/>
			<point x="260.308" y="374.661" type="curve"/>
			<point x="292.839" y="406.206"/>
			<point x="325.371" y="456.482"/>
			<point x="325.371" y="500.843" type="curve" smooth="yes"/>
			<point x="325.371" y="538.304"/>
			<point x="301.712" y="562.949"/>
			<point x="266.223" y="562.949" type="curve" smooth="yes"/>
			<point x="177.501" y="562.949"/>
			<point x="60.191" y="421.979"/>
			<point x="0.057" y="281.996" type="curve" smooth="yes"/>
			<point x="-26.56" y="218.904"/>
			<point x="-40.361" y="159.756"/>
			<point x="-40.361" y="106.523" type="curve" smooth="yes"/>
			<point x="-40.361" y="41.46"/>
			<point x="-15.716" y="0.057"/>
			<point x="24.702" y="0.057" type="curve" smooth="yes"/>
			<point x="98.637" y="0.057"/>
			<point x="173.558" y="95.679"/>
			<point x="218.904" y="185.387" type="curve"/>
			<point x="217.919" y="197.217" type="line"/>
			<point x="190.316" y="142.012"/>
			<point x="181.444" y="99.623"/>
			<point x="181.444" y="70.049" type="curve" smooth="yes"/>
			<point x="181.444" y="22.73"/>
			<point x="206.089" y="0.057"/>
			<point x="237.635" y="0.057" type="curve" smooth="yes"/>
			<point x="304.669" y="0.057"/>
			<point x="378.604" y="108.495"/>
			<point x="441.695" y="276.081" type="curve"/>
			<point x="441.695" y="281.996"/>
			<point x="437.752" y="285.939"/>
			<point x="431.837" y="281.996" type="curve"/>
			<point x="370.718" y="124.268"/>
			<point x="298.754" y="11.886"/>
			<point x="237.635" y="11.886" type="curve" smooth="yes"/>
			<point x="212.004" y="11.886"/>
			<point x="198.203" y="32.588"/>
			<point x="198.203" y="67.091" type="curve" smooth="yes"/>
			<point x="198.203" y="94.694"/>
			<point x="208.061" y="135.111"/>
			<point x="228.762" y="177.501" type="curve" smooth="yes"/>
			<point x="407.192" y="550.133" type="line"/>
			<point x="378.604" y="550.133" type="line"/>
			<point x="235.663" y="244.535" type="line" smooth="yes"/>
			<point x="184.401" y="133.14"/>
			<point x="103.566" y="13.858"/>
			<point x="26.673" y="13.858" type="curve" smooth="yes"/>
			<point x="-4.872" y="13.858"/>
			<point x="-18.673" y="43.432"/>
			<point x="-18.673" y="93.708" type="curve" smooth="yes"/>
			<point x="-18.673" y="145.955"/>
			<point x="-1.915" y="210.032"/>
			<point x="23.716" y="270.166" type="curve" smooth="yes"/>
			<point x="83.85" y="410.15"/>
			<point x="195.245" y="550.133"/>
		</contour>
	</outline>
</glyph>
<glyph name="b" format="2">
	<advance width="376"/>
	<unicode hex="0062"/>
	<outline>
		<contour>
			<point x="-13" y="0" type="curve" smooth="yes"/>
			<point x="82" y="0"/>
			<point x="157" y="102"/>
			<point x="202" y="174" type="curve"/>
			<point x="214" y="168"/>
			<point x="229" y="165"/>
			<point x="245" y="165" type="curve" smooth="yes"/>
			<point x="303" y="165"/>
			<point x="353" y="207"/>
			<point x="388" y="276" type="curve"/>
			<point x="388" y="281"/>
			<point x="384" y="283"/>
			<point x="378" y="282" type="curve"/>
			<point x="346" y="219"/>
			<point x="300" y="177"/>
			<point x="247" y="177" type="curve" smooth="yes"/>
			<point x="233" y="177"/>
			<point x="220" y="179"/>
			<point x="210" y="184" type="curve"/>
			<point x="263" y="269"/>
			<point x="329" y="393"/>
			<point x="329" y="497" type="curve" smooth="yes"/>
			<point x="329" y="536"/>
			<point x="318" y="563"/>
			<point x="296" y="563" type="curve" smooth="yes"/>
			<point x="240" y="563"/>
			<point x="149" y="385"/>
			<point x="149" y="276" type="curve" smooth="yes"/>
			<point x="149" y="239"/>
			<point x="159" y="203"/>
			<point x="183" y="184" type="curve"/>
			<point x="119" y="77"/>
			<point x="50" y="13"/>
			<point x="-12" y="13" type="curve" smooth="yes"/>
			<point x="-35" y="13"/>
			<point x="-54" y="41"/>
			<point x="-54" y="82" type="curve" smooth="yes"/>
			<point x="-54" y="103"/>
			<point x="-49" y="127"/>
			<point x="-37" y="152" type="curve" smooth="yes"/>
			<point x="341" y="965" type="line"/>
			<point x="313" y="965" type="line"/>
			<point x="0" y="282" type="line"/>
			<point x="-54" y="165" type="line"/>
			<point x="-66" y="137"/>
			<point x="-71" y="111"/>
			<point x="-71" y="89" type="curve" smooth="yes"/>
			<point x="-71" y="39"/>
			<point x="-47" y="0"/>
		</contour>
		<contour>
			<point x="163" y="273" type="curve" smooth="yes"/>
			<point x="163" y="376"/>
			<point x="247" y="550"/>
			<point x="296" y="550" type="curve" smooth="yes"/>
			<point x="308" y="550"/>
			<point x="314" y="534"/>
			<point x="314" y="512" type="curve" smooth="yes"/>
			<point x="314" y="422"/>
			<point x="235" y="272"/>
			<point x="189" y="196" type="curve"/>
			<point x="170" y="213"/>
			<point x="163" y="243"/>
		</contour>
	</outline>
</glyph>
<glyph name="c" format="2">
	<advance width="325"/>
	<unicode hex="0063"/>
	<anchor x="292" y="638" name="top"/>
	<outline>
		<contour>
			<point x="260.308" y="562.949" type="curve" smooth="yes"/>
			<point x="173.558" y="562.949"/>
			<point x="57.233" y="428.88"/>
			<point x="0.057" y="281.996" type="curve" smooth="yes"/>
			<point x="-21.631" y="227.777"/>
			<point x="-34.446" y="171.586"/>
			<point x="-34.446" y="119.339" type="curve" smooth="yes"/>
			<point x="-34.446" y="44.418"/>
			<point x="6.957" y="0.057"/>
			<point x="71.034" y="0.057" type="curve" smooth="yes"/>
			<point x="176.515" y="0.057"/>
			<point x="275.095" y="122.296"/>
			<point x="339.172" y="276.081" type="curve"/>
			<point x="339.172" y="281.996"/>
			<point x="335.229" y="282.981"/>
			<point x="329.314" y="281.996" type="curve"/>
			<point x="268.194" y="134.126"/>
			<point x="171.586" y="13.858"/>
			<point x="71.034" y="13.858" type="curve" smooth="yes"/>
			<point x="20.759" y="13.858"/>
			<point x="-12.759" y="50.333"/>
			<point x="-12.759" y="113.424" type="curve" smooth="yes"/>
			<point x="-12.759" y="281.01"/>
			<point x="150.884" y="550.133"/>
			<point x="263.265" y="550.133" type="curve" smooth="yes"/>
			<point x="291.854" y="550.133"/>
			<point x="306.641" y="529.431"/>
			<point x="306.641" y="503.801" type="curve" smooth="yes"/>
			<point x="306.641" y="437.752"/>
			<point x="258.336" y="341.144"/>
			<point x="199.188" y="341.144" type="curve" smooth="yes"/>
			<point x="176.515" y="341.144"/>
			<point x="169.614" y="357.902"/>
			<point x="169.614" y="376.632" type="curve" smooth="yes"/>
			<point x="169.614" y="396.348"/>
			<point x="178.487" y="420.993"/>
			<point x="188.345" y="433.809" type="curve"/>
			<point x="188.345" y="441.695"/>
			<point x="185.387" y="443.667"/>
			<point x="177.501" y="439.724" type="curve"/>
			<point x="162.714" y="422.965"/>
			<point x="152.856" y="397.334"/>
			<point x="152.856" y="375.647" type="curve" smooth="yes"/>
			<point x="152.856" y="351.002"/>
			<point x="165.671" y="329.314"/>
			<point x="199.188" y="329.314" type="curve" smooth="yes"/>
			<point x="263.265" y="329.314"/>
			<point x="326.357" y="424.937"/>
			<point x="326.357" y="491.971" type="curve" smooth="yes"/>
			<point x="326.357" y="527.46"/>
			<point x="303.683" y="562.949"/>
		</contour>
	</outline>
</glyph>
<glyph name="d" format="2">
	<advance width="436"/>
	<unicode hex="0064"/>
	<outline>
		<contour>
			<point x="268" y="550" type="curve" smooth="yes"/>
			<point x="295" y="550"/>
			<point x="310" y="532"/>
			<point x="310" y="502" type="curve" smooth="yes"/>
			<point x="310" y="464"/>
			<point x="286" y="415"/>
			<point x="257" y="387" type="curve" smooth="yes"/>
			<point x="253" y="383"/>
			<point x="254" y="378"/>
			<point x="260" y="375" type="curve"/>
			<point x="293" y="406"/>
			<point x="325" y="456"/>
			<point x="325" y="501" type="curve" smooth="yes"/>
			<point x="325" y="538"/>
			<point x="302" y="563"/>
			<point x="266" y="563" type="curve" smooth="yes"/>
			<point x="177" y="563"/>
			<point x="62" y="426"/>
			<point x="0" y="282" type="curve" smooth="yes"/>
			<point x="-26" y="221"/>
			<point x="-42" y="163"/>
			<point x="-42" y="108" type="curve" smooth="yes"/>
			<point x="-42" y="43"/>
			<point x="-16" y="0"/>
			<point x="25" y="0" type="curve" smooth="yes"/>
			<point x="101" y="0"/>
			<point x="176" y="98"/>
			<point x="222" y="190" type="curve"/>
			<point x="216" y="194" type="line"/>
			<point x="190" y="141"/>
			<point x="181" y="101"/>
			<point x="181" y="70" type="curve" smooth="yes"/>
			<point x="181" y="22"/>
			<point x="206" y="0"/>
			<point x="238" y="0" type="curve" smooth="yes"/>
			<point x="307" y="0"/>
			<point x="381" y="110"/>
			<point x="447" y="276" type="curve"/>
			<point x="447" y="282"/>
			<point x="441" y="282"/>
			<point x="437" y="282" type="curve"/>
			<point x="374" y="124"/>
			<point x="301" y="12"/>
			<point x="238" y="12" type="curve" smooth="yes"/>
			<point x="213" y="12"/>
			<point x="198" y="34"/>
			<point x="198" y="67" type="curve" smooth="yes"/>
			<point x="198" y="96"/>
			<point x="208" y="134"/>
			<point x="229" y="177" type="curve" smooth="yes"/>
			<point x="595" y="965" type="line"/>
			<point x="566" y="965" type="line"/>
			<point x="236" y="245" type="line" smooth="yes"/>
			<point x="185" y="135"/>
			<point x="103" y="14"/>
			<point x="27" y="14" type="curve" smooth="yes"/>
			<point x="-4" y="14"/>
			<point x="-19" y="44"/>
			<point x="-19" y="94" type="curve" smooth="yes"/>
			<point x="-19" y="269"/>
			<point x="154" y="550"/>
		</contour>
	</outline>
</glyph>
<glyph name="e" format="2">
	<advance width="325"/>
	<unicode hex="0065"/>
	<anchor x="288" y="638" name="top"/>
	<outline>
		<contour>
			<point x="320.442" y="281.996" type="curve"/>
			<point x="261.294" y="132.154"/>
			<point x="168.629" y="13.858"/>
			<point x="71.034" y="13.858" type="curve" smooth="yes"/>
			<point x="20.759" y="13.858"/>
			<point x="-12.759" y="50.333"/>
			<point x="-12.759" y="113.424" type="curve" smooth="yes"/>
			<point x="-12.759" y="281.01"/>
			<point x="150.884" y="550.133"/>
			<point x="263.265" y="550.133" type="curve" smooth="yes"/>
			<point x="290.868" y="550.133"/>
			<point x="306.641" y="532.389"/>
			<point x="306.641" y="501.829" type="curve" smooth="yes"/>
			<point x="306.641" y="421.979"/>
			<point x="205.103" y="311.57"/>
			<point x="133.14" y="311.57" type="curve" smooth="yes"/>
			<point x="98.637" y="311.57"/>
			<point x="73.992" y="334.243"/>
			<point x="73.992" y="364.803" type="curve" smooth="yes"/>
			<point x="73.992" y="373.675"/>
			<point x="75.963" y="383.533"/>
			<point x="80.892" y="395.363" type="curve"/>
			<point x="74.978" y="399.306" type="line"/>
			<point x="69.063" y="392.405" type="line"/>
			<point x="63.148" y="381.561"/>
			<point x="61.176" y="371.703"/>
			<point x="61.176" y="361.845" type="curve" smooth="yes"/>
			<point x="61.176" y="326.357"/>
			<point x="92.722" y="298.754"/>
			<point x="135.111" y="298.754" type="curve" smooth="yes"/>
			<point x="221.862" y="298.754"/>
			<point x="324.385" y="413.107"/>
			<point x="324.385" y="494.928" type="curve" smooth="yes"/>
			<point x="324.385" y="535.346"/>
			<point x="298.754" y="562.949"/>
			<point x="260.308" y="562.949" type="curve" smooth="yes"/>
			<point x="173.558" y="562.949"/>
			<point x="57.233" y="429.866"/>
			<point x="0.057" y="282.981" type="curve" smooth="yes"/>
			<point x="-21.631" y="228.762"/>
			<point x="-34.446" y="171.586"/>
			<point x="-34.446" y="119.339" type="curve" smooth="yes"/>
			<point x="-34.446" y="44.418"/>
			<point x="6.957" y="0.057"/>
			<point x="71.034" y="0.057" type="curve" smooth="yes"/>
			<point x="173.558" y="0.057"/>
			<point x="268.194" y="120.324"/>
			<point x="330.3" y="276.081" type="curve"/>
			<point x="330.3" y="284.953"/>
			<point x="328.328" y="288.896"/>
		</contour>
	</outline>
</glyph>
<glyph name="f" format="2">
	<advance width="213"/>
	<unicode hex="0066"/>
	<outline>
		<contour>
			<point x="531" y="978" type="curve" smooth="yes"/>
			<point x="572" y="978"/>
			<point x="600" y="942"/>
			<point x="600" y="903" type="curve" smooth="yes"/>
			<point x="600" y="748"/>
			<point x="343" y="589"/>
			<point x="183" y="589" type="curve" smooth="yes"/>
			<point x="58" y="589"/>
			<point x="-69" y="662"/>
			<point x="-69" y="801" type="curve" smooth="yes"/>
			<point x="-69" y="911"/>
			<point x="8" y="1005"/>
			<point x="125" y="1005" type="curve" smooth="yes"/>
			<point x="179" y="1005"/>
			<point x="233" y="968"/>
			<point x="233" y="905" type="curve" smooth="yes"/>
			<point x="233" y="837"/>
			<point x="182" y="788"/>
			<point x="120" y="788" type="curve" smooth="yes"/>
			<point x="107" y="788"/>
			<point x="71" y="788"/>
			<point x="56" y="813" type="curve"/>
			<point x="50" y="816"/>
			<point x="46" y="814"/>
			<point x="44" y="807" type="curve"/>
			<point x="66" y="775"/>
			<point x="106" y="776"/>
			<point x="120" y="776" type="curve" smooth="yes"/>
			<point x="188" y="776"/>
			<point x="249" y="827"/>
			<point x="249" y="903" type="curve" smooth="yes"/>
			<point x="249" y="977"/>
			<point x="187" y="1016"/>
			<point x="125" y="1016" type="curve" smooth="yes"/>
			<point x="1" y="1016"/>
			<point x="-91" y="924"/>
			<point x="-91" y="804" type="curve" smooth="yes"/>
			<point x="-91" y="659"/>
			<point x="55" y="577"/>
			<point x="184" y="577" type="curve" smooth="yes"/>
			<point x="347" y="577"/>
			<point x="617" y="725"/>
			<point x="617" y="895" type="curve" smooth="yes"/>
			<point x="617" y="942"/>
			<point x="586" y="990"/>
			<point x="533" y="990" type="curve" smooth="yes"/>
			<point x="392" y="990"/>
			<point x="242" y="796"/>
			<point x="129" y="565" type="curve" smooth="yes"/>
			<point x="96" y="496" type="line" smooth="yes"/>
			<point x="93" y="490"/>
			<point x="90" y="488"/>
			<point x="84" y="488" type="curve" smooth="yes"/>
			<point x="15" y="488" type="line"/>
			<point x="15" y="476" type="line"/>
			<point x="82" y="476" type="line" smooth="yes"/>
			<point x="85" y="476"/>
			<point x="86" y="475"/>
			<point x="84" y="472" type="curve" smooth="yes"/>
			<point x="52" y="410"/>
			<point x="29" y="345"/>
			<point x="0" y="282" type="curve"/>
			<point x="-36" y="197" type="line" smooth="yes"/>
			<point x="-135" y="-36"/>
			<point x="-296" y="-424"/>
			<point x="-505" y="-424" type="curve" smooth="yes"/>
			<point x="-548" y="-424"/>
			<point x="-585" y="-403"/>
			<point x="-585" y="-356" type="curve" smooth="yes"/>
			<point x="-585" y="-328"/>
			<point x="-565" y="-301"/>
			<point x="-543" y="-299" type="curve"/>
			<point x="-553" y="-290" type="line"/>
			<point x="-578" y="-293"/>
			<point x="-603" y="-325"/>
			<point x="-603" y="-354" type="curve" smooth="yes"/>
			<point x="-602" y="-418"/>
			<point x="-545" y="-437"/>
			<point x="-493" y="-437" type="curve" smooth="yes"/>
			<point x="-387" y="-437"/>
			<point x="-301" y="-358"/>
			<point x="-231" y="-255" type="curve" smooth="yes"/>
			<point x="-136" y="-118"/>
			<point x="-65" y="59"/>
			<point x="4" y="230" type="curve" smooth="yes"/>
			<point x="37" y="313"/>
			<point x="70" y="393"/>
			<point x="104" y="468" type="curve"/>
			<point x="106" y="474"/>
			<point x="109" y="476"/>
			<point x="115" y="476" type="curve" smooth="yes"/>
			<point x="254" y="476" type="line"/>
			<point x="254" y="488" type="line"/>
			<point x="117" y="488" type="line" smooth="yes"/>
			<point x="114" y="488"/>
			<point x="113" y="489"/>
			<point x="115" y="492" type="curve"/>
			<point x="123" y="512"/>
			<point x="135" y="534"/>
			<point x="145" y="555" type="curve"/>
			<point x="256" y="776"/>
			<point x="400" y="978"/>
		</contour>
	</outline>
</glyph>
<glyph name="h" format="2">
	<advance width="449"/>
	<unicode hex="0068"/>
	<outline>
		<contour>
			<point x="592" y="934" type="curve" smooth="yes"/>
			<point x="592" y="819"/>
			<point x="334" y="654"/>
			<point x="235" y="586" type="curve"/>
			<point x="258" y="649"/>
			<point x="291" y="740"/>
			<point x="336" y="818" type="curve" smooth="yes"/>
			<point x="398" y="929"/>
			<point x="467" y="986"/>
			<point x="532" y="986" type="curve" smooth="yes"/>
			<point x="569" y="986"/>
			<point x="592" y="966"/>
		</contour>
		<contour>
			<point x="318" y="299" type="curve" smooth="yes"/>
			<point x="373" y="369"/>
			<point x="418" y="442"/>
			<point x="418" y="510" type="curve" smooth="yes"/>
			<point x="418" y="553"/>
			<point x="393" y="582"/>
			<point x="358" y="582" type="curve" smooth="yes"/>
			<point x="306" y="582"/>
			<point x="235" y="510"/>
			<point x="168" y="422" type="curve" smooth="yes"/>
			<point x="83" y="312"/>
			<point x="5" y="177"/>
			<point x="-19" y="125" type="curve" smooth="yes"/>
			<point x="-22" y="119"/>
			<point x="-24" y="113"/>
			<point x="-27" y="106" type="curve" smooth="yes"/>
			<point x="-41" y="73"/>
			<point x="-55" y="32"/>
			<point x="-55" y="15" type="curve" smooth="yes"/>
			<point x="-55" y="6"/>
			<point x="-51" y="0"/>
			<point x="-43" y="0" type="curve" smooth="yes"/>
			<point x="-27" y="0"/>
			<point x="10" y="48"/>
			<point x="72" y="187" type="curve" smooth="yes"/>
			<point x="165" y="397" type="line"/>
			<point x="180" y="433"/>
			<point x="195" y="472"/>
			<point x="208" y="511" type="curve" smooth="yes"/>
			<point x="214" y="528"/>
			<point x="221" y="546"/>
			<point x="225" y="563" type="curve"/>
			<point x="340" y="653"/>
			<point x="602" y="773"/>
			<point x="602" y="931" type="curve" smooth="yes"/>
			<point x="602" y="975"/>
			<point x="575" y="1000"/>
			<point x="526" y="1000" type="curve" smooth="yes"/>
			<point x="435" y="1000"/>
			<point x="367" y="928"/>
			<point x="317" y="838" type="curve" smooth="yes"/>
			<point x="267" y="749"/>
			<point x="235" y="642"/>
			<point x="214" y="569" type="curve"/>
			<point x="137" y="508"/>
			<point x="63" y="426"/>
			<point x="0" y="282" type="curve"/>
			<point x="1" y="277"/>
			<point x="4" y="275"/>
			<point x="11" y="276" type="curve"/>
			<point x="69" y="410"/>
			<point x="134" y="486"/>
			<point x="206" y="546" type="curve"/>
			<point x="201" y="531"/>
			<point x="198" y="525"/>
			<point x="193" y="511" type="curve" smooth="yes"/>
			<point x="180" y="476"/>
			<point x="166" y="442"/>
			<point x="151" y="409" type="curve" smooth="yes"/>
			<point x="130" y="362"/>
			<point x="108" y="316"/>
			<point x="85" y="270" type="curve" smooth="yes"/>
			<point x="73" y="246"/>
			<point x="60" y="220"/>
			<point x="48" y="196" type="curve" smooth="yes"/>
			<point x="31" y="159"/>
			<point x="16" y="129"/>
			<point x="4" y="105" type="curve" smooth="yes"/>
			<point x="2" y="100"/>
			<point x="0" y="95"/>
			<point x="-2" y="91" type="curve" smooth="yes"/>
			<point x="-34" y="26"/>
			<point x="-40" y="13"/>
			<point x="-43" y="13" type="curve" smooth="yes"/>
			<point x="-49" y="13"/>
			<point x="-27" y="81"/>
			<point x="-10" y="117" type="curve" smooth="yes"/>
			<point x="26" y="194"/>
			<point x="85" y="283"/>
			<point x="132" y="352" type="curve" smooth="yes"/>
			<point x="141" y="366"/>
			<point x="154" y="384"/>
			<point x="168" y="404" type="curve" smooth="yes"/>
			<point x="220" y="476"/>
			<point x="299" y="569"/>
			<point x="358" y="569" type="curve" smooth="yes"/>
			<point x="385" y="569"/>
			<point x="403" y="549"/>
			<point x="403" y="519" type="curve" smooth="yes"/>
			<point x="403" y="463"/>
			<point x="362" y="402"/>
			<point x="314" y="338" type="curve" smooth="yes"/>
			<point x="306" y="327"/>
			<point x="297" y="315"/>
			<point x="289" y="303" type="curve" smooth="yes"/>
			<point x="242" y="238"/>
			<point x="196" y="162"/>
			<point x="196" y="83" type="curve" smooth="yes"/>
			<point x="196" y="38"/>
			<point x="221" y="0"/>
			<point x="251" y="0" type="curve" smooth="yes"/>
			<point x="319" y="0"/>
			<point x="393" y="111"/>
			<point x="459" y="276" type="curve"/>
			<point x="459" y="282"/>
			<point x="456" y="285"/>
			<point x="449" y="282" type="curve"/>
			<point x="387" y="124"/>
			<point x="314" y="12"/>
			<point x="251" y="12" type="curve" smooth="yes"/>
			<point x="228" y="12"/>
			<point x="212" y="38"/>
			<point x="212" y="74" type="curve" smooth="yes"/>
			<point x="212" y="162"/>
			<point x="267" y="235"/>
		</contour>
	</outline>
</glyph>
<glyph name="i" format="2">
	<advance width="177"/>
	<unicode hex="0069"/>
	<outline>
		<contour>
			<point x="0.057" y="281.996" type="line"/>
			<point x="-40.361" y="194.259" type="line" smooth="yes"/>
			<point x="-64.02" y="140.04"/>
			<point x="-73.878" y="100.608"/>
			<point x="-73.878" y="70.049" type="curve" smooth="yes"/>
			<point x="-73.878" y="21.744"/>
			<point x="-49.233" y="0.057"/>
			<point x="-17.688" y="0.057" type="curve" smooth="yes"/>
			<point x="51.318" y="0.057"/>
			<point x="125.253" y="110.466"/>
			<point x="191.302" y="276.081" type="curve"/>
			<point x="191.302" y="281.996"/>
			<point x="186.373" y="284.953"/>
			<point x="181.444" y="281.996" type="curve"/>
			<point x="118.353" y="124.268"/>
			<point x="45.404" y="11.886"/>
			<point x="-17.688" y="11.886" type="curve" smooth="yes"/>
			<point x="-42.333" y="11.886"/>
			<point x="-57.12" y="33.574"/>
			<point x="-57.12" y="67.091" type="curve" smooth="yes"/>
			<point x="-57.12" y="95.679"/>
			<point x="-48.247" y="134.126"/>
			<point x="-26.56" y="177.501" type="curve" smooth="yes"/>
			<point x="152.856" y="550.133" type="line"/>
			<point x="122.296" y="550.133" type="line"/>
		</contour>
		<contour>
			<point x="190.316" y="729.549" type="curve" smooth="yes"/>
			<point x="185.387" y="714.762"/>
			<point x="190.316" y="702.932"/>
			<point x="209.046" y="702.932" type="curve" smooth="yes"/>
			<point x="222.848" y="702.932"/>
			<point x="237.635" y="712.79"/>
			<point x="242.564" y="727.577" type="curve" smooth="yes"/>
			<point x="247.493" y="740.393"/>
			<point x="239.606" y="755.18"/>
			<point x="224.819" y="755.18" type="curve" smooth="yes"/>
			<point x="208.061" y="755.18"/>
			<point x="196.231" y="744.336"/>
		</contour>
	</outline>
</glyph>
<glyph name="j" format="2">
	<advance width="214"/>
	<unicode hex="006A"/>
	<outline>
		<contour>
			<point x="269" y="730" type="curve" smooth="yes"/>
			<point x="264" y="716"/>
			<point x="270" y="703"/>
			<point x="288" y="703" type="curve" smooth="yes"/>
			<point x="302" y="703"/>
			<point x="316" y="713"/>
			<point x="321" y="728" type="curve" smooth="yes"/>
			<point x="325" y="740"/>
			<point x="318" y="755"/>
			<point x="304" y="755" type="curve" smooth="yes"/>
			<point x="287" y="755"/>
			<point x="275" y="744"/>
		</contour>
		<contour>
			<point x="-358" y="-416" type="curve" smooth="yes"/>
			<point x="-394" y="-416"/>
			<point x="-417" y="-396"/>
			<point x="-417" y="-364" type="curve" smooth="yes"/>
			<point x="-417" y="-246"/>
			<point x="-159" y="-86"/>
			<point x="-60" y="-16" type="curve"/>
			<point x="-84" y="-79"/>
			<point x="-116" y="-170"/>
			<point x="-162" y="-248" type="curve" smooth="yes"/>
			<point x="-224" y="-359"/>
			<point x="-293" y="-416"/>
		</contour>
		<contour>
			<point x="-50" y="7" type="curve"/>
			<point x="-166" y="-80"/>
			<point x="-428" y="-208"/>
			<point x="-428" y="-361" type="curve" smooth="yes"/>
			<point x="-428" y="-405"/>
			<point x="-403" y="-427"/>
			<point x="-355" y="-427" type="curve" smooth="yes"/>
			<point x="-277" y="-427"/>
			<point x="-195" y="-365"/>
			<point x="-137" y="-262" type="curve" smooth="yes"/>
			<point x="-92" y="-180"/>
			<point x="-69" y="-89"/>
			<point x="-39" y="0" type="curve"/>
			<point x="55" y="58"/>
			<point x="157" y="135"/>
			<point x="226" y="276" type="curve"/>
			<point x="226" y="282"/>
			<point x="222" y="285"/>
			<point x="216" y="282" type="curve"/>
			<point x="153" y="151"/>
			<point x="60" y="79"/>
			<point x="-31" y="22" type="curve"/>
			<point x="2" y="142"/>
			<point x="71" y="311"/>
			<point x="130" y="420" type="curve" smooth="yes"/>
			<point x="162" y="479"/>
			<point x="190" y="522"/>
			<point x="242" y="561" type="curve"/>
			<point x="200" y="561" type="line"/>
			<point x="164" y="532"/>
			<point x="122" y="459"/>
			<point x="107" y="429" type="curve" smooth="yes"/>
			<point x="39" y="294"/>
			<point x="0" y="152"/>
		</contour>
		<contour>
			<point x="208" y="550" type="curve"/>
			<point x="200" y="561" type="line"/>
			<point x="104" y="513"/>
			<point x="21" y="330"/>
			<point x="0" y="282" type="curve"/>
			<point x="0" y="276"/>
			<point x="5" y="274"/>
			<point x="10" y="276" type="curve"/>
			<point x="29" y="317"/>
			<point x="113" y="503"/>
		</contour>
	</outline>
</glyph>
<glyph name="k" format="2">
	<advance width="463"/>
	<unicode hex="006B"/>
	<outline>
		<contour>
			<point x="48" y="196" type="curve" smooth="yes"/>
			<point x="27" y="151"/>
			<point x="10" y="117"/>
			<point x="-2" y="91" type="curve" smooth="yes"/>
			<point x="-34" y="26"/>
			<point x="-40" y="13"/>
			<point x="-43" y="13" type="curve" smooth="yes"/>
			<point x="-49" y="13"/>
			<point x="-27" y="81"/>
			<point x="-10" y="117" type="curve" smooth="yes"/>
			<point x="26" y="194"/>
			<point x="85" y="283"/>
			<point x="132" y="352" type="curve" smooth="yes"/>
			<point x="176" y="418"/>
			<point x="295" y="581"/>
			<point x="362" y="581" type="curve" smooth="yes"/>
			<point x="384" y="581"/>
			<point x="412" y="571"/>
			<point x="412" y="511" type="curve" smooth="yes"/>
			<point x="412" y="438"/>
			<point x="351" y="337"/>
			<point x="272" y="337" type="curve" smooth="yes"/>
			<point x="259" y="337"/>
			<point x="240" y="343"/>
			<point x="224" y="372" type="curve"/>
			<point x="223" y="369"/>
			<point x="220" y="359"/>
			<point x="219" y="356" type="curve"/>
			<point x="220" y="353"/>
			<point x="221" y="350"/>
			<point x="222" y="348" type="curve"/>
			<point x="220" y="342"/>
			<point x="216" y="333"/>
			<point x="212" y="328" type="curve"/>
			<point x="176" y="267"/>
			<point x="149" y="213"/>
			<point x="149" y="135" type="curve" smooth="yes"/>
			<point x="149" y="56"/>
			<point x="182" y="0"/>
			<point x="239" y="0" type="curve" smooth="yes"/>
			<point x="324" y="0"/>
			<point x="412" y="143"/>
			<point x="473" y="276" type="curve"/>
			<point x="473" y="284"/>
			<point x="469" y="288"/>
			<point x="463" y="282" type="curve"/>
			<point x="405" y="157"/>
			<point x="318" y="13"/>
			<point x="240" y="13" type="curve" smooth="yes"/>
			<point x="196" y="13"/>
			<point x="174" y="59"/>
			<point x="174" y="124" type="curve" smooth="yes"/>
			<point x="174" y="183"/>
			<point x="193" y="258"/>
			<point x="229" y="329" type="curve" smooth="yes"/>
			<point x="230" y="331"/>
			<point x="232" y="334"/>
			<point x="235" y="334" type="curve" smooth="yes"/>
			<point x="236" y="334"/>
			<point x="238" y="333"/>
			<point x="240" y="332" type="curve" smooth="yes"/>
			<point x="253" y="324"/>
			<point x="270" y="322"/>
			<point x="282" y="322" type="curve" smooth="yes"/>
			<point x="381" y="322"/>
			<point x="437" y="435"/>
			<point x="437" y="500" type="curve" smooth="yes"/>
			<point x="437" y="563"/>
			<point x="403" y="594"/>
			<point x="365" y="594" type="curve" smooth="yes"/>
			<point x="309" y="594"/>
			<point x="229" y="507"/>
			<point x="155" y="407" type="curve" smooth="yes"/>
			<point x="75" y="299"/>
			<point x="4" y="174"/>
			<point x="-19" y="125" type="curve" smooth="yes"/>
			<point x="-35" y="90"/>
			<point x="-55" y="35"/>
			<point x="-55" y="15" type="curve" smooth="yes"/>
			<point x="-55" y="6"/>
			<point x="-51" y="0"/>
			<point x="-43" y="0" type="curve" smooth="yes"/>
			<point x="-27" y="0"/>
			<point x="10" y="48"/>
			<point x="72" y="187" type="curve" smooth="yes"/>
			<point x="165" y="397" type="line" smooth="yes"/>
			<point x="181" y="433"/>
			<point x="191" y="471"/>
			<point x="206" y="508" type="curve" smooth="yes"/>
			<point x="212" y="525"/>
			<point x="219" y="544"/>
			<point x="225" y="563" type="curve"/>
			<point x="340" y="653"/>
			<point x="602" y="773"/>
			<point x="602" y="931" type="curve" smooth="yes"/>
			<point x="602" y="975"/>
			<point x="575" y="1000"/>
			<point x="526" y="1000" type="curve" smooth="yes"/>
			<point x="448" y="1000"/>
			<point x="373" y="937"/>
			<point x="315" y="834" type="curve" smooth="yes"/>
			<point x="270" y="751"/>
			<point x="241" y="659"/>
			<point x="214" y="569" type="curve"/>
			<point x="137" y="508"/>
			<point x="63" y="426"/>
			<point x="0" y="282" type="curve"/>
			<point x="1" y="277"/>
			<point x="5" y="275"/>
			<point x="10" y="276" type="curve"/>
			<point x="68" y="410"/>
			<point x="134" y="486"/>
			<point x="206" y="546" type="curve"/>
			<point x="201" y="531"/>
			<point x="198" y="525"/>
			<point x="193" y="511" type="curve" smooth="yes"/>
			<point x="162" y="427"/>
			<point x="124" y="349"/>
			<point x="85" y="270" type="curve" smooth="yes"/>
			<point x="73" y="246"/>
			<point x="60" y="220"/>
		</contour>
		<contour>
			<point x="532" y="986" type="curve" smooth="yes"/>
			<point x="569" y="986"/>
			<point x="592" y="966"/>
			<point x="592" y="934" type="curve" smooth="yes"/>
			<point x="592" y="819"/>
			<point x="334" y="654"/>
			<point x="235" y="586" type="curve"/>
			<point x="258" y="649"/>
			<point x="291" y="740"/>
			<point x="336" y="818" type="curve" smooth="yes"/>
			<point x="398" y="929"/>
			<point x="467" y="986"/>
		</contour>
	</outline>
</glyph>
<glyph name="l" format="2">
	<advance width="174"/>
	<unicode hex="006C"/>
	<outline>
		<contour>
			<point x="-77" y="70" type="curve" smooth="yes"/>
			<point x="-77" y="22"/>
			<point x="-52" y="0"/>
			<point x="-21" y="0" type="curve" smooth="yes"/>
			<point x="48" y="0"/>
			<point x="122" y="110"/>
			<point x="188" y="276" type="curve"/>
			<point x="188" y="280"/>
			<point x="184" y="285"/>
			<point x="179" y="282" type="curve"/>
			<point x="115" y="124"/>
			<point x="42" y="12"/>
			<point x="-21" y="12" type="curve" smooth="yes"/>
			<point x="-45" y="12"/>
			<point x="-60" y="34"/>
			<point x="-60" y="67" type="curve" smooth="yes"/>
			<point x="-60" y="90"/>
			<point x="-52" y="120"/>
			<point x="-37" y="152" type="curve" smooth="yes"/>
			<point x="341" y="965" type="line"/>
			<point x="313" y="965" type="line"/>
			<point x="0" y="282" type="line"/>
			<point x="-54" y="165" type="line" smooth="yes"/>
			<point x="-70" y="130"/>
			<point x="-77" y="97"/>
		</contour>
	</outline>
</glyph>
<glyph name="m" format="2">
	<advance width="723"/>
	<unicode hex="006D"/>
	<outline>
		<contour>
			<point x="676" y="491" type="curve" smooth="yes"/>
			<point x="676" y="534"/>
			<point x="652" y="563"/>
			<point x="616" y="563" type="curve" smooth="yes"/>
			<point x="561" y="563"/>
			<point x="490" y="493"/>
			<point x="424" y="407" type="curve" smooth="yes"/>
			<point x="345" y="305"/>
			<point x="275" y="182"/>
			<point x="252" y="132" type="curve"/>
			<point x="238" y="104"/>
			<point x="213" y="44"/>
			<point x="213" y="15" type="curve" smooth="yes"/>
			<point x="213" y="6"/>
			<point x="218" y="0"/>
			<point x="226" y="0" type="curve" smooth="yes"/>
			<point x="243" y="0"/>
			<point x="279" y="48"/>
			<point x="341" y="187" type="curve" smooth="yes"/>
			<point x="350" y="208"/>
			<point x="418" y="360"/>
			<point x="434" y="397" type="curve" smooth="yes"/>
			<point x="443" y="418"/>
			<point x="457" y="464"/>
			<point x="457" y="503" type="curve" smooth="yes"/>
			<point x="457" y="535"/>
			<point x="446" y="563"/>
			<point x="410" y="563" type="curve" smooth="yes"/>
			<point x="356" y="563"/>
			<point x="285" y="493"/>
			<point x="220" y="409" type="curve" smooth="yes"/>
			<point x="141" y="306"/>
			<point x="69" y="182"/>
			<point x="46" y="132" type="curve"/>
			<point x="32" y="104"/>
			<point x="7" y="44"/>
			<point x="7" y="15" type="curve" smooth="yes"/>
			<point x="7" y="6"/>
			<point x="12" y="0"/>
			<point x="20" y="0" type="curve" smooth="yes"/>
			<point x="37" y="0"/>
			<point x="73" y="48"/>
			<point x="135" y="187" type="curve" smooth="yes"/>
			<point x="155" y="232"/>
			<point x="216" y="371"/>
			<point x="228" y="397" type="curve"/>
			<point x="236" y="418"/>
			<point x="251" y="464"/>
			<point x="251" y="503" type="curve" smooth="yes"/>
			<point x="251" y="535"/>
			<point x="240" y="563"/>
			<point x="204" y="563" type="curve" smooth="yes"/>
			<point x="137" y="563"/>
			<point x="64" y="450"/>
			<point x="0" y="282" type="curve"/>
			<point x="0" y="278"/>
			<point x="4" y="274"/>
			<point x="10" y="276" type="curve"/>
			<point x="71" y="436"/>
			<point x="143" y="551"/>
			<point x="204" y="551" type="curve" smooth="yes"/>
			<point x="230" y="551"/>
			<point x="238" y="530"/>
			<point x="238" y="504" type="curve" smooth="yes"/>
			<point x="238" y="468"/>
			<point x="223" y="423"/>
			<point x="214" y="406" type="curve" smooth="yes"/>
			<point x="212" y="402"/>
			<point x="128" y="231"/>
			<point x="111" y="196" type="curve" smooth="yes"/>
			<point x="90" y="151"/>
			<point x="74" y="117"/>
			<point x="61" y="91" type="curve" smooth="yes"/>
			<point x="30" y="26"/>
			<point x="23" y="13"/>
			<point x="20" y="13" type="curve" smooth="yes"/>
			<point x="19" y="13"/>
			<point x="18" y="14"/>
			<point x="18" y="15" type="curve"/>
			<point x="19" y="34"/>
			<point x="40" y="90"/>
			<point x="58" y="127" type="curve" smooth="yes"/>
			<point x="93" y="196"/>
			<point x="146" y="290"/>
			<point x="202" y="367" type="curve" smooth="yes"/>
			<point x="278" y="471"/>
			<point x="360" y="550"/>
			<point x="410" y="550" type="curve" smooth="yes"/>
			<point x="436" y="550"/>
			<point x="444" y="529"/>
			<point x="444" y="503" type="curve" smooth="yes"/>
			<point x="444" y="467"/>
			<point x="428" y="422"/>
			<point x="420" y="405" type="curve" smooth="yes"/>
			<point x="402" y="369"/>
			<point x="333" y="229"/>
			<point x="317" y="195" type="curve" smooth="yes"/>
			<point x="296" y="150"/>
			<point x="280" y="116"/>
			<point x="267" y="90" type="curve" smooth="yes"/>
			<point x="236" y="25"/>
			<point x="229" y="12"/>
			<point x="226" y="12" type="curve" smooth="yes"/>
			<point x="225" y="12"/>
			<point x="224" y="12"/>
			<point x="224" y="14" type="curve"/>
			<point x="225" y="33"/>
			<point x="246" y="89"/>
			<point x="264" y="126" type="curve" smooth="yes"/>
			<point x="299" y="195"/>
			<point x="352" y="289"/>
			<point x="408" y="366" type="curve" smooth="yes"/>
			<point x="484" y="470"/>
			<point x="566" y="550"/>
			<point x="616" y="550" type="curve" smooth="yes"/>
			<point x="642" y="550"/>
			<point x="660" y="532"/>
			<point x="660" y="503" type="curve" smooth="yes"/>
			<point x="660" y="452"/>
			<point x="622" y="393"/>
			<point x="579" y="334" type="curve" smooth="yes"/>
			<point x="529" y="265"/>
			<point x="465" y="169"/>
			<point x="465" y="83" type="curve" smooth="yes"/>
			<point x="465" y="38"/>
			<point x="490" y="0"/>
			<point x="521" y="0" type="curve" smooth="yes"/>
			<point x="590" y="0"/>
			<point x="665" y="110"/>
			<point x="731" y="276" type="curve"/>
			<point x="731" y="282"/>
			<point x="728" y="285"/>
			<point x="721" y="282" type="curve"/>
			<point x="658" y="124"/>
			<point x="584" y="12"/>
			<point x="521" y="12" type="curve" smooth="yes"/>
			<point x="497" y="12"/>
			<point x="481" y="38"/>
			<point x="481" y="74" type="curve" smooth="yes"/>
			<point x="481" y="144"/>
			<point x="528" y="214"/>
			<point x="576" y="283" type="curve" smooth="yes"/>
			<point x="626" y="354"/>
			<point x="676" y="424"/>
		</contour>
	</outline>
</glyph>
<glyph name="n" format="2">
	<advance width="514"/>
	<unicode hex="006E"/>
	<anchor x="394" y="638" name="top"/>
	<outline>
		<contour>
			<point x="61.176" y="90.75" type="curve" smooth="yes"/>
			<point x="58.219" y="85.821"/>
			<point x="24.702" y="12.872"/>
			<point x="18.787" y="12.872" type="curve" smooth="yes"/>
			<point x="17.801" y="12.872"/>
			<point x="16.815" y="13.858"/>
			<point x="16.815" y="14.844" type="curve" smooth="yes"/>
			<point x="16.815" y="35.546"/>
			<point x="40.475" y="89.765"/>
			<point x="58.219" y="127.225" type="curve" smooth="yes"/>
			<point x="78.921" y="168.629"/>
			<point x="137.083" y="273.123"/>
			<point x="202.146" y="364.803" type="curve" smooth="yes"/>
			<point x="273.123" y="464.369"/>
			<point x="352.973" y="550.133"/>
			<point x="410.15" y="550.133" type="curve" smooth="yes"/>
			<point x="435.78" y="550.133"/>
			<point x="453.525" y="532.389"/>
			<point x="453.525" y="502.815" type="curve" smooth="yes"/>
			<point x="453.525" y="451.553"/>
			<point x="415.079" y="393.391"/>
			<point x="372.689" y="334.243" type="curve" smooth="yes"/>
			<point x="322.413" y="265.237"/>
			<point x="259.322" y="168.629"/>
			<point x="259.322" y="82.864" type="curve" smooth="yes"/>
			<point x="259.322" y="37.517"/>
			<point x="283.967" y="0.057"/>
			<point x="314.527" y="0.057" type="curve" smooth="yes"/>
			<point x="381.561" y="0.057"/>
			<point x="453.525" y="108.495"/>
			<point x="517.602" y="276.081" type="curve"/>
			<point x="517.602" y="281.996"/>
			<point x="512.673" y="286.925"/>
			<point x="507.744" y="281.996" type="curve"/>
			<point x="446.624" y="124.268"/>
			<point x="375.647" y="11.886"/>
			<point x="314.527" y="11.886" type="curve" smooth="yes"/>
			<point x="290.868" y="11.886"/>
			<point x="275.095" y="37.517"/>
			<point x="275.095" y="73.992" type="curve" smooth="yes"/>
			<point x="275.095" y="143.984"/>
			<point x="322.413" y="213.975"/>
			<point x="369.732" y="282.981" type="curve" smooth="yes"/>
			<point x="420.008" y="353.959"/>
			<point x="470.283" y="423.951"/>
			<point x="470.283" y="490.985" type="curve" smooth="yes"/>
			<point x="470.283" y="534.36"/>
			<point x="445.638" y="562.949"/>
			<point x="410.15" y="562.949" type="curve" smooth="yes"/>
			<point x="353.959" y="562.949"/>
			<point x="279.038" y="486.056"/>
			<point x="211.018" y="395.363" type="curve" smooth="yes"/>
			<point x="140.04" y="300.726"/>
			<point x="74.978" y="189.33"/>
			<point x="46.389" y="132.154" type="curve" smooth="yes"/>
			<point x="31.602" y="103.566"/>
			<point x="6.957" y="44.418"/>
			<point x="6.957" y="14.844" type="curve" smooth="yes"/>
			<point x="6.957" y="5.972"/>
			<point x="11.886" y="0.057"/>
			<point x="19.773" y="0.057" type="curve" smooth="yes"/>
			<point x="36.531" y="0.057"/>
			<point x="73.006" y="48.361"/>
			<point x="135.111" y="187.359" type="curve" smooth="yes"/>
			<point x="138.069" y="195.245"/>
			<point x="196.231" y="325.371"/>
			<point x="227.777" y="396.348" type="curve" smooth="yes"/>
			<point x="236.649" y="417.05"/>
			<point x="251.436" y="464.369"/>
			<point x="251.436" y="502.815" type="curve" smooth="yes"/>
			<point x="251.436" y="535.346"/>
			<point x="239.606" y="562.949"/>
			<point x="204.117" y="562.949" type="curve" smooth="yes"/>
			<point x="137.083" y="562.949"/>
			<point x="64.134" y="449.582"/>
			<point x="0.057" y="281.996" type="curve"/>
			<point x="0.057" y="274.109"/>
			<point x="4" y="273.123"/>
			<point x="9.915" y="276.081" type="curve"/>
			<point x="71.034" y="435.78"/>
			<point x="142.998" y="551.119"/>
			<point x="204.117" y="551.119" type="curve" smooth="yes"/>
			<point x="229.748" y="551.119"/>
			<point x="237.635" y="530.417"/>
			<point x="237.635" y="503.801" type="curve" smooth="yes"/>
			<point x="237.635" y="468.312"/>
			<point x="222.848" y="422.965"/>
			<point x="213.975" y="406.206" type="curve" smooth="yes"/>
			<point x="180.458" y="337.2"/>
			<point x="145.955" y="265.237"/>
			<point x="111.452" y="196.231" type="curve" smooth="yes"/>
			<point x="89.765" y="150.884"/>
			<point x="75.963" y="116.381"/>
		</contour>
	</outline>
</glyph>
